<svg width="62" height="62" viewBox="0 0 62 62" fill="none" xmlns="http://www.w3.org/2000/svg">
<path d="M54 53H52.9999V24C52.9999 23.448 52.5519 22.9999 51.9999 22.9999H45.9999C45.4479 22.9999 44.9999 23.448 44.9999 24V52.9999H40.9998V36C40.9998 35.448 40.5518 34.9999 39.9998 34.9999H33.9998C33.4478 34.9999 32.9998 35.448 32.9998 36V52.9999H28.9998V31.9999C28.9998 31.4479 28.5517 30.9999 27.9997 30.9999H21.9997C21.4477 30.9999 20.9997 31.4479 20.9997 31.9999V52.9999H16.9997V42C16.9997 41.448 16.5516 40.9999 15.9996 40.9999H10C9.448 40.9999 8.99997 41.448 8.99997 42V52.9999H8.00003C7.44803 53 7 53.448 7 54C7 54.552 7.44803 55 8.00003 55H54C54.552 55 55 54.552 55 54C55 53.448 54.552 53 54 53Z" fill="#282828"/>
<path d="M49 7C46.794 7 45 8.794 45 11C45 11.74 45.216 12.424 45.5659 13.0201L39.0199 19.5661C38.424 19.216 37.74 19 37 19C35.746 19 34.638 19.592 33.904 20.498L28.99 19.096C28.99 19.064 29 19.034 29 19C29 16.794 27.206 15 25 15C22.794 15 21 16.794 21 19C21 19.582 21.13 20.13 21.354 20.628L15.1039 25.614C14.492 25.23 13.774 25 13 25C10.794 25 8.99996 26.794 8.99996 29C8.99996 31.2061 10.794 33.0001 13 33.0001C15.206 33.0001 17 31.2061 17 29C17 28.298 16.802 27.646 16.4821 27.0721L22.6081 22.1861C23.2781 22.6901 24.1001 23.0001 25.0001 23.0001C26.4661 23.0001 27.7381 22.1981 28.4341 21.0182L33.068 22.3401C33.0301 22.5561 33.0001 22.7741 33.0001 23.0001C33.0001 25.2062 34.7941 27.0002 37.0001 27.0002C39.2061 27.0002 41.0001 25.2062 41.0001 23.0001C41.0001 22.2602 40.7841 21.5762 40.4342 20.9801L46.9821 14.4321C47.5761 14.7842 48.2601 15.0002 49.0001 15.0002C51.2061 15.0002 53.0001 13.2062 53.0001 11.0001C53 8.794 51.206 7 49 7Z" fill="#282828"/>
</svg>
