<svg width="47" height="47" viewBox="0 0 47 47" fill="none" xmlns="http://www.w3.org/2000/svg">
<path d="M34.353 21.6012L37.5134 17.1992H41.4371V6.45898H27.2692V17.1992H31.1937L34.353 21.6012ZM30.0231 9.21289H38.6832V14.4453H36.1003L34.3533 16.8787L32.607 14.4453H30.0231V9.21289Z" fill="#282828"/>
<path d="M47 37.127V0H0V37.127H17.9922V44.2245H8.05472V47H38.9453V44.2246H29.0078V37.1271H47V37.127ZM44.248 2.77539V28.7485H23.2902V26.1896C23.2902 22.2933 20.8333 18.9606 17.3876 17.6577C21.3179 13.4139 18.1934 6.32756 12.4375 6.32756C6.68153 6.32756 3.55704 13.4138 7.48732 17.6577C5.47302 18.4193 3.79699 19.8746 2.75189 21.7309V2.77539H44.248ZM12.4375 17.0717C10.2345 17.0717 8.44238 15.2796 8.44238 13.0766C8.44238 10.8738 10.2345 9.08156 12.4375 9.08156C14.6404 9.08156 16.4326 10.8737 16.4326 13.0766C16.4326 15.2795 14.6404 17.0717 12.4375 17.0717ZM10.7028 19.8256H14.1722C17.6815 19.8256 20.5363 22.6806 20.5363 26.1897V28.7486H4.33869V26.1897C4.33869 22.6805 7.19357 19.8256 10.7028 19.8256ZM2.74161 34.3731V31.5025H44.2584V34.3731H2.74161ZM26.2539 44.2246H20.7461V37.1271H26.2539V44.2246Z" fill="#282828"/>
</svg>
