<svg width="62" height="62" viewBox="0 0 62 62" fill="none" xmlns="http://www.w3.org/2000/svg">
<path d="M52.3663 14.3456C51.3779 14.2555 50.5038 14.9837 50.4137 15.972L50.1756 18.5836C46.1363 12.2401 39.1245 8 31 8C22.2599 8 14.5575 12.9883 10.7339 20.4752C10.2825 21.359 10.6331 22.4413 11.5169 22.8927C12.4009 23.3441 13.483 22.9936 13.9344 22.1097C17.1703 15.7736 23.6685 11.5938 31 11.5938C37.6823 11.5938 43.7129 15.0735 47.1677 20.525L44.6056 18.6951C43.798 18.1184 42.6758 18.3055 42.0991 19.113C41.5224 19.9206 41.7094 21.0427 42.5169 21.6195L50.2862 27.1684C51.4249 27.9801 52.9954 27.237 53.12 25.8693L53.9924 16.2983C54.0827 15.3099 53.3546 14.4357 52.3663 14.3456Z" fill="#282828"/>
<path d="M50.4831 39.1074C49.5992 38.6561 48.517 39.0066 48.0656 39.8904C44.8297 46.2265 38.3315 50.4063 31 50.4063C24.3177 50.4063 18.2872 46.9266 14.8323 41.4751L17.3944 43.305C18.202 43.8817 19.3241 43.6946 19.9009 42.8871C20.4776 42.0795 20.2906 40.9573 19.4831 40.3805L11.7138 34.8317C10.5891 34.0281 9.00583 34.7489 8.88004 36.1307L8.00757 45.7018C7.91746 46.6901 8.64564 47.5643 9.63384 47.6544C10.6234 47.7443 11.4964 47.0154 11.5864 46.0281L11.8245 43.4164C15.8637 49.76 22.8755 54.0001 31 54.0001C39.7401 54.0001 47.4425 49.0118 51.2661 41.5249C51.7175 40.6411 51.3669 39.5587 50.4831 39.1074Z" fill="#282828"/>
</svg>
