<svg width="62" height="62" viewBox="0 0 62 62" fill="none" xmlns="http://www.w3.org/2000/svg">
<path d="M22.1354 39.1578L21.8615 38.966C21.5666 38.7602 21.1996 38.6764 20.8412 38.733C20.4828 38.7896 20.1621 38.982 19.9494 39.268L17.3657 42.7519C17.2606 42.8937 17.1852 43.0542 17.1439 43.2243C17.1026 43.3944 17.0962 43.5707 17.125 43.7432C17.1539 43.9157 17.2175 44.081 17.3121 44.2296C17.4067 44.3783 17.5305 44.5073 17.6765 44.6094L17.9503 44.8011C18.2451 45.007 18.6121 45.0909 18.9705 45.0343C19.329 44.9777 19.6497 44.7853 19.8623 44.4993L22.446 41.0154C22.658 40.7289 22.7443 40.3724 22.686 40.0242C22.6278 39.676 22.4297 39.3644 22.1354 39.1578Z" fill="#282828"/>
<path d="M20.0511 36.3254C20.0227 36.1527 19.9594 35.9873 19.8647 35.8386C19.7701 35.6899 19.646 35.5609 19.4998 35.459L19.2259 35.2674C18.931 35.0614 18.5641 34.9775 18.2056 35.0341C17.8471 35.0907 17.5264 35.2831 17.3139 35.5692L13.825 40.2737C13.7199 40.4155 13.6445 40.576 13.6032 40.7461C13.5619 40.9162 13.5555 41.0925 13.5843 41.2649C13.6132 41.4374 13.6767 41.6027 13.7713 41.7513C13.8659 41.8999 13.9897 42.029 14.1357 42.1311L14.4096 42.3229C14.7044 42.5288 15.0714 42.6127 15.4298 42.5561C15.7883 42.4995 16.109 42.3071 16.3216 42.0211L19.8104 37.3166C19.916 37.175 19.9917 37.0145 20.033 36.8444C20.0743 36.6742 20.0805 36.4978 20.0511 36.3254Z" fill="#282828"/>
<path d="M24.9354 42.6346L24.6615 42.4429C24.3666 42.2371 23.9996 42.1533 23.6412 42.21C23.2827 42.2668 22.9621 42.4593 22.7496 42.7455L20.9066 45.2308C20.6944 45.517 20.608 45.8734 20.6662 46.2216C20.7244 46.5698 20.9226 46.8812 21.2171 47.0876L21.491 47.2792C21.7858 47.4852 22.1528 47.5691 22.5112 47.5125C22.8697 47.4559 23.1904 47.2635 23.403 46.9774L25.2461 44.4921C25.458 44.2056 25.5444 43.8492 25.4861 43.5009C25.4279 43.1527 25.2298 42.8411 24.9354 42.6346Z" fill="#282828"/>
<path d="M20.5712 18.7151L9.24288 12.3866L0 29.5779L11.3203 35.7314C11.3675 35.7575 11.4195 35.7742 11.4735 35.7803C11.5274 35.7865 11.582 35.782 11.6341 35.7672C11.6862 35.7524 11.7347 35.7275 11.7767 35.6941C11.8187 35.6607 11.8534 35.6195 11.8786 35.5728L20.7139 19.2301C20.7609 19.1425 20.7724 19.041 20.746 18.9456C20.7195 18.8502 20.6571 18.7679 20.5712 18.7151ZM10.0274 19.3353L5.97205 26.7279C5.89018 26.8713 5.75363 26.9776 5.5918 27.0241C5.42997 27.0706 5.25582 27.0535 5.10688 26.9764C4.95793 26.8993 4.84611 26.7685 4.7955 26.6121C4.74489 26.4557 4.75954 26.2863 4.8363 26.1403L8.89167 18.7476C8.93053 18.6737 8.98415 18.6081 9.0494 18.5545C9.11466 18.5009 9.19024 18.4605 9.27174 18.4356C9.35324 18.4107 9.43902 18.4019 9.52409 18.4095C9.60916 18.4172 9.6918 18.4412 9.76721 18.4802C9.84261 18.5192 9.90927 18.5724 9.96328 18.6367C10.0173 18.701 10.0576 18.7752 10.0818 18.8547C10.106 18.9343 10.1137 19.0178 10.1044 19.1003C10.095 19.1828 10.0689 19.2627 10.0274 19.3353ZM11.6011 16.4665L11.1168 17.3492C11.078 17.4231 11.0244 17.4888 10.9591 17.5423C10.8938 17.5959 10.8183 17.6363 10.7368 17.6612C10.6553 17.6861 10.5695 17.695 10.4844 17.6873C10.3993 17.6796 10.3167 17.6556 10.2413 17.6166C10.1659 17.5776 10.0992 17.5244 10.0452 17.4601C9.99121 17.3958 9.95092 17.3217 9.9267 17.2421C9.90247 17.1625 9.89481 17.079 9.90415 16.9965C9.91349 16.914 9.93964 16.8341 9.98109 16.7616L10.4654 15.8789C10.5042 15.8049 10.5579 15.7393 10.6231 15.6857C10.6884 15.6322 10.7639 15.5917 10.8454 15.5669C10.9269 15.542 11.0127 15.5331 11.0978 15.5407C11.1829 15.5484 11.2655 15.5724 11.3409 15.6114C11.4163 15.6505 11.483 15.7037 11.537 15.768C11.591 15.8323 11.6313 15.9064 11.6555 15.986C11.6797 16.0656 11.6874 16.149 11.6781 16.2315C11.6687 16.314 11.6426 16.3939 11.6011 16.4665Z" fill="#282828"/>
<path d="M40.0953 21.1148C38.4922 21.4487 37.3475 21.4096 35.7206 20.9654L32.3032 20.0322C31.5745 19.8333 30.8019 19.8454 30.0803 20.0672L26.7821 21.0807C26.2458 21.2451 25.7528 21.5209 25.337 21.8888C24.9213 22.2567 24.5929 22.708 24.3746 23.2114L21.8787 29.7901C22.4161 29.9723 22.9892 30.0328 23.5543 29.9671C24.1194 29.9014 24.6616 29.7111 25.1395 29.4109C25.5896 29.1226 25.9677 28.7402 26.246 28.2917C26.5243 27.8432 26.6959 27.3399 26.7482 26.8186C26.7683 26.6041 26.8091 26.392 26.8702 26.185C26.9655 25.8597 27.0959 25.5452 27.2592 25.2465C27.7979 24.2769 28.5963 23.7623 29.5682 23.7587C29.628 23.7604 29.6875 23.7683 29.7456 23.7822L31.2915 24.2059C32.062 24.417 32.7648 24.8146 33.334 25.3614L45.0207 36.2567C45.9139 35.8097 46.662 35.1307 47.1816 34.2953L40.673 20.8879L40.0953 21.1148Z" fill="#282828"/>
<path d="M41.0699 17.7172C41.0597 17.7217 41.0495 17.7259 41.0393 17.7297C40.9878 17.7494 40.941 17.7792 40.9018 17.8172C40.8626 17.8552 40.8319 17.9005 40.8115 17.9505C40.7911 18.0005 40.7814 18.054 40.7832 18.1078C40.7849 18.1615 40.798 18.2143 40.8216 18.263L48.98 35.0688C49.0239 35.1604 49.1025 35.2318 49.1995 35.2683C49.2964 35.3047 49.404 35.3033 49.4999 35.2644L62 29.5801L53.6014 12.1775L41.0699 17.7172Z" fill="#282828"/>
<path d="M27.7356 46.1116L27.4617 45.9199C27.1668 45.714 26.7999 45.6302 26.4415 45.6867C26.083 45.7433 25.7623 45.9357 25.5497 46.2217L24.4473 47.7083C24.2353 47.9948 24.1489 48.3512 24.2072 48.6995C24.2654 49.0477 24.4635 49.3593 24.7579 49.5658L25.0318 49.7575C25.3267 49.9634 25.6936 50.0473 26.052 49.9907C26.4104 49.9341 26.7311 49.7417 26.9437 49.4557L28.0463 47.9691C28.2582 47.6826 28.3444 47.3262 28.2862 46.9779C28.228 46.6297 28.03 46.3182 27.7356 46.1116Z" fill="#282828"/>
<path d="M46.1843 38.8837L32.4288 26.2502C32.0143 25.852 31.5026 25.5625 30.9416 25.4087L29.4923 25.0118C28.6284 25.0743 28.2357 26.0853 28.0984 26.5599C28.0636 26.6834 28.0403 26.8097 28.0288 26.9372V26.9387C27.9586 27.6449 27.7268 28.3268 27.3503 28.9347C26.9738 29.5426 26.4621 30.061 25.8528 30.452C25.1471 30.9036 24.3348 31.1734 23.4923 31.2362C22.6498 31.299 21.8046 31.1527 21.0363 30.8111L20.8197 30.7174C20.6742 30.6545 20.5579 30.5413 20.4933 30.3998C20.4287 30.2584 20.4204 30.0987 20.47 29.9516L23.1863 22.7313C23.3084 22.4514 23.4563 22.1828 23.628 21.9287C22.6371 21.7457 21.6162 21.7866 20.6443 22.0482L13.8362 34.6412L15.3317 36.104L16.2696 34.8392C16.6815 34.2839 17.3036 33.9102 17.999 33.8004C18.6945 33.6906 19.4063 33.8537 19.978 34.2538L20.2057 34.4132C20.6949 34.7475 21.0579 35.2283 21.239 35.782C21.4141 36.3356 21.3914 36.9304 21.1746 37.4699C21.6926 37.49 22.193 37.6577 22.6135 37.9523L22.8873 38.144C23.3297 38.4548 23.6629 38.8904 23.8417 39.3916C24.0204 39.8927 24.036 40.4352 23.8863 40.9453C24.4347 40.9485 24.9686 41.1176 25.4135 41.4292L25.6878 41.6204C26.1302 41.9312 26.4634 42.3668 26.6421 42.868C26.8208 43.3692 26.8363 43.9117 26.6866 44.4217C27.2351 44.4248 27.769 44.5939 28.214 44.9055L28.4878 45.0973C28.9302 45.408 29.2633 45.8434 29.4421 46.3445C29.6209 46.8455 29.6366 47.3879 29.487 47.8979L31.0498 49.1106C31.0562 49.1157 31.0625 49.1208 31.0687 49.126C31.4198 49.4207 31.8771 49.5679 32.3399 49.535C32.8027 49.5022 33.2331 49.2922 33.5364 48.9511C33.8398 48.6099 33.9912 48.1657 33.9574 47.7161C33.9237 47.2666 33.7074 46.8484 33.3563 46.5537L32.0709 45.4751C31.9833 45.4004 31.9179 45.3044 31.8814 45.1968C31.845 45.0893 31.8388 44.9743 31.8636 44.8637C31.8885 44.7531 31.9433 44.6509 32.0225 44.5679C32.1017 44.4848 32.2024 44.4239 32.314 44.3915C32.4169 44.357 32.5277 44.3516 32.6336 44.376C32.7395 44.4003 32.8361 44.4534 32.9122 44.529L35.2104 46.4577C35.5516 46.7503 35.9951 46.9051 36.45 46.8903C36.9049 46.8756 37.3367 46.6925 37.6571 46.3784C37.8207 46.2117 37.9478 46.0145 38.0307 45.7987C38.1136 45.5829 38.1505 45.353 38.1392 45.123C38.1279 44.8929 38.0687 44.6674 37.965 44.4603C37.8614 44.2531 37.7156 44.0685 37.5364 43.9177L35.2205 41.9742C35.0951 41.8724 35.0129 41.7292 34.9896 41.5721C34.9663 41.4151 35.0035 41.2551 35.0942 41.1231C35.146 41.0518 35.2126 40.9918 35.2897 40.947C35.3668 40.9023 35.4527 40.8736 35.5418 40.863C35.631 40.8524 35.7215 40.8601 35.8074 40.8855C35.8933 40.9109 35.9728 40.9535 36.0408 41.0106L39.429 43.854C39.7798 44.1467 40.2357 44.2926 40.6969 44.2597C41.1581 44.2268 41.5872 44.0178 41.8902 43.6784C42.1933 43.3391 42.3457 42.8969 42.3141 42.4487C42.2825 42.0005 42.0696 41.5826 41.7217 41.2865L38.349 38.4556C38.2236 38.3539 38.1414 38.2107 38.1181 38.0537C38.0948 37.8966 38.1321 37.7367 38.2229 37.6047C38.2746 37.5334 38.3412 37.4734 38.4183 37.4286C38.4954 37.3838 38.5813 37.3552 38.6705 37.3446C38.7596 37.334 38.8501 37.3417 38.936 37.3671C39.0219 37.3925 39.1015 37.4351 39.1694 37.4922L43.842 41.4138C44.0154 41.5605 44.2171 41.6721 44.4354 41.7422C44.6537 41.8123 44.8842 41.8394 45.1134 41.822C45.3445 41.8054 45.57 41.7445 45.7768 41.6429C45.9836 41.5412 46.1676 41.4008 46.3183 41.2298L46.3239 41.2235C46.6204 40.8994 46.7781 40.4774 46.7645 40.044C46.7545 39.8223 46.6979 39.605 46.5981 39.4055C46.4984 39.2059 46.3575 39.0283 46.1843 38.8837Z" fill="#282828"/>
</svg>
