<svg width="62" height="62" viewBox="0 0 62 62" fill="none" xmlns="http://www.w3.org/2000/svg">
<path d="M47.0555 25.3334H44.2222V21.5556C44.2222 14.2648 38.2909 8.33337 31 8.33337C23.7091 8.33337 17.7778 14.2648 17.7778 21.5556V25.3334H14.9445C14.4224 25.3334 14 25.7558 14 26.2778V49.889C14 51.9725 15.6942 53.6667 17.7778 53.6667H44.2223C46.3058 53.6667 48 51.9725 48 49.8889V26.2778C48 25.7558 47.5776 25.3334 47.0555 25.3334ZM33.8278 45.0625C33.8573 45.329 33.7716 45.5965 33.5927 45.7967C33.4137 45.9968 33.1573 46.1112 32.8889 46.1112H29.1111C28.8428 46.1112 28.5864 45.9968 28.4074 45.7967C28.2285 45.5966 28.1427 45.3291 28.1722 45.0625L28.768 39.7048C27.8005 39.0011 27.2223 37.8879 27.2223 36.6667C27.2223 34.5832 28.9165 32.8889 31.0001 32.8889C33.0837 32.8889 34.7779 34.5831 34.7779 36.6667C34.7779 37.8879 34.1996 39.0011 33.2321 39.7048L33.8278 45.0625ZM38.5555 25.3334H23.4445V21.5556C23.4445 17.3895 26.8339 14 31 14C35.1661 14 38.5555 17.3895 38.5555 21.5556V25.3334Z" fill="#282828"/>
</svg>
