<svg width="47" height="47" viewBox="0 0 47 47" fill="none" xmlns="http://www.w3.org/2000/svg">
<g clip-path="url(#clip0)">
<path d="M45.5298 23.1866C43.9583 21.8915 41.4745 21.7804 39.8442 23.5299L35.7972 27.8744C35.274 26.1928 33.7034 24.9683 31.852 24.9683H24.6299C24.0819 24.9683 23.8984 24.759 22.9465 24.0256C19.317 20.8616 13.8656 20.8717 10.2471 24.0559L7.59252 26.3929C6.39925 25.7613 5.00587 25.7457 3.80608 26.3452L0.761364 27.8671C0.0811491 28.2076 -0.19415 29.0346 0.145407 29.7149L8.40667 46.2373C8.74723 46.9175 9.57423 47.1928 10.2544 46.8532L13.2992 45.3304C14.8 44.5805 15.6352 43.0494 15.581 41.4908H31.852C34.8691 41.4908 37.7523 40.0497 39.5624 37.6356L46.1724 28.8219C47.4547 27.1135 47.2518 24.6085 45.5298 23.1866ZM12.0672 42.8676L10.2544 43.7745L3.22409 29.7149L5.03791 28.808C5.71812 28.4683 6.5442 28.7428 6.88477 29.4239L12.6832 41.0208C13.0229 41.701 12.7475 42.527 12.0672 42.8676ZM43.9693 27.1695L37.3595 35.9833C36.0662 37.7081 34.0073 38.737 31.852 38.737H14.62L9.4604 28.4169L12.0663 26.1231C14.6594 23.8421 18.5698 23.8421 21.1629 26.1231C22.6903 27.4678 23.6403 27.7221 24.6298 27.7221H31.852C32.6111 27.7221 33.2288 28.3399 33.2288 29.099C33.2288 29.8581 32.611 30.4758 31.852 30.4758H24.8199C24.0598 30.4758 23.443 31.0927 23.443 31.8527C23.443 32.6127 24.0599 33.2296 24.8199 33.2296H32.7745C33.9173 33.2296 35.0189 32.7504 35.7972 31.9142L41.8591 25.4071C42.4136 24.8123 43.2635 24.8618 43.7849 25.3181C44.3301 25.7953 44.3889 26.6114 43.9693 27.1695Z" fill="#282828"/>
<path d="M28.9513 9.39675C29.894 8.40819 30.4751 7.07172 30.4751 5.60022C30.4751 2.56927 28.0261 0.000976562 24.9676 0.000976562C21.9321 0.000976562 19.3684 2.56468 19.3684 5.60022C19.3684 7.02665 19.9274 8.37322 20.9426 9.40777C18.4248 10.8195 16.6147 13.5292 16.6147 16.707V18.0839C16.6147 18.8438 17.2315 19.4607 17.9915 19.4607H31.852C32.612 19.4607 33.2289 18.8438 33.2289 18.0839V16.707C33.2288 13.5916 31.5152 10.8397 28.9513 9.39675ZM24.9676 2.75479C26.4602 2.75479 27.7213 4.05822 27.7213 5.60031C27.7213 7.11854 26.4859 8.35403 24.9676 8.35403C23.4255 8.35403 22.1221 7.09284 22.1221 5.60031C22.1221 4.08484 23.4522 2.75479 24.9676 2.75479ZM19.3684 16.707C19.3684 13.6715 21.9321 11.1078 24.9676 11.1078C28.0041 11.1078 30.4751 13.6191 30.4751 16.707H19.3684Z" fill="#282828"/>
</g>
<defs>
<clipPath id="clip0">
<rect width="47" height="47" fill="white"/>
</clipPath>
</defs>
</svg>
