<svg width="47" height="47" viewBox="0 0 47 47" fill="none" xmlns="http://www.w3.org/2000/svg">
<path d="M30.4118 0C21.265 0 13.8235 7.44148 13.8235 16.5882C13.8235 20.6651 15.3027 24.4023 17.7514 27.2936L14.5147 30.5304L12.4412 28.4568L1.26384 39.6342C0.448804 40.4491 0 41.5327 0 42.6852C0 45.0644 1.93566 47 4.31478 47C5.46721 47 6.55079 46.5512 7.36573 45.7363L18.5432 34.5588L16.4696 32.4853L19.7064 29.2486C22.5977 31.6973 26.335 33.1765 30.4118 33.1765C39.5585 33.1765 47 25.735 47 16.5882C47 7.44148 39.5585 0 30.4118 0ZM5.4109 43.7812C5.11812 44.074 4.72875 44.2353 4.31469 44.2353C3.46003 44.2353 2.76471 43.54 2.76471 42.6852C2.76471 42.2712 2.92598 41.882 3.21876 41.5891L12.4412 32.3667L14.6333 34.5588L5.4109 43.7812ZM30.4118 30.4118C22.7895 30.4118 16.5882 24.2105 16.5882 16.5882C16.5882 8.96594 22.7895 2.76471 30.4118 2.76471C38.0341 2.76471 44.2353 8.96594 44.2353 16.5882C44.2353 24.2105 38.0341 30.4118 30.4118 30.4118Z" fill="#282828"/>
<path d="M30.4118 5.5293C24.3139 5.5293 19.3529 10.4902 19.3529 16.5881C19.3529 22.6861 24.3139 27.6469 30.4118 27.6469C36.5096 27.6469 41.4706 22.6861 41.4706 16.5881C41.4706 10.4902 36.5096 5.5293 30.4118 5.5293ZM30.4118 24.8822C25.8384 24.8822 22.1176 21.1615 22.1176 16.5881C22.1176 12.0147 25.8384 8.294 30.4118 8.294C34.9851 8.294 38.7059 12.0147 38.7059 16.5881C38.7059 21.1615 34.9851 24.8822 30.4118 24.8822Z" fill="#282828"/>
<path d="M29.0294 17.3981L27.2421 15.6109L25.2873 17.5657L29.0294 21.3079L35.5362 14.801L33.5814 12.8462L29.0294 17.3981Z" fill="#282828"/>
</svg>
