<svg width="47" height="47" viewBox="0 0 47 47" fill="none" xmlns="http://www.w3.org/2000/svg">
<path d="M41.4296 38.9009C41.3252 32.5134 34.7944 30.6262 30.0257 29.2483C29.4693 29.0875 28.9342 28.9328 28.4328 28.7784V26.1434C29.4077 25.5323 30.262 24.7459 30.9511 23.8285H33.8559C35.2774 23.8285 36.434 22.672 36.434 21.2505V18.1298C36.6063 17.7281 36.702 17.286 36.702 16.8218V15.8512C36.702 15.3874 36.6063 14.9456 36.434 14.5442V12.9342C36.434 5.80232 30.6318 0 23.5 0C16.3696 0 10.5686 5.80232 10.5686 12.9343V14.4982C10.5686 14.5105 10.57 14.5223 10.5704 14.5345C10.3955 14.9386 10.298 15.3837 10.298 15.8513V16.8218C10.298 18.6566 11.7895 20.1493 13.6228 20.1493H14.3814C14.9069 22.669 16.4537 24.8179 18.5672 26.1429V28.7784C18.0657 28.9328 17.5307 29.0874 16.9743 29.2483C12.2056 30.6262 5.67481 32.5135 5.57034 38.9009C5.57025 38.906 5.57025 38.9109 5.57025 38.916V46.082C5.57025 46.589 5.98132 47 6.48822 47H9.20983C9.71673 47 10.1278 46.589 10.1278 46.082C10.1278 45.575 9.71673 45.1641 9.20983 45.1641H7.4061V38.9236C7.44475 36.695 8.46847 35.0244 10.6276 33.6663C12.0524 32.7701 13.7943 32.1315 15.5113 31.5973L17.7292 35.9186C17.9764 36.4003 18.6093 36.5639 19.0591 36.2605L20.0481 35.5934L20.8971 38.7845L19.4424 45.164H17.4529C16.946 45.164 16.535 45.5749 16.535 46.0819C16.535 46.5889 16.946 46.9999 17.4529 46.9999H40.5118C41.0187 46.9999 41.4297 46.5889 41.4297 46.0819V38.9159C41.4297 38.9109 41.4297 38.906 41.4296 38.9009ZM29.516 31.0119C29.5765 31.0294 29.638 31.0473 29.699 31.0649L28.1121 34.1598L25.1423 32.1572L27.6586 30.46C28.2432 30.6439 28.8648 30.8238 29.516 31.0119ZM23.5006 33.2646L25.3414 34.5058L24.4518 37.8497H22.5482L21.6589 34.5069L23.5006 33.2646ZM23.5005 31.0501L20.403 28.9615V27.029C21.3725 27.3718 22.4145 27.5599 23.4999 27.5599C24.5852 27.5599 25.6274 27.3725 26.5968 27.0296V28.9615L23.5005 31.0501ZM30.9786 13.1022C30.966 13.0942 30.9536 13.0862 30.941 13.0783C29.0574 11.8792 27.4306 10.8436 24.8815 11.573C24.8579 11.5798 24.8344 11.5875 24.8113 11.5961C24.2709 11.7991 23.7795 11.9883 23.3042 12.1712C20.4013 13.2887 18.8163 13.8989 16.0213 13.8203V13.0852C16.0213 8.96134 19.3762 5.60633 23.4999 5.60633C27.6236 5.60633 30.9785 8.96134 30.9785 13.0852V13.1022H30.9786ZM34.598 21.2505C34.598 21.6597 34.2652 21.9926 33.8559 21.9926H32.0266C32.2849 21.407 32.485 20.7902 32.6187 20.1492H33.3773C33.8083 20.1492 34.2198 20.0659 34.5981 19.9158V21.2505H34.598ZM34.8661 16.8218C34.8661 17.6442 34.1982 18.3133 33.3772 18.3133H32.8137C32.8139 18.2905 32.8147 14.3622 32.8147 14.3622H33.3773C34.1982 14.3622 34.8661 15.0301 34.8661 15.8512V16.8218H34.8661ZM13.6228 18.3134C12.8019 18.3134 12.1339 17.6443 12.1339 16.8218V15.8513C12.1339 15.0302 12.8018 14.3623 13.6228 14.3623H14.1854C14.1854 14.3623 14.1862 18.2906 14.1863 18.3134H13.6228ZM14.2026 12.5263H13.6227C13.1936 12.5263 12.7837 12.6089 12.4068 12.7576C12.5016 6.71919 17.441 1.83594 23.5 1.83594C29.5607 1.83594 34.5015 6.71974 34.5957 12.7586C34.2182 12.6093 33.8073 12.5263 33.3772 12.5263H32.7973C32.5072 7.64928 28.4483 3.77039 23.5 3.77039C18.5516 3.77039 14.4927 7.64937 14.2026 12.5263ZM16.0765 19.1382C16.0764 19.1372 16.0763 19.1363 16.0762 19.1354C16.0414 18.8432 16.0214 18.5465 16.0214 18.2452V15.6562C19.162 15.7328 21.0355 15.012 23.9638 13.8847C24.4249 13.7072 24.9016 13.5237 25.4209 13.3284C27.155 12.8444 28.1527 13.4797 29.9551 14.6271C30.2678 14.8262 30.6109 15.0444 30.9786 15.2685V18.2452C30.9786 19.6103 30.6092 20.8899 29.9678 21.9927H23.5C22.9931 21.9927 22.582 22.4037 22.582 22.9107C22.582 23.4177 22.9931 23.8286 23.5 23.8286H28.4684C27.1464 25.0065 25.4057 25.7241 23.5 25.7241C19.6786 25.724 16.5195 22.8423 16.0765 19.1382ZM18.8901 34.1599L17.3015 31.0647C17.3623 31.0472 17.4236 31.0294 17.484 31.0119C18.1352 30.8238 18.7568 30.6438 19.3416 30.4599L21.8588 32.1574L18.8901 34.1599ZM21.3255 45.1641L22.5748 39.6856H24.4255L25.6767 45.1641H21.3255ZM39.5938 45.1641H27.5599L26.1029 38.7844L26.9523 35.5921L27.9436 36.2605C28.3936 36.5639 29.0266 36.4003 29.2737 35.9183L31.4891 31.5975C33.206 32.1317 34.9478 32.7701 36.3724 33.6663C38.5315 35.0243 39.5553 36.695 39.594 38.9236V45.1641H39.5938Z" fill="#282828"/>
<path d="M35.9687 40.5742H31.3424C30.8355 40.5742 30.4245 40.9852 30.4245 41.4922C30.4245 41.9992 30.8355 42.4102 31.3424 42.4102H35.9687C36.4756 42.4102 36.8867 41.9992 36.8867 41.4922C36.8867 40.9852 36.4757 40.5742 35.9687 40.5742Z" fill="#282828"/>
<path d="M13.3315 45.1641C12.8245 45.1641 12.4135 45.575 12.4135 46.082C12.4135 46.589 12.8245 47 13.3315 47H13.334C13.8409 47 14.2506 46.589 14.2506 46.082C14.2506 45.575 13.8384 45.1641 13.3315 45.1641Z" fill="#282828"/>
</svg>
