<svg width="62" height="62" viewBox="0 0 62 62" fill="none" xmlns="http://www.w3.org/2000/svg">
<path d="M44.181 27.2498C43.0245 29.4724 40.68 31 37.9755 31C35.271 31 32.9276 29.4724 31.77 27.2498H5V51H44.5018C43.202 49.4773 42.4143 47.5166 42.4143 45.3752C42.4143 41.1948 45.4072 37.694 49.3898 36.8326V27.2498H44.181ZM27.1949 46.6253C22.9925 46.6253 19.5847 43.2666 19.5847 39.1249C19.5847 34.9832 22.9916 31.6245 27.1949 31.6245C31.3983 31.6245 34.8051 34.9822 34.8051 39.1249C34.8051 43.2676 31.3973 46.6253 27.1949 46.6253Z" fill="white"/>
<path d="M51.2909 50.9961C54.4429 50.9961 56.998 48.4778 56.998 45.3713C56.998 42.2648 54.4429 39.7465 51.2909 39.7465C48.1389 39.7465 45.5837 42.2648 45.5837 45.3713C45.5837 48.4778 48.1389 50.9961 51.2909 50.9961Z" fill="white"/>
<path d="M37.9755 27.8753C40.077 27.8753 41.7806 26.1962 41.7806 24.1251C41.7806 22.0539 40.077 20.3749 37.9755 20.3749C35.874 20.3749 34.1704 22.0539 34.1704 24.1251C34.1704 26.1962 35.874 27.8753 37.9755 27.8753Z" fill="white"/>
<path d="M13.3155 11L10.9112 24.1252H31C31 20.3344 34.1292 17.2503 37.9755 17.2503C41.8218 17.2503 44.951 20.3344 44.951 24.1252H52.5602V36.7244C52.9379 36.7785 53.3087 36.854 53.6697 36.9526L57 18.772L13.3155 11Z" fill="white"/>
</svg>
