<svg width="62" height="62" viewBox="0 0 62 62" fill="none" xmlns="http://www.w3.org/2000/svg">
<path d="M50.9601 11.9456L31.4195 6.06182C31.1462 5.97939 30.8544 5.97939 30.5808 6.06182L11.0401 11.9456C10.4228 12.1314 10 12.7018 10 13.3486V34.9225C10 37.7285 11.1318 40.601 13.3639 43.4601C15.0687 45.6437 17.4272 47.8363 20.374 49.9772C25.3242 53.5737 30.1987 55.78 30.4038 55.8721C30.5935 55.9573 30.7967 56 31.0001 56C31.2034 56 31.4067 55.9574 31.5964 55.8721C31.8015 55.78 36.6759 53.5737 41.6261 49.9772C44.5728 47.8363 46.9313 45.6437 48.6361 43.4601C50.8682 40.6011 52 37.7286 52 34.9225V13.3486C52.0001 12.7018 51.5774 12.1314 50.9601 11.9456ZM49.0812 34.9225C49.0812 39.8885 44.1167 44.5449 39.9521 47.5769C36.2184 50.2949 32.4318 52.2236 31.0002 52.9165C29.5686 52.2236 25.7819 50.2949 22.0482 47.5769C17.8835 44.5449 12.9189 39.8885 12.9189 34.9225V14.4385L31.0001 8.99414L49.0812 14.4385V34.9225Z" fill="white"/>
<path d="M19 27.1176L31.1188 41L43 27.1176M19 27.1176L23.7525 21H38.2475L43 27.1176M19 27.1176H43M31.1188 40.5294L36.1089 27.1176L34.4455 21H27.7921L25.8911 27.1176L31.1188 40.5294Z" stroke="white"/>
</svg>
