<svg width="62" height="62" viewBox="0 0 62 62" fill="none" xmlns="http://www.w3.org/2000/svg">
<path d="M47.9887 29.5492L40.3099 21.9072V8.74609C40.3099 6.1291 38.1705 4 35.5409 4H14.769C12.1394 4 10 6.1291 10 8.74609V53.2539C10 55.8709 12.1394 58 14.769 58H47.1985C47.9558 58 48.6079 57.4684 48.757 56.7295L51.7195 42.0539C52.6449 37.4696 51.2502 32.795 47.9887 29.5492ZM14.769 7.16406H35.5409C36.4174 7.16406 37.1305 7.87376 37.1305 8.74609V29.1521C35.1807 27.2382 32.0483 27.2488 30.1118 29.1759C28.1712 31.104 28.1619 34.234 30.0989 36.1747L36.188 42.4747C34.8679 43.4551 33.1578 45.1664 31.9297 47.9805H13.1794V8.74609C13.1794 7.87376 13.8924 7.16406 14.769 7.16406ZM13.1794 53.2539V51.1445H30.9021C30.6501 52.2539 30.4718 53.4805 30.3933 54.8359H14.769C13.8924 54.8359 13.1794 54.1262 13.1794 53.2539ZM48.6024 41.4306L45.8965 54.8359C43.3401 54.8359 36.2046 54.8359 33.58 54.8359C33.8093 51.4756 34.7812 48.6595 36.4251 46.6268C37.788 44.9415 39.1757 44.3373 39.2863 44.2911C40.3264 43.9206 40.6982 42.5769 39.866 41.7158C32.3495 33.939 32.3726 33.9626 32.3591 33.9493C31.6609 33.2545 31.6499 32.1189 32.3591 31.4142C33.0599 30.7168 34.1991 30.7149 34.9022 31.409C38.2629 34.83 36.6287 33.1884 42.5099 39.0411C43.1306 39.659 44.1372 39.6591 44.758 39.0411C45.3789 38.4233 45.3789 37.4217 44.758 36.8038L40.3099 32.3772V26.3819L45.7406 31.7865C48.2478 34.2817 49.3178 37.887 48.6024 41.4306Z" fill="#282828"/>
</svg>
