<svg width="62" height="62" viewBox="0 0 62 62" fill="none" xmlns="http://www.w3.org/2000/svg">
<path d="M50.2953 29.2054C50.1479 27.4035 49.7447 25.6506 49.0907 23.9706L53.5967 20.4215L46.2745 11.4303L41.7959 14.9573C40.2497 13.9329 38.5775 13.142 36.8038 12.5967V7H25.0898V12.6332C23.2352 13.2169 21.4946 14.0703 19.8918 15.181L15.3663 11.7222L8.17783 20.818L12.7834 24.3373C12.1685 26.0211 11.8023 27.772 11.6901 29.5673L6 30.9064L8.72549 42.1094L12.7287 41.1676C14.7007 39.2283 16.481 37.4776 18.8219 35.1755C15.7105 26.871 21.9655 17.9937 31.0083 17.9937C38.1782 17.9937 43.9912 23.7104 43.9912 30.7614C43.9912 39.4702 35.3017 45.6193 26.923 42.883C26.2538 43.5412 19.3201 50.36 18.243 51.4192L25.9674 55L28.5366 49.6395C30.3113 49.8641 32.082 49.8459 33.8226 49.5963L36.4543 54.8857L46.9764 49.8228L44.3515 44.5468C45.6518 43.3305 46.7665 41.9529 47.6772 40.4333L53.4415 41.7025L56 30.461L50.2953 29.2054Z" fill="#282828"/>
<path d="M39.3291 27.4526L38.5071 25.4194L33.5609 30.2827L31.3391 28.0977L36.2853 23.2345L34.2179 22.4252C26.1254 19.2597 18.6439 27.9664 22.8905 35.2467C11.9662 45.99 21.3022 36.8097 8.17781 49.7165L12.0054 53.4806C19.6295 45.9829 12.2239 53.2667 26.8548 38.8783C34.3234 42.4403 42.4099 35.064 39.3291 27.4526Z" fill="#282828"/>
</svg>
