<svg width="96" height="48" viewBox="0 0 96 48" fill="none" xmlns="http://www.w3.org/2000/svg">
<path d="M0 19.3488V19.0616L0.606864 18.8318C0.992172 18.6978 1.24262 18.5159 1.35822 18.286C1.47381 18.0563 1.53161 17.7594 1.53161 17.3957V2.3735C1.53161 1.99053 1.47381 1.68415 1.35822 1.45437C1.24262 1.22458 0.992172 1.04267 0.606864 0.908627L0 0.678843V0.391613H7.19568V0.678843L6.55991 0.93735C6.2324 1.05224 6.01085 1.22458 5.89525 1.45437C5.77966 1.68415 5.72187 2.00011 5.72187 2.40222V17.4244C5.72187 17.8073 5.77966 18.1042 5.89525 18.3148C6.03011 18.5255 6.28057 18.6978 6.64661 18.8318L7.19568 19.0616V19.3488H0ZM10.6634 19.3488V19.0616L11.0392 18.9467C11.4245 18.8318 11.6267 18.6403 11.6461 18.3722C11.6653 18.1042 11.5497 17.7977 11.2992 17.4531L5.72187 9.61168L13.0621 2.20117C13.3318 1.93309 13.4763 1.67457 13.4955 1.42564C13.534 1.17671 13.351 0.985218 12.9465 0.85118L12.4552 0.678843V0.391613H16.6743V0.678843L15.923 0.908627C15.4992 1.04267 15.162 1.20543 14.9115 1.39692C14.661 1.58841 14.372 1.84691 14.0446 2.17245L8.84289 7.42876L15.6629 17.2808C15.9519 17.702 16.2216 18.0467 16.472 18.3148C16.7417 18.5829 17.1175 18.7935 17.5991 18.9467L18.0037 19.0616V19.3488H10.6634Z" fill="url(#paint0_linear)"/>
<path d="M18.9081 19.3488V19.0616L19.515 18.8605C19.9003 18.7265 20.1507 18.5542 20.2664 18.3435C20.3819 18.1137 20.4397 17.7977 20.4397 17.3957V2.3735C20.4397 1.99053 20.3819 1.69373 20.2664 1.48309C20.17 1.2533 19.9388 1.07139 19.5727 0.93735L18.9081 0.678843V0.391613H27.173C29.4464 0.391613 31.1899 0.822458 32.4036 1.68415C33.6173 2.52669 34.2242 3.70434 34.2242 5.21708C34.2242 6.05963 33.9063 6.90218 33.2706 7.74472C32.6348 8.58726 31.633 9.23832 30.2652 9.69789L34.282 17.6254C34.4554 17.951 34.6481 18.219 34.86 18.4297C35.0911 18.6212 35.3898 18.7935 35.7558 18.9467L36.1315 19.0904V19.3488H30.9587L26.6817 10.3011H24.7167V17.3957C24.7167 17.7594 24.7745 18.0563 24.8901 18.286C25.0057 18.5159 25.2465 18.6882 25.6125 18.8031L26.3061 19.0616V19.3488H18.9081ZM24.7167 9.7266H26.1037C27.4909 9.7266 28.4927 9.36278 29.1092 8.63513C29.7257 7.88833 30.0339 6.78728 30.0339 5.33197C30.0339 3.85753 29.7449 2.76605 29.167 2.05755C28.589 1.3299 27.6162 0.966074 26.2482 0.966074H24.7167V9.7266Z" fill="url(#paint1_linear)"/>
<path d="M9.21856 42.0546C7.75438 42.0546 6.45395 41.7962 5.31729 41.2791C4.19989 40.7621 3.32331 39.9482 2.68754 38.8377C2.07104 37.7079 1.76279 36.2238 1.76279 34.3855V24.4761C1.76279 23.7484 1.38712 23.2698 0.635763 23.0399L0 22.8676V22.5803H8.00483V22.8676L7.16678 23.0974C6.45395 23.2698 6.09754 23.7484 6.09754 24.5336V35.1323C6.09754 36.9132 6.47322 38.2345 7.22458 39.0961C7.97593 39.9386 9.0548 40.3599 10.4612 40.3599C11.9254 40.3599 13.0813 39.9099 13.929 39.01C14.7959 38.11 15.2294 36.8366 15.2294 35.1898V24.6485C15.2294 24.2654 15.162 23.9304 15.0271 23.6431C14.9115 23.3368 14.661 23.1357 14.2757 23.0399L13.5533 22.8676V22.5803H17.5991V22.8676L16.8188 23.0687C16.4528 23.1452 16.2119 23.3272 16.0964 23.6144C15.9808 23.9017 15.923 24.2367 15.923 24.6197V35.1323C15.923 36.5302 15.6437 37.7558 15.0849 38.809C14.5262 39.8429 13.7459 40.6472 12.7442 41.2217C11.7424 41.777 10.5671 42.0546 9.21856 42.0546Z" fill="url(#paint2_linear)"/>
<path d="M18.8335 41.5376V41.2504L19.7872 40.9631C20.1339 40.8674 20.3844 40.6855 20.5386 40.4174C20.6927 40.1302 20.7697 39.7951 20.7697 39.4121V25.5963C20.5578 25.1368 20.3844 24.792 20.2496 24.5623C20.1339 24.3325 19.9991 24.141 19.845 23.9878C19.6909 23.8154 19.479 23.6048 19.2093 23.3559L18.7179 22.8676V22.5803H23.833L33.4272 35.5919V24.7633C33.4272 24.3803 33.3597 24.0357 33.2249 23.7293C33.1093 23.4229 32.8589 23.2218 32.4735 23.1261L31.5199 22.8676V22.5803H35.6523V22.8676L34.8722 23.1261C34.5253 23.241 34.3134 23.4421 34.2364 23.7293C34.1593 24.0166 34.1208 24.3516 34.1208 24.7346V41.6237H32.5025L21.4633 26.5442V39.4121C21.4633 39.7951 21.5211 40.1206 21.6367 40.3887C21.7523 40.6568 21.9931 40.8483 22.3591 40.9631L23.2261 41.2504V41.5376H18.8335Z" fill="url(#paint3_linear)"/>
<path d="M54.3131 42.0543C53.0801 42.0543 51.9146 41.8341 50.8164 41.3937L49.5449 43.1745C50.7972 43.4809 52.2228 43.8064 53.8218 44.1511C55.4401 44.5149 57.0295 44.8596 58.5901 45.1851C59.3414 45.3384 59.9001 45.4054 60.2662 45.3862C60.6515 45.3862 60.9983 45.2904 61.3065 45.0989L62.0867 44.6106L62.318 44.9266L60.8441 46.5064C60.4202 46.9468 60.0061 47.3011 59.6015 47.5691C59.1969 47.8564 58.7442 48 58.2433 48C57.8387 48 57.2608 47.933 56.5094 47.799C55.758 47.684 54.92 47.5308 53.9952 47.3394C53.0705 47.1671 52.1457 46.9755 51.221 46.7649C50.2963 46.5735 49.4582 46.401 48.7069 46.2479C48.3986 46.1713 48.1192 46.1522 47.8688 46.1904C47.6184 46.2479 47.3775 46.401 47.1464 46.65L46.7996 46.9947L46.4527 46.7362L50.094 41.049C48.6876 40.3405 47.522 39.2394 46.5972 37.7459C45.6726 36.2331 45.2102 34.3374 45.2102 32.0587C45.2102 30.4119 45.4606 28.9662 45.9615 27.7215C46.4624 26.4768 47.1464 25.4428 48.0133 24.6194C48.8803 23.7769 49.8531 23.145 50.932 22.7237C52.0302 22.2833 53.1572 22.0631 54.3131 22.0631C55.4883 22.0631 56.6153 22.2737 57.6943 22.695C58.7923 23.0971 59.7653 23.7194 60.6129 24.562C61.4799 25.3853 62.1638 26.429 62.6647 27.6928C63.1657 28.9374 63.4161 30.3928 63.4161 32.0587C63.4161 33.6863 63.1657 35.1321 62.6647 36.3959C62.1638 37.6406 61.4799 38.6841 60.6129 39.5267C59.7653 40.3501 58.7923 40.982 57.6943 41.4224C56.6153 41.8437 55.4883 42.0543 54.3131 42.0543ZM54.3131 41.4511C55.3727 41.4511 56.23 41.1735 56.885 40.6182C57.5401 40.0437 58.0121 39.0767 58.301 37.7172C58.6094 36.3385 58.7634 34.4522 58.7634 32.0587C58.7634 29.6459 58.6094 27.7598 58.301 26.4003C58.0121 25.0216 57.5401 24.0545 56.885 23.4992C56.23 22.9248 55.3727 22.6376 54.3131 22.6376C53.2728 22.6376 52.4251 22.9248 51.7701 23.4992C51.1151 24.0545 50.6334 25.0216 50.3252 26.4003C50.0362 27.7598 49.8917 29.6459 49.8917 32.0587C49.8917 34.4522 50.0362 36.3385 50.3252 37.7172C50.6334 39.0767 51.1151 40.0437 51.7701 40.6182C52.4251 41.1735 53.2728 41.4511 54.3131 41.4511Z" fill="url(#paint4_linear)"/>
<path d="M81.2339 41.5376V41.2504L81.8985 40.9918C82.226 40.8578 82.4476 40.6855 82.5632 40.4748C82.6981 40.2451 82.7655 39.9386 82.7655 39.5557V24.5623C82.7655 24.1793 82.7076 23.8825 82.5921 23.6718C82.4957 23.4421 82.2646 23.2602 81.8985 23.1261L81.2339 22.8676V22.5803H95.0763L95.2496 27.0038H94.9608L93.7179 24.3037C93.5446 23.9591 93.3615 23.6814 93.1689 23.4708C92.9762 23.2602 92.6872 23.1548 92.3019 23.1548H87.1002V31.4558H90.1924C90.5777 31.4558 90.8667 31.3601 91.0593 31.1686C91.2712 30.9579 91.4542 30.6803 91.6084 30.3356L92.1863 29.1866H92.4753V34.3568H92.1863L91.6084 33.1505C91.435 32.8058 91.252 32.5377 91.0593 32.3463C90.8667 32.1356 90.5777 32.0303 90.1924 32.0303H87.1002V40.9631H92.9377C93.323 40.9631 93.6216 40.8674 93.8336 40.6759C94.0455 40.4652 94.2189 40.1781 94.3537 39.8142L95.5384 37.1143H95.8272L95.6539 41.5376H81.2339Z" fill="url(#paint5_linear)"/>
<path d="M72.127 42.0546C70.6628 42.0546 69.3624 41.7962 68.2257 41.2791C67.1083 40.7621 66.2318 39.9482 65.596 38.8377C64.9795 37.7079 64.6713 36.2238 64.6713 34.3855V24.4761C64.6713 23.7484 64.2955 23.2698 63.5442 23.0399L62.9085 22.8676V22.5803H70.9133V22.8676L70.0752 23.0974C69.3624 23.2698 69.006 23.7484 69.006 24.5336V35.1323C69.006 36.9132 69.3817 38.2345 70.133 39.0961C70.8844 39.9386 71.9633 40.3599 73.3697 40.3599C74.8338 40.3599 75.9898 39.9099 76.8375 39.01C77.7044 38.11 78.1379 36.8366 78.1379 35.1898V24.6485C78.1379 24.2654 78.0704 23.9304 77.9356 23.6431C77.82 23.3368 77.5695 23.1357 77.1842 23.0399L76.4617 22.8676V22.5803H80.5075V22.8676L79.7273 23.0687C79.3612 23.1452 79.1204 23.3272 79.0048 23.6144C78.8893 23.9017 78.8314 24.2367 78.8314 24.6197V35.1323C78.8314 36.5302 78.5521 37.7558 77.9934 38.809C77.4347 39.8429 76.6544 40.6472 75.6526 41.2217C74.6508 41.777 73.4756 42.0546 72.127 42.0546Z" fill="url(#paint6_linear)"/>
<path d="M77.6516 19.3489V19.0616L78.3741 18.8032C78.7594 18.65 79.058 18.468 79.2699 18.2574C79.4818 18.0277 79.6553 17.7117 79.7901 17.3095L85.7431 0.334234H88.1995L94.0659 17.4245C94.22 17.8457 94.3934 18.1713 94.586 18.401C94.779 18.6117 95.0773 18.7936 95.4816 18.9468L95.8291 19.0616V19.3489H88.4885V19.0616L88.9219 18.918C89.3265 18.7649 89.5673 18.5543 89.6444 18.2861C89.7407 17.999 89.7311 17.6638 89.6155 17.2808L88.2573 13.1447H81.8419L80.4548 17.1947C80.3199 17.616 80.2717 17.951 80.3103 18.2C80.368 18.4489 80.5993 18.65 81.0038 18.8032L81.6395 19.0616V19.3489H77.6516ZM82.0442 12.5703H88.0839L85.1652 3.63738L82.0442 12.5703Z" fill="url(#paint7_linear)"/>
<path d="M65.8937 19.3488V19.0616L67.0786 18.7744C67.8684 18.6021 68.2634 18.1233 68.2634 17.3382V0.966074H65.8071C65.0942 0.966074 64.5837 1.15756 64.2754 1.54054C63.9672 1.90436 63.6397 2.41181 63.2929 3.06285L62.2525 5.07347H61.9635L62.108 0.391613H78.7824L78.898 5.07347H78.609L77.5687 3.06285C77.2411 2.41181 76.9233 1.90436 76.615 1.54054C76.3068 1.15756 75.7962 0.966074 75.0834 0.966074H72.6271V17.3382C72.6271 18.1233 73.0219 18.6021 73.8119 18.7744L74.9967 19.0616V19.3488H65.8937Z" fill="url(#paint8_linear)"/>
<path d="M53.041 20.3687C51.9814 20.3687 50.9025 20.2346 49.8044 19.9666C48.7062 19.7177 47.7911 19.3825 47.059 18.9612L47.2036 15.0549H47.4925L48.3883 16.9219C48.6581 17.4581 48.9471 17.9368 49.2553 18.358C49.5636 18.7602 49.9874 19.0762 50.5269 19.3059C50.9122 19.4974 51.2782 19.6314 51.625 19.7081C51.991 19.7655 52.3956 19.7942 52.8387 19.7942C54.0139 19.7942 54.9386 19.4782 55.6129 18.8463C56.3065 18.2144 56.6533 17.4007 56.6533 16.4049C56.6533 15.4666 56.4221 14.7389 55.9597 14.2219C55.4973 13.6858 54.7556 13.1688 53.7345 12.6709L52.5498 12.1539C50.8929 11.4263 49.5924 10.5932 48.6485 9.65498C47.7237 8.69755 47.2613 7.43373 47.2613 5.86353C47.2613 4.73376 47.5503 3.75718 48.1283 2.93378C48.7255 2.11039 49.5443 1.47848 50.5846 1.03807C51.6442 0.597642 52.8772 0.377433 54.2837 0.377433C55.3047 0.377433 56.2679 0.511473 57.1735 0.779555C58.0982 1.04764 58.8977 1.41146 59.572 1.87104L59.3986 5.3178H59.1096L57.9248 3.16357C57.5973 2.49336 57.2698 2.02422 56.9422 1.75614C56.6148 1.46891 56.239 1.26785 55.8152 1.15296C55.5647 1.07636 55.3336 1.02849 55.1217 1.00934C54.9098 0.971045 54.6401 0.951892 54.3125 0.951892C53.33 0.951892 52.5016 1.23912 51.8273 1.81359C51.153 2.3689 50.8159 3.12528 50.8159 4.08271C50.8159 5.05929 51.0759 5.84439 51.5961 6.438C52.1163 7.01246 52.8772 7.52947 53.879 7.98904L55.2083 8.56351C57.0578 9.36775 58.3871 10.2295 59.1964 11.1486C60.0055 12.0486 60.41 13.2167 60.41 14.6528C60.41 16.3379 59.7647 17.7166 58.4739 18.7889C57.2024 19.8421 55.3914 20.3687 53.041 20.3687Z" fill="url(#paint9_linear)"/>
<path d="M41.9013 40.829C41.9013 40.81 41.9156 40.7939 41.944 40.781L42.2448 40.6448C42.4217 40.7119 42.5559 40.7955 42.6474 40.8953C42.7391 40.9945 42.7848 41.1127 42.7848 41.25C42.7848 41.3743 42.7415 41.486 42.6546 41.5852C42.5662 41.6843 42.4437 41.7686 42.2874 41.838C42.1311 41.9074 41.9456 41.9608 41.7308 41.9981C41.516 42.0356 41.2816 42.0542 41.0273 42.0542C40.8568 42.0542 40.6949 42.0455 40.5418 42.0279C40.387 42.0096 40.2449 41.9832 40.1154 41.949C39.9859 41.9146 39.8691 41.8735 39.7648 41.8254C39.6606 41.7766 39.5722 41.7217 39.4996 41.6607C39.4253 41.5996 39.3693 41.5334 39.3314 41.4616C39.2919 41.3892 39.2721 41.3122 39.2721 41.2306C39.2721 41.1695 39.2832 41.1119 39.3053 41.0578C39.3274 41.0029 39.3582 40.9518 39.3977 40.9045C39.4372 40.8572 39.4854 40.8137 39.5422 40.7741C39.5975 40.7336 39.6583 40.6974 39.7246 40.6654L40.0514 40.781C40.072 40.7879 40.0902 40.7966 40.1059 40.8072C40.1217 40.818 40.1296 40.8325 40.1296 40.8507C40.1296 40.8691 40.1162 40.8877 40.0893 40.9068C40.0625 40.9251 40.0325 40.9479 39.9994 40.9754C39.9661 41.0022 39.9362 41.036 39.9093 41.0773C39.8825 41.1176 39.8691 41.1691 39.8691 41.2317C39.8691 41.3011 39.8951 41.3648 39.9472 41.4228C39.9994 41.4807 40.0751 41.5306 40.1746 41.5726C40.2725 41.6137 40.3933 41.6458 40.537 41.6687C40.6807 41.6916 40.8441 41.703 41.0273 41.703C41.2121 41.703 41.3771 41.6908 41.5224 41.6664C41.666 41.6412 41.7876 41.6073 41.8871 41.5646C41.9867 41.5211 42.0624 41.4708 42.1145 41.4135C42.1651 41.3556 42.1903 41.2938 42.1903 41.2282C42.1903 41.1894 42.1864 41.1543 42.1785 41.123C42.1706 41.091 42.1572 41.0616 42.1382 41.0349C42.1192 41.0074 42.0948 40.9819 42.0648 40.9583C42.0348 40.9338 41.9969 40.9095 41.9511 40.8851C41.9369 40.8767 41.925 40.8679 41.9156 40.8587C41.9061 40.8496 41.9013 40.8397 41.9013 40.829Z" fill="url(#paint10_linear)"/>
<path d="M40.9373 39.9317C40.9373 39.876 40.9231 39.828 40.8947 39.7876C40.8647 39.7471 40.8244 39.714 40.7739 39.688C40.7218 39.6621 40.661 39.643 40.5915 39.6309C40.522 39.6186 40.4462 39.6125 40.3641 39.6125C40.2015 39.6125 40.0751 39.6389 39.9852 39.6915C39.8951 39.7433 39.8501 39.8227 39.8501 39.9294V40.1079H40.9373V39.9317ZM42.747 39.1275V39.4375C42.747 39.4954 42.7011 39.5374 42.6096 39.5634L41.5555 39.8791C41.5145 39.892 41.4845 39.9065 41.4655 39.9225C41.4466 39.9378 41.4371 39.9607 41.4371 39.9912V40.1079H42.747V40.4511H39.3101V39.9294C39.3101 39.8135 39.3353 39.7144 39.3859 39.632C39.4348 39.5496 39.5035 39.4822 39.5919 39.4295C39.6804 39.3768 39.7861 39.3384 39.9093 39.314C40.0309 39.2895 40.1652 39.2774 40.3121 39.2774C40.4257 39.2774 40.5338 39.2854 40.6365 39.3014C40.7376 39.3166 40.8299 39.3391 40.9136 39.3688C40.9973 39.3986 41.0716 39.4352 41.1363 39.4787C41.201 39.5222 41.2531 39.5718 41.2926 39.6274C41.3179 39.6053 41.3486 39.5847 41.385 39.5657C41.4198 39.5465 41.4616 39.5294 41.5106 39.5142L42.747 39.1275Z" fill="url(#paint11_linear)"/>
<path d="M39.8667 38.6198H40.7502V38.0661H41.2879V38.6198H42.1904V37.9082H42.747V38.9653H39.3101V37.9082H39.8667V38.6198Z" fill="url(#paint12_linear)"/>
<path d="M41.4418 36.7752L40.3902 36.9547C40.3349 36.9655 40.2702 36.9768 40.196 36.9891C40.1217 37.0005 40.0412 37.0116 39.9543 37.0222C40.0428 37.0329 40.1248 37.0443 40.2007 37.0566C40.2749 37.0681 40.3396 37.0791 40.3949 37.0897L41.4418 37.2682V36.7752ZM42.747 36.1986V36.4651C42.747 36.4949 42.7328 36.5192 42.7044 36.5384C42.6743 36.5566 42.6365 36.5704 42.5906 36.5795L41.9345 36.6917V37.3529L42.5906 37.4649C42.6301 37.4726 42.6665 37.4859 42.6996 37.505C42.7312 37.5241 42.747 37.5481 42.747 37.577V37.8459L39.3101 37.1973V36.846L42.747 36.1986Z" fill="url(#paint13_linear)"/>
<path d="M39.8833 35.0331V35.5182H42.747V35.8626H39.8833V36.3476H39.3101V35.0331H39.8833Z" fill="url(#paint14_linear)"/>
<path d="M41.0273 33.2725C41.2784 33.2725 41.5113 33.2931 41.7261 33.3343C41.9408 33.3747 42.1263 33.4323 42.2827 33.507C42.439 33.581 42.5622 33.6702 42.6522 33.7747C42.7406 33.8793 42.7848 33.9951 42.7848 34.1225C42.7848 34.2499 42.7406 34.3658 42.6522 34.4703C42.5622 34.5748 42.439 34.6644 42.2827 34.7391C42.1263 34.8139 41.9408 34.8718 41.7261 34.913C41.5113 34.9534 41.2784 34.9737 41.0273 34.9737C40.7762 34.9737 40.5441 34.9534 40.331 34.913C40.1162 34.8718 39.9306 34.8139 39.7743 34.7391C39.6179 34.6644 39.4956 34.5748 39.4072 34.4703C39.3172 34.3658 39.2721 34.2499 39.2721 34.1225C39.2721 33.9951 39.3172 33.8793 39.4072 33.7747C39.4956 33.6702 39.6188 33.581 39.7766 33.507C39.933 33.4323 40.1186 33.3747 40.3333 33.3343C40.5465 33.2931 40.7778 33.2725 41.0273 33.2725ZM41.0273 33.6237C40.8473 33.6237 40.6863 33.6351 40.5441 33.6581C40.4004 33.681 40.2788 33.7141 40.1794 33.7576C40.0782 33.8003 40.0017 33.8525 39.9496 33.9143C39.8959 33.9754 39.8691 34.0447 39.8691 34.1225C39.8691 34.2003 39.8959 34.27 39.9496 34.3319C40.0017 34.3936 40.0782 34.4462 40.1794 34.4897C40.2788 34.5324 40.4004 34.5652 40.5441 34.5881C40.6863 34.611 40.8473 34.6224 41.0273 34.6224C41.209 34.6224 41.3715 34.611 41.5153 34.5881C41.6574 34.5652 41.7782 34.5324 41.8777 34.4897C41.9771 34.4462 42.0537 34.3936 42.1074 34.3319C42.1596 34.27 42.1856 34.2003 42.1856 34.1225C42.1856 34.0447 42.1596 33.9754 42.1074 33.9143C42.0537 33.8525 41.9771 33.8003 41.8777 33.7576C41.7782 33.7141 41.6574 33.681 41.5153 33.6581C41.3715 33.6351 41.209 33.6237 41.0273 33.6237Z" fill="url(#paint15_linear)"/>
<path d="M40.9373 32.5025C40.9373 32.4468 40.9231 32.3988 40.8947 32.3584C40.8647 32.3179 40.8244 32.2848 40.7739 32.2588C40.7218 32.2329 40.661 32.2138 40.5915 32.2016C40.522 32.1894 40.4462 32.1833 40.3641 32.1833C40.2015 32.1833 40.0751 32.2096 39.9852 32.2623C39.8951 32.3142 39.8501 32.3934 39.8501 32.5002V32.6787H40.9373V32.5025ZM42.747 31.6983V32.0083C42.747 32.0662 42.7011 32.1082 42.6096 32.1341L41.5555 32.4499C41.5145 32.4629 41.4845 32.4774 41.4655 32.4934C41.4466 32.5086 41.4371 32.5315 41.4371 32.562V32.6787H42.747V33.0218H39.3101V32.5002C39.3101 32.3843 39.3353 32.2852 39.3859 32.2027C39.4348 32.1204 39.5035 32.0529 39.5919 32.0003C39.6804 31.9477 39.7861 31.9092 39.9093 31.8847C40.0309 31.8603 40.1652 31.8481 40.3121 31.8481C40.4257 31.8481 40.5338 31.8562 40.6365 31.8722C40.7376 31.8874 40.8299 31.9099 40.9136 31.9397C40.9973 31.9694 41.0716 32.006 41.1363 32.0495C41.201 32.093 41.2531 32.1425 41.2926 32.1982C41.3179 32.1761 41.3486 32.1555 41.385 32.1364C41.4198 32.1174 41.4616 32.1002 41.5106 32.0849L42.747 31.6983Z" fill="url(#paint16_linear)"/>
<path d="M39.9685 30.6369C40.0049 30.6475 40.0317 30.6585 40.0491 30.67C40.0649 30.6806 40.0728 30.6948 40.0728 30.7124C40.0728 30.7291 40.0609 30.7475 40.0372 30.7672C40.012 30.7863 39.9852 30.8088 39.9567 30.8347C39.9282 30.8607 39.9022 30.8904 39.8785 30.9239C39.8532 30.9575 39.8407 30.9968 39.8407 31.0418C39.8407 31.1211 39.8778 31.1806 39.9519 31.2203C40.0246 31.2599 40.1201 31.2798 40.2386 31.2798C40.3144 31.2798 40.3776 31.2691 40.428 31.2477C40.477 31.2256 40.5196 31.197 40.556 31.162C40.5923 31.1261 40.6246 31.0856 40.6531 31.0407C40.6815 30.9957 40.7131 30.9495 40.7478 30.9022C40.781 30.855 40.8204 30.8088 40.8663 30.7638C40.912 30.7189 40.9697 30.6788 41.0392 30.6437C41.1087 30.6079 41.1939 30.5793 41.2949 30.5579C41.3945 30.5358 41.516 30.5247 41.6598 30.5247C41.816 30.5247 41.9629 30.5381 42.1003 30.5648C42.2361 30.5907 42.3553 30.6284 42.458 30.678C42.5591 30.7276 42.6388 30.789 42.6972 30.8622C42.7557 30.9347 42.7848 31.017 42.7848 31.1093C42.7848 31.162 42.7738 31.2146 42.7517 31.2672C42.7296 31.3191 42.6988 31.3694 42.6594 31.4182C42.6199 31.4663 42.5724 31.5116 42.5172 31.5543C42.4619 31.597 42.4004 31.6344 42.3325 31.6664L41.9961 31.5657C41.9709 31.5574 41.9503 31.5463 41.9345 31.5326C41.9172 31.5189 41.9085 31.5044 41.9085 31.4891C41.9085 31.4685 41.9243 31.4468 41.9558 31.4239C41.9874 31.401 42.0222 31.3747 42.0601 31.3449C42.0979 31.3152 42.1327 31.2809 42.1643 31.242C42.1958 31.2023 42.2117 31.1551 42.2117 31.1001C42.2117 31.02 42.1738 30.9583 42.0979 30.9148C42.0222 30.8706 41.9092 30.8485 41.7592 30.8485C41.6724 30.8485 41.6021 30.8596 41.5484 30.8817C41.4947 30.903 41.4498 30.9312 41.4134 30.9663C41.3771 31.0014 41.3463 31.0414 41.3211 31.0864C41.2942 31.1314 41.265 31.1776 41.2334 31.2248C41.2018 31.2722 41.1639 31.3183 41.1197 31.3633C41.0754 31.4083 41.017 31.4483 40.9444 31.4834C40.8718 31.5185 40.7818 31.5471 40.6744 31.5692C40.567 31.5906 40.4336 31.6012 40.2741 31.6012C40.1462 31.6012 40.0222 31.589 39.9022 31.5646C39.7822 31.5402 39.6756 31.5044 39.5824 31.4571C39.4893 31.4098 39.4143 31.3518 39.3574 31.2832C39.3005 31.2138 39.2721 31.1345 39.2721 31.0453C39.2721 30.9453 39.3045 30.8531 39.3693 30.7684C39.4324 30.683 39.5209 30.6109 39.6345 30.5522L39.9685 30.6369Z" fill="url(#paint17_linear)"/>
<path d="M41.0273 28.129C41.2784 28.129 41.5113 28.1497 41.7261 28.1908C41.9408 28.2313 42.1263 28.2889 42.2827 28.3636C42.439 28.4376 42.5622 28.5268 42.6522 28.6313C42.7406 28.7357 42.7848 28.8517 42.7848 28.979C42.7848 29.1064 42.7406 29.2223 42.6522 29.3268C42.5622 29.4313 42.439 29.5209 42.2827 29.5957C42.1263 29.6704 41.9408 29.7283 41.7261 29.7695C41.5113 29.81 41.2784 29.8301 41.0273 29.8301C40.7762 29.8301 40.5441 29.81 40.331 29.7695C40.1162 29.7283 39.9306 29.6704 39.7743 29.5957C39.6179 29.5209 39.4956 29.4313 39.4072 29.3268C39.3172 29.2223 39.2721 29.1064 39.2721 28.979C39.2721 28.8517 39.3172 28.7357 39.4072 28.6313C39.4956 28.5268 39.6188 28.4376 39.7766 28.3636C39.933 28.2889 40.1186 28.2313 40.3333 28.1908C40.5465 28.1497 40.7778 28.129 41.0273 28.129ZM41.0273 28.4803C40.8473 28.4803 40.6863 28.4917 40.5441 28.5145C40.4004 28.5374 40.2788 28.5706 40.1794 28.6141C40.0782 28.6568 40.0017 28.7091 39.9496 28.7708C39.8959 28.8318 39.8691 28.9013 39.8691 28.979C39.8691 29.0569 39.8959 29.1266 39.9496 29.1883C40.0017 29.2502 40.0782 29.3028 40.1794 29.3463C40.2788 29.389 40.4004 29.4217 40.5441 29.4446C40.6863 29.4675 40.8473 29.479 41.0273 29.479C41.209 29.479 41.3715 29.4675 41.5153 29.4446C41.6574 29.4217 41.7782 29.389 41.8777 29.3463C41.9771 29.3028 42.0537 29.2502 42.1074 29.1883C42.1596 29.1266 42.1856 29.0569 42.1856 28.979C42.1856 28.9013 42.1596 28.8318 42.1074 28.7708C42.0537 28.7091 41.9771 28.6568 41.8777 28.6141C41.7782 28.5706 41.6574 28.5374 41.5153 28.5145C41.3715 28.4917 41.209 28.4803 41.0273 28.4803Z" fill="url(#paint18_linear)"/>
<path d="M39.8667 27.5329H40.8166V26.9357H41.3755V27.5329H42.747V27.8784H39.3101V26.8214H39.8667V27.5329Z" fill="url(#paint19_linear)"/>
<path d="M39.8833 24.9897V25.4748H42.747V25.8192H39.8833V26.3042H39.3101V24.9897H39.8833Z" fill="url(#paint20_linear)"/>
<path d="M39.3101 23.3619H42.747V23.7073H41.2666V24.4383H42.747V24.7838H39.3101V24.4383H40.7691V23.7073H39.3101V23.3619Z" fill="url(#paint21_linear)"/>
<path d="M39.8667 22.6687H40.7502V22.115H41.2879V22.6687H42.1904V21.9572H42.747V23.0142H39.3101V21.9572H39.8667V22.6687Z" fill="url(#paint22_linear)"/>
<path d="M42.2022 20.5203C42.2022 20.4653 42.1887 20.4203 42.1619 20.3853C42.1334 20.3495 42.0964 20.3208 42.0506 20.2995C42.0047 20.2781 41.9527 20.2632 41.8942 20.2549C41.8342 20.2465 41.7726 20.2423 41.7095 20.2423C41.64 20.2423 41.5776 20.2472 41.5224 20.2571C41.4671 20.2671 41.4205 20.2831 41.3826 20.3052C41.3431 20.3273 41.3131 20.3563 41.2926 20.3922C41.2721 20.4272 41.2618 20.4707 41.2618 20.5225V20.8143H42.2022V20.5203ZM39.8501 20.8143H40.7786V20.5889C40.7786 20.5409 40.7707 20.4982 40.7549 20.4608C40.7376 20.4234 40.7107 20.3922 40.6744 20.367C40.638 20.3418 40.5907 20.3227 40.5323 20.3097C40.4722 20.2961 40.4004 20.2892 40.3168 20.2892C40.2314 20.2892 40.1588 20.2949 40.0988 20.3063C40.0388 20.317 39.9906 20.3338 39.9543 20.3567C39.918 20.3796 39.892 20.4086 39.8762 20.4436C39.8587 20.4787 39.8501 20.5203 39.8501 20.5683V20.8143ZM39.31 20.5683C39.31 20.4569 39.3322 20.362 39.3764 20.2835C39.419 20.2041 39.4806 20.1397 39.5611 20.0902C39.6401 20.0398 39.7364 20.0032 39.8501 19.9803C39.9637 19.9574 40.0909 19.946 40.2314 19.946C40.3104 19.946 40.3862 19.9517 40.4588 19.9631C40.5314 19.9738 40.6002 19.991 40.6649 20.0146C40.7281 20.0375 40.7857 20.0673 40.8379 20.1038C40.8899 20.1404 40.9342 20.1839 40.9704 20.2342C41.0257 20.1214 41.1158 20.0379 41.2405 19.9837C41.3652 19.9296 41.5271 19.9025 41.7261 19.9025C41.8713 19.9025 42.0063 19.9162 42.1311 19.9437C42.2559 19.9703 42.364 20.0097 42.4556 20.0615C42.5472 20.1134 42.619 20.1774 42.6712 20.2537C42.7217 20.3292 42.7469 20.4162 42.7469 20.5145V21.1574H39.31V20.5683Z" fill="url(#paint23_linear)"/>
<path d="M39.8667 19.2949H40.7502V18.7412H41.2878V19.2949H42.1903V18.5833H42.7469V19.6404H39.31V18.5833H39.8667V19.2949Z" fill="url(#paint24_linear)"/>
<path d="M41.4418 17.4503L40.3901 17.6298C40.3348 17.6406 40.2702 17.6519 40.1959 17.6642C40.1217 17.6756 40.0412 17.6867 39.9543 17.6973C40.0427 17.708 40.1248 17.7194 40.2007 17.7317C40.2749 17.7431 40.3396 17.7542 40.3949 17.7649L41.4418 17.9433V17.4503ZM42.7469 16.8737V17.1402C42.7469 17.17 42.7327 17.1943 42.7043 17.2135C42.6743 17.2317 42.6364 17.2455 42.5906 17.2546L41.9345 17.3668V18.0279L42.5906 18.14C42.6301 18.1477 42.6664 18.161 42.6996 18.1801C42.7311 18.1991 42.7469 18.2232 42.7469 18.2522V18.521L39.31 17.8724V17.5212L42.7469 16.8737Z" fill="url(#paint25_linear)"/>
<path d="M42.1785 16.083C42.1785 16.0273 42.1596 15.9773 42.1216 15.9331C42.0821 15.8889 42.0269 15.8515 41.9558 15.821C41.8848 15.7905 41.7987 15.7673 41.6977 15.7513C41.5966 15.7353 41.4829 15.7272 41.3566 15.7272H39.31V15.384H41.3566C41.565 15.384 41.7568 15.4004 41.9321 15.4332C42.1059 15.4652 42.2559 15.5113 42.3822 15.5716C42.5085 15.6319 42.6072 15.705 42.6783 15.7913C42.7493 15.8775 42.7848 15.9747 42.7848 16.083C42.7848 16.1912 42.7493 16.2889 42.6783 16.3758C42.6072 16.462 42.5085 16.5352 42.3822 16.5955C42.2559 16.6557 42.1059 16.7022 41.9321 16.7351C41.7568 16.7671 41.565 16.7831 41.3566 16.7831H39.31V16.4399H41.3566C41.4829 16.4399 41.5966 16.4319 41.6977 16.4159C41.7987 16.3999 41.8848 16.3766 41.9558 16.3461C42.0269 16.3156 42.0821 16.2782 42.1216 16.234C42.1596 16.1897 42.1785 16.1394 42.1785 16.083Z" fill="url(#paint26_linear)"/>
<path d="M39.8833 13.8828V14.3679H42.7469V14.7122H39.8833V15.1973H39.31V13.8828H39.8833Z" fill="url(#paint27_linear)"/>
<path d="M42.7469 13.3314V13.6769H39.31V13.3314H42.7469Z" fill="url(#paint28_linear)"/>
<path d="M39.8667 12.6388H40.8165V12.0416H41.3755V12.6388H42.7469V12.9842H39.31V11.9272H39.8667V12.6388Z" fill="url(#paint29_linear)"/>
<path d="M42.1785 11.0087C42.1785 10.9531 42.1596 10.9031 42.1216 10.8589C42.0821 10.8147 42.0269 10.7773 41.9558 10.7468C41.8848 10.7163 41.7987 10.693 41.6977 10.677C41.5966 10.661 41.4829 10.653 41.3566 10.653H39.31V10.3098H41.3566C41.565 10.3098 41.7568 10.3262 41.9321 10.3589C42.1059 10.391 42.2559 10.4372 42.3822 10.4974C42.5085 10.5576 42.6072 10.6309 42.6783 10.7171C42.7493 10.8032 42.7848 10.9005 42.7848 11.0087C42.7848 11.1171 42.7493 11.2147 42.6783 11.3016C42.6072 11.3878 42.5085 11.461 42.3822 11.5213C42.2559 11.5815 42.1059 11.628 41.9321 11.6608C41.7568 11.6929 41.565 11.7089 41.3566 11.7089H39.31V11.3656H41.3566C41.4829 11.3656 41.5966 11.3576 41.6977 11.3416C41.7987 11.3256 41.8848 11.3024 41.9558 11.2719C42.0269 11.2414 42.0821 11.204 42.1216 11.1598C42.1596 11.1156 42.1785 11.0652 42.1785 11.0087Z" fill="url(#paint30_linear)"/>
<path d="M42.169 8.9985H42.7469V9.98352H39.31V9.64027H42.169V8.9985Z" fill="url(#paint31_linear)"/>
<path d="M43.8979 0H41.829L42.8635 1.4735L43.8979 0Z" fill="url(#paint32_linear)"/>
<path d="M40.0951 1.68233H42.3227L41.2089 0.0958069L40.0951 1.68233Z" fill="url(#paint33_linear)"/>
<path d="M39.915 2.24374L41.2093 7.49553L42.5037 2.24374H39.915Z" fill="url(#paint34_linear)"/>
<path d="M40.5899 0H38.521L39.5555 1.4735L40.5899 0Z" fill="url(#paint35_linear)"/>
<path d="M43.0843 2.24374L41.8963 7.06367L46.0071 2.24374H43.0843Z" fill="url(#paint36_linear)"/>
<path d="M45.6554 1.68317L44.3216 0.378086L43.4054 1.68317H45.6554Z" fill="url(#paint37_linear)"/>
<path d="M38.0962 0.374126L36.7587 1.68272H39.0149L38.0962 0.374126Z" fill="url(#paint38_linear)"/>
<path d="M36.4062 2.24374L40.5234 7.07128L39.3337 2.24374H36.4062Z" fill="url(#paint39_linear)"/>
<defs>
<linearGradient id="paint0_linear" x1="0" y1="0" x2="97.8481" y2="3.81666" gradientUnits="userSpaceOnUse">
<stop stop-color="#306FD0"/>
<stop offset="0.437202" stop-color="#8C41D5"/>
<stop offset="1" stop-color="#D500A6"/>
</linearGradient>
<linearGradient id="paint1_linear" x1="0" y1="0" x2="97.8481" y2="3.81666" gradientUnits="userSpaceOnUse">
<stop stop-color="#306FD0"/>
<stop offset="0.437202" stop-color="#8C41D5"/>
<stop offset="1" stop-color="#D500A6"/>
</linearGradient>
<linearGradient id="paint2_linear" x1="0" y1="0" x2="97.8481" y2="3.81666" gradientUnits="userSpaceOnUse">
<stop stop-color="#306FD0"/>
<stop offset="0.437202" stop-color="#8C41D5"/>
<stop offset="1" stop-color="#D500A6"/>
</linearGradient>
<linearGradient id="paint3_linear" x1="0" y1="0" x2="97.8481" y2="3.81666" gradientUnits="userSpaceOnUse">
<stop stop-color="#306FD0"/>
<stop offset="0.437202" stop-color="#8C41D5"/>
<stop offset="1" stop-color="#D500A6"/>
</linearGradient>
<linearGradient id="paint4_linear" x1="0" y1="0" x2="97.8481" y2="3.81666" gradientUnits="userSpaceOnUse">
<stop stop-color="#306FD0"/>
<stop offset="0.437202" stop-color="#8C41D5"/>
<stop offset="1" stop-color="#D500A6"/>
</linearGradient>
<linearGradient id="paint5_linear" x1="0" y1="0" x2="97.8481" y2="3.81666" gradientUnits="userSpaceOnUse">
<stop stop-color="#306FD0"/>
<stop offset="0.437202" stop-color="#8C41D5"/>
<stop offset="1" stop-color="#D500A6"/>
</linearGradient>
<linearGradient id="paint6_linear" x1="0" y1="0" x2="97.8481" y2="3.81666" gradientUnits="userSpaceOnUse">
<stop stop-color="#306FD0"/>
<stop offset="0.437202" stop-color="#8C41D5"/>
<stop offset="1" stop-color="#D500A6"/>
</linearGradient>
<linearGradient id="paint7_linear" x1="0" y1="0" x2="97.8481" y2="3.81666" gradientUnits="userSpaceOnUse">
<stop stop-color="#306FD0"/>
<stop offset="0.437202" stop-color="#8C41D5"/>
<stop offset="1" stop-color="#D500A6"/>
</linearGradient>
<linearGradient id="paint8_linear" x1="0" y1="0" x2="97.8481" y2="3.81666" gradientUnits="userSpaceOnUse">
<stop stop-color="#306FD0"/>
<stop offset="0.437202" stop-color="#8C41D5"/>
<stop offset="1" stop-color="#D500A6"/>
</linearGradient>
<linearGradient id="paint9_linear" x1="0" y1="0" x2="97.8481" y2="3.81666" gradientUnits="userSpaceOnUse">
<stop stop-color="#306FD0"/>
<stop offset="0.437202" stop-color="#8C41D5"/>
<stop offset="1" stop-color="#D500A6"/>
</linearGradient>
<linearGradient id="paint10_linear" x1="0" y1="0" x2="97.8481" y2="3.81666" gradientUnits="userSpaceOnUse">
<stop stop-color="#306FD0"/>
<stop offset="0.437202" stop-color="#8C41D5"/>
<stop offset="1" stop-color="#D500A6"/>
</linearGradient>
<linearGradient id="paint11_linear" x1="0" y1="0" x2="97.8481" y2="3.81666" gradientUnits="userSpaceOnUse">
<stop stop-color="#306FD0"/>
<stop offset="0.437202" stop-color="#8C41D5"/>
<stop offset="1" stop-color="#D500A6"/>
</linearGradient>
<linearGradient id="paint12_linear" x1="0" y1="0" x2="97.8481" y2="3.81666" gradientUnits="userSpaceOnUse">
<stop stop-color="#306FD0"/>
<stop offset="0.437202" stop-color="#8C41D5"/>
<stop offset="1" stop-color="#D500A6"/>
</linearGradient>
<linearGradient id="paint13_linear" x1="0" y1="0" x2="97.8481" y2="3.81666" gradientUnits="userSpaceOnUse">
<stop stop-color="#306FD0"/>
<stop offset="0.437202" stop-color="#8C41D5"/>
<stop offset="1" stop-color="#D500A6"/>
</linearGradient>
<linearGradient id="paint14_linear" x1="0" y1="0" x2="97.8481" y2="3.81666" gradientUnits="userSpaceOnUse">
<stop stop-color="#306FD0"/>
<stop offset="0.437202" stop-color="#8C41D5"/>
<stop offset="1" stop-color="#D500A6"/>
</linearGradient>
<linearGradient id="paint15_linear" x1="0" y1="0" x2="97.8481" y2="3.81666" gradientUnits="userSpaceOnUse">
<stop stop-color="#306FD0"/>
<stop offset="0.437202" stop-color="#8C41D5"/>
<stop offset="1" stop-color="#D500A6"/>
</linearGradient>
<linearGradient id="paint16_linear" x1="0" y1="0" x2="97.8481" y2="3.81666" gradientUnits="userSpaceOnUse">
<stop stop-color="#306FD0"/>
<stop offset="0.437202" stop-color="#8C41D5"/>
<stop offset="1" stop-color="#D500A6"/>
</linearGradient>
<linearGradient id="paint17_linear" x1="0" y1="0" x2="97.8481" y2="3.81666" gradientUnits="userSpaceOnUse">
<stop stop-color="#306FD0"/>
<stop offset="0.437202" stop-color="#8C41D5"/>
<stop offset="1" stop-color="#D500A6"/>
</linearGradient>
<linearGradient id="paint18_linear" x1="0" y1="0" x2="97.8481" y2="3.81666" gradientUnits="userSpaceOnUse">
<stop stop-color="#306FD0"/>
<stop offset="0.437202" stop-color="#8C41D5"/>
<stop offset="1" stop-color="#D500A6"/>
</linearGradient>
<linearGradient id="paint19_linear" x1="0" y1="0" x2="97.8481" y2="3.81666" gradientUnits="userSpaceOnUse">
<stop stop-color="#306FD0"/>
<stop offset="0.437202" stop-color="#8C41D5"/>
<stop offset="1" stop-color="#D500A6"/>
</linearGradient>
<linearGradient id="paint20_linear" x1="0" y1="0" x2="97.8481" y2="3.81666" gradientUnits="userSpaceOnUse">
<stop stop-color="#306FD0"/>
<stop offset="0.437202" stop-color="#8C41D5"/>
<stop offset="1" stop-color="#D500A6"/>
</linearGradient>
<linearGradient id="paint21_linear" x1="0" y1="0" x2="97.8481" y2="3.81666" gradientUnits="userSpaceOnUse">
<stop stop-color="#306FD0"/>
<stop offset="0.437202" stop-color="#8C41D5"/>
<stop offset="1" stop-color="#D500A6"/>
</linearGradient>
<linearGradient id="paint22_linear" x1="0" y1="0" x2="97.8481" y2="3.81666" gradientUnits="userSpaceOnUse">
<stop stop-color="#306FD0"/>
<stop offset="0.437202" stop-color="#8C41D5"/>
<stop offset="1" stop-color="#D500A6"/>
</linearGradient>
<linearGradient id="paint23_linear" x1="0" y1="0" x2="97.8481" y2="3.81666" gradientUnits="userSpaceOnUse">
<stop stop-color="#306FD0"/>
<stop offset="0.437202" stop-color="#8C41D5"/>
<stop offset="1" stop-color="#D500A6"/>
</linearGradient>
<linearGradient id="paint24_linear" x1="0" y1="0" x2="97.8481" y2="3.81666" gradientUnits="userSpaceOnUse">
<stop stop-color="#306FD0"/>
<stop offset="0.437202" stop-color="#8C41D5"/>
<stop offset="1" stop-color="#D500A6"/>
</linearGradient>
<linearGradient id="paint25_linear" x1="0" y1="0" x2="97.8481" y2="3.81666" gradientUnits="userSpaceOnUse">
<stop stop-color="#306FD0"/>
<stop offset="0.437202" stop-color="#8C41D5"/>
<stop offset="1" stop-color="#D500A6"/>
</linearGradient>
<linearGradient id="paint26_linear" x1="0" y1="0" x2="97.8481" y2="3.81666" gradientUnits="userSpaceOnUse">
<stop stop-color="#306FD0"/>
<stop offset="0.437202" stop-color="#8C41D5"/>
<stop offset="1" stop-color="#D500A6"/>
</linearGradient>
<linearGradient id="paint27_linear" x1="0" y1="0" x2="97.8481" y2="3.81666" gradientUnits="userSpaceOnUse">
<stop stop-color="#306FD0"/>
<stop offset="0.437202" stop-color="#8C41D5"/>
<stop offset="1" stop-color="#D500A6"/>
</linearGradient>
<linearGradient id="paint28_linear" x1="0" y1="0" x2="97.8481" y2="3.81666" gradientUnits="userSpaceOnUse">
<stop stop-color="#306FD0"/>
<stop offset="0.437202" stop-color="#8C41D5"/>
<stop offset="1" stop-color="#D500A6"/>
</linearGradient>
<linearGradient id="paint29_linear" x1="0" y1="0" x2="97.8481" y2="3.81666" gradientUnits="userSpaceOnUse">
<stop stop-color="#306FD0"/>
<stop offset="0.437202" stop-color="#8C41D5"/>
<stop offset="1" stop-color="#D500A6"/>
</linearGradient>
<linearGradient id="paint30_linear" x1="0" y1="0" x2="97.8481" y2="3.81666" gradientUnits="userSpaceOnUse">
<stop stop-color="#306FD0"/>
<stop offset="0.437202" stop-color="#8C41D5"/>
<stop offset="1" stop-color="#D500A6"/>
</linearGradient>
<linearGradient id="paint31_linear" x1="0" y1="0" x2="97.8481" y2="3.81666" gradientUnits="userSpaceOnUse">
<stop stop-color="#306FD0"/>
<stop offset="0.437202" stop-color="#8C41D5"/>
<stop offset="1" stop-color="#D500A6"/>
</linearGradient>
<linearGradient id="paint32_linear" x1="0" y1="0" x2="97.8481" y2="3.81666" gradientUnits="userSpaceOnUse">
<stop stop-color="#306FD0"/>
<stop offset="0.437202" stop-color="#8C41D5"/>
<stop offset="1" stop-color="#D500A6"/>
</linearGradient>
<linearGradient id="paint33_linear" x1="0" y1="0" x2="97.8481" y2="3.81666" gradientUnits="userSpaceOnUse">
<stop stop-color="#306FD0"/>
<stop offset="0.437202" stop-color="#8C41D5"/>
<stop offset="1" stop-color="#D500A6"/>
</linearGradient>
<linearGradient id="paint34_linear" x1="0" y1="0" x2="97.8481" y2="3.81666" gradientUnits="userSpaceOnUse">
<stop stop-color="#306FD0"/>
<stop offset="0.437202" stop-color="#8C41D5"/>
<stop offset="1" stop-color="#D500A6"/>
</linearGradient>
<linearGradient id="paint35_linear" x1="0" y1="0" x2="97.8481" y2="3.81666" gradientUnits="userSpaceOnUse">
<stop stop-color="#306FD0"/>
<stop offset="0.437202" stop-color="#8C41D5"/>
<stop offset="1" stop-color="#D500A6"/>
</linearGradient>
<linearGradient id="paint36_linear" x1="0" y1="0" x2="97.8481" y2="3.81666" gradientUnits="userSpaceOnUse">
<stop stop-color="#306FD0"/>
<stop offset="0.437202" stop-color="#8C41D5"/>
<stop offset="1" stop-color="#D500A6"/>
</linearGradient>
<linearGradient id="paint37_linear" x1="0" y1="0" x2="97.8481" y2="3.81666" gradientUnits="userSpaceOnUse">
<stop stop-color="#306FD0"/>
<stop offset="0.437202" stop-color="#8C41D5"/>
<stop offset="1" stop-color="#D500A6"/>
</linearGradient>
<linearGradient id="paint38_linear" x1="0" y1="0" x2="97.8481" y2="3.81666" gradientUnits="userSpaceOnUse">
<stop stop-color="#306FD0"/>
<stop offset="0.437202" stop-color="#8C41D5"/>
<stop offset="1" stop-color="#D500A6"/>
</linearGradient>
<linearGradient id="paint39_linear" x1="0" y1="0" x2="97.8481" y2="3.81666" gradientUnits="userSpaceOnUse">
<stop stop-color="#306FD0"/>
<stop offset="0.437202" stop-color="#8C41D5"/>
<stop offset="1" stop-color="#D500A6"/>
</linearGradient>
</defs>
</svg>
