<svg width="102" height="51" viewBox="0 0 102 51" fill="none" xmlns="http://www.w3.org/2000/svg">
<path d="M0 20.5581V20.2529L0.640883 20.0088C1.04779 19.8664 1.31228 19.6731 1.43436 19.4289C1.55643 19.1848 1.61747 18.8694 1.61747 18.4829V2.52183C1.61747 2.11493 1.55643 1.7894 1.43436 1.54525C1.31228 1.3011 1.04779 1.10782 0.640883 0.965402L0 0.721257V0.416075H7.59905V0.721257L6.92764 0.995921C6.58177 1.11799 6.3478 1.3011 6.22572 1.54525C6.10365 1.7894 6.04262 2.1251 6.04262 2.55235V18.5134C6.04262 18.9203 6.10365 19.2357 6.22572 19.4595C6.36814 19.6833 6.63264 19.8664 7.0192 20.0088L7.59905 20.2529V20.5581H0ZM11.2612 20.5581V20.2529L11.658 20.1309C12.0649 20.0088 12.2785 19.8053 12.2989 19.5205C12.3192 19.2357 12.1971 18.9101 11.9326 18.5439L6.04262 10.2124L13.7943 2.33873C14.0791 2.05389 14.2317 1.77922 14.252 1.51473C14.2927 1.25024 14.0994 1.04678 13.6722 0.904365L13.1534 0.721257V0.416075H17.609V0.721257L16.8156 0.965402C16.368 1.10782 16.0119 1.28076 15.7474 1.48421C15.4829 1.68767 15.1777 1.96233 14.8319 2.30821L9.33859 7.89305L16.5409 18.3608C16.8461 18.8084 17.1309 19.1746 17.3954 19.4595C17.6802 19.7443 18.077 19.9681 18.5856 20.1309L19.0129 20.2529V20.5581H11.2612Z" fill="white"/>
<path d="M19.968 20.5581V20.2529L20.6089 20.0393C21.0158 19.8969 21.2803 19.7138 21.4024 19.49C21.5244 19.2458 21.5855 18.9101 21.5855 18.4829V2.52183C21.5855 2.11493 21.5244 1.79957 21.4024 1.57577C21.3006 1.33162 21.0565 1.13834 20.6699 0.995921L19.968 0.721257V0.416075H28.6962C31.097 0.416075 32.9383 0.873848 34.22 1.7894C35.5018 2.6846 36.1427 3.93585 36.1427 5.54314C36.1427 6.43834 35.807 7.33355 35.1356 8.22875C34.4642 9.12395 33.4062 9.8157 31.9617 10.304L36.2037 18.727C36.3868 19.0729 36.5903 19.3577 36.8141 19.5815C37.0582 19.785 37.3736 19.9681 37.7601 20.1309L38.1569 20.2835V20.5581H32.6941L28.1774 10.9449H26.1022V18.4829C26.1022 18.8694 26.1632 19.1848 26.2853 19.4289C26.4074 19.6731 26.6617 19.8562 27.0482 19.9783L27.7807 20.2529V20.5581H19.968ZM26.1022 10.3345H27.567C29.0319 10.3345 30.0899 9.94794 30.7409 9.17481C31.392 8.38134 31.7175 7.21147 31.7175 5.66521C31.7175 4.09861 31.4123 2.93892 30.802 2.18613C30.1916 1.413 29.1642 1.02644 27.7196 1.02644H26.1022V10.3345Z" fill="white"/>
<path d="M9.73532 44.683C8.18907 44.683 6.81574 44.4084 5.61536 43.859C4.43532 43.3097 3.5096 42.445 2.8382 41.265C2.18714 40.0646 1.86161 38.4878 1.86161 36.5346V26.0058C1.86161 25.2327 1.46488 24.7241 0.671402 24.4799L0 24.2968V23.9916H8.45356V24.2968L7.56853 24.541C6.81574 24.7241 6.43935 25.2327 6.43935 26.0669V37.3281C6.43935 39.2203 6.83609 40.6241 7.62957 41.5396C8.42304 42.4348 9.56239 42.8824 11.0476 42.8824C12.5939 42.8824 13.8146 42.4043 14.7098 41.4481C15.6253 40.4919 16.0831 39.1389 16.0831 37.3892V26.189C16.0831 25.782 16.0119 25.426 15.8695 25.1208C15.7474 24.7953 15.4829 24.5817 15.076 24.4799L14.3131 24.2968V23.9916H18.5856V24.2968L17.7616 24.5105C17.3751 24.5918 17.1207 24.7851 16.9987 25.0903C16.8766 25.3955 16.8156 25.7515 16.8156 26.1584V37.3281C16.8156 38.8133 16.5206 40.1155 15.9305 41.2345C15.3405 42.3331 14.5165 43.1876 13.4586 43.798C12.4006 44.388 11.1595 44.683 9.73532 44.683Z" fill="white"/>
<path d="M19.8893 44.1337V43.8285L20.8964 43.5233C21.2626 43.4216 21.5271 43.2283 21.6899 42.9435C21.8527 42.6383 21.934 42.2823 21.934 41.8753V27.1961C21.7102 26.7078 21.5271 26.3415 21.3847 26.0974C21.2626 25.8533 21.1202 25.6498 20.9575 25.487C20.7947 25.3039 20.5709 25.0801 20.2861 24.8156L19.7672 24.2968V23.9916H25.169L35.301 37.8164V26.311C35.301 25.9041 35.2298 25.5379 35.0874 25.2124C34.9653 24.8868 34.7009 24.6732 34.2939 24.5715L33.2868 24.2968V23.9916H37.6509V24.2968L36.827 24.5715C36.4607 24.6936 36.2369 24.9072 36.1556 25.2124C36.0742 25.5176 36.0335 25.8736 36.0335 26.2805V44.2252H34.3245L22.6665 28.2032V41.8753C22.6665 42.2823 22.7275 42.6281 22.8496 42.913C22.9717 43.1978 23.226 43.4013 23.6125 43.5233L24.5281 43.8285V44.1337H19.8893Z" fill="white"/>
<path d="M57.3577 44.6827C56.0556 44.6827 54.8247 44.4487 53.665 43.9808L52.3222 45.8729C53.6447 46.1985 55.1502 46.5443 56.8389 46.9105C58.5479 47.2971 60.2264 47.6633 61.8744 48.0092C62.6679 48.172 63.2579 48.2432 63.6445 48.2228C64.0514 48.2228 64.4176 48.1211 64.7431 47.9176L65.5671 47.3988L65.8113 47.7345L64.2548 49.413C63.8072 49.881 63.3698 50.2574 62.9426 50.5422C62.5153 50.8474 62.0372 51 61.5082 51C61.0809 51 60.4706 50.9288 59.6771 50.7864C58.8836 50.6643 57.9986 50.5015 57.022 50.2981C56.0454 50.115 55.0688 49.9115 54.0923 49.6877C53.1157 49.4843 52.2306 49.3011 51.4372 49.1384C51.1116 49.057 50.8166 49.0367 50.5521 49.0773C50.2877 49.1384 50.0333 49.3011 49.7892 49.5656L49.423 49.9319L49.0567 49.6572L52.9021 43.6146C51.4168 42.8618 50.1859 41.6919 49.2093 40.105C48.2328 38.4977 47.7445 36.4835 47.7445 34.0624C47.7445 32.3126 48.009 30.7766 48.5379 29.4541C49.0669 28.1316 49.7892 27.033 50.7047 26.1581C51.6203 25.2629 52.6477 24.5915 53.7871 24.1439C54.9468 23.676 56.137 23.442 57.3577 23.442C58.5988 23.442 59.789 23.6658 60.9284 24.1134C62.088 24.5407 63.1155 25.2019 64.0107 26.0971C64.9262 26.9719 65.6485 28.0808 66.1775 29.4236C66.7065 30.746 66.971 32.2923 66.971 34.0624C66.971 35.7917 66.7065 37.3278 66.1775 38.6706C65.6485 39.9931 64.9262 41.1019 64.0107 41.9971C63.1155 42.872 62.088 43.5434 60.9284 44.0113C59.789 44.4589 58.5988 44.6827 57.3577 44.6827ZM57.3577 44.0418C58.4767 44.0418 59.3821 43.7468 60.0738 43.1568C60.7656 42.5464 61.2641 41.519 61.5692 40.0745C61.8948 38.6096 62.0575 36.6055 62.0575 34.0624C62.0575 31.4988 61.8948 29.4948 61.5692 28.0503C61.2641 26.5854 60.7656 25.5579 60.0738 24.9679C59.3821 24.3576 58.4767 24.0524 57.3577 24.0524C56.2591 24.0524 55.3639 24.3576 54.6721 24.9679C53.9804 25.5579 53.4717 26.5854 53.1462 28.0503C52.841 29.4948 52.6884 31.4988 52.6884 34.0624C52.6884 36.6055 52.841 38.6096 53.1462 40.0745C53.4717 41.519 53.9804 42.5464 54.6721 43.1568C55.3639 43.7468 56.2591 44.0418 57.3577 44.0418Z" fill="white"/>
<path d="M85.7876 44.1337V43.8285L86.4895 43.5538C86.8354 43.4114 87.0694 43.2283 87.1915 43.0045C87.3339 42.7604 87.4051 42.4348 87.4051 42.0279V26.0974C87.4051 25.6905 87.344 25.3751 87.222 25.1513C87.1202 24.9072 86.8761 24.7139 86.4895 24.5715L85.7876 24.2968V23.9916H100.406L100.589 28.6915H100.284L98.9715 25.8227C98.7884 25.4565 98.5951 25.1615 98.3917 24.9377C98.1882 24.7139 97.883 24.602 97.4761 24.602H91.9828V33.4218H95.2483C95.6552 33.4218 95.9604 33.3201 96.1638 33.1166C96.3876 32.8928 96.5809 32.5978 96.7437 32.2316L97.354 31.0108H97.6592V36.5041H97.354L96.7437 35.2224C96.5606 34.8561 96.3673 34.5713 96.1638 34.3679C95.9604 34.1441 95.6552 34.0322 95.2483 34.0322H91.9828V43.5233H98.1475C98.5544 43.5233 98.8698 43.4216 99.0936 43.2181C99.3174 42.9943 99.5005 42.6892 99.6429 42.3026L100.894 39.4339H101.199L101.016 44.1337H85.7876Z" fill="white"/>
<path d="M76.1702 44.683C74.6239 44.683 73.2506 44.4084 72.0502 43.859C70.8702 43.3097 69.9445 42.445 69.2731 41.265C68.622 40.0646 68.2965 38.4878 68.2965 36.5346V26.0058C68.2965 25.2327 67.8997 24.7241 67.1063 24.4799L66.4349 24.2968V23.9916H74.8884V24.2968L74.0034 24.541C73.2506 24.7241 72.8742 25.2327 72.8742 26.0669V37.3281C72.8742 39.2203 73.271 40.6241 74.0644 41.5396C74.8579 42.4348 75.9973 42.8824 77.4825 42.8824C79.0287 42.8824 80.2495 42.4043 81.1447 41.4481C82.0602 40.4919 82.518 39.1389 82.518 37.3892V26.189C82.518 25.782 82.4468 25.426 82.3044 25.1208C82.1823 24.7953 81.9178 24.5817 81.5109 24.4799L80.7479 24.2968V23.9916H85.0205V24.2968L84.1965 24.5105C83.8099 24.5918 83.5556 24.7851 83.4335 25.0903C83.3115 25.3955 83.2504 25.7515 83.2504 26.1584V37.3281C83.2504 38.8133 82.9554 40.1155 82.3654 41.2345C81.7754 42.3331 80.9514 43.1876 79.8934 43.798C78.8355 44.388 77.5944 44.683 76.1702 44.683Z" fill="white"/>
<path d="M82.0045 20.5582V20.253L82.7675 19.9784C83.1744 19.8156 83.4897 19.6223 83.7135 19.3985C83.9373 19.1544 84.1205 18.8187 84.2629 18.3914L90.5496 0.355133H93.1437L99.3389 18.5135C99.5017 18.9611 99.6848 19.307 99.8882 19.5511C100.092 19.7749 100.407 19.9682 100.834 20.131L101.201 20.253V20.5582H93.4489V20.253L93.9066 20.1004C94.3339 19.9377 94.5882 19.7139 94.6696 19.429C94.7713 19.1239 94.7611 18.7678 94.6391 18.3609L93.2047 13.9663H86.4297L84.9648 18.2694C84.8224 18.717 84.7715 19.073 84.8122 19.3375C84.8732 19.602 85.1174 19.8156 85.5446 19.9784L86.216 20.253V20.5582H82.0045ZM86.6433 13.3559H93.0216L89.9393 3.86473L86.6433 13.3559Z" fill="white"/>
<path d="M69.5875 20.5581V20.2529L70.8388 19.9478C71.6729 19.7647 72.09 19.256 72.09 18.4218V1.02644H69.496C68.7432 1.02644 68.204 1.22989 67.8785 1.63681C67.553 2.02337 67.2071 2.56253 66.8409 3.25427L65.7422 5.39055H65.437L65.5896 0.416075H83.1987L83.3207 5.39055H83.0155L81.9169 3.25427C81.571 2.56253 81.2353 2.02337 80.9098 1.63681C80.5843 1.22989 80.0451 1.02644 79.2923 1.02644H76.6983V18.4218C76.6983 19.256 77.1153 19.7647 77.9495 19.9478L79.2008 20.2529V20.5581H69.5875Z" fill="white"/>
<path d="M56.0143 21.6417C54.8953 21.6417 53.7559 21.4993 52.5962 21.2145C51.4365 20.95 50.4701 20.5939 49.697 20.1463L49.8496 15.9958H50.1548L51.1008 17.9795C51.3857 18.5492 51.6909 19.0578 52.0164 19.5054C52.3419 19.9327 52.7895 20.2684 53.3592 20.5125C53.7661 20.716 54.1527 20.8584 54.5189 20.9398C54.9054 21.0008 55.3327 21.0313 55.8006 21.0313C57.0417 21.0313 58.0183 20.6956 58.7304 20.0242C59.4628 19.3528 59.8291 18.4882 59.8291 17.4302C59.8291 16.4333 59.5849 15.6601 59.0966 15.1108C58.6083 14.5411 57.825 13.9918 56.7467 13.4628L55.4955 12.9135C53.7458 12.1404 52.3724 11.2553 51.3755 10.2584C50.3989 9.24113 49.9106 7.89832 49.9106 6.22999C49.9106 5.02961 50.2158 3.99199 50.8262 3.11713C51.4569 2.24227 52.3216 1.57087 53.4202 1.10293C54.5392 0.634979 55.8413 0.401007 57.3266 0.401007C58.4049 0.401007 59.4221 0.543425 60.3784 0.828262C61.355 1.1131 62.1993 1.49966 62.9114 1.98796L62.7283 5.65015H62.4231L61.1719 3.36128C60.826 2.64918 60.4801 2.15072 60.1342 1.86588C59.7884 1.5607 59.3916 1.34707 58.944 1.225C58.6795 1.14362 58.4354 1.09275 58.2116 1.07241C57.9878 1.03172 57.703 1.01137 57.3571 1.01137C56.3195 1.01137 55.4446 1.31655 54.7325 1.92692C54.0204 2.51694 53.6644 3.32059 53.6644 4.33786C53.6644 5.37548 53.939 6.20965 54.4884 6.84036C55.0377 7.45072 55.8413 8.00005 56.8993 8.48834L58.3031 9.09871C60.2563 9.95322 61.6601 10.8688 62.5147 11.8454C63.3692 12.8016 63.7964 14.0427 63.7964 15.5686C63.7964 17.359 63.1149 18.8239 61.7517 19.9632C60.4089 21.0822 58.4964 21.6417 56.0143 21.6417Z" fill="white"/>
<path d="M44.2502 43.3808C44.2502 43.3606 44.2652 43.3435 44.2952 43.3298L44.6129 43.1851C44.7997 43.2564 44.9414 43.3452 45.0381 43.4513C45.1349 43.5567 45.1832 43.6823 45.1832 43.8281C45.1832 43.9602 45.1374 44.0789 45.0457 44.1843C44.9523 44.2896 44.823 44.3791 44.6579 44.4529C44.4928 44.5266 44.2969 44.5833 44.0701 44.623C43.8433 44.6628 43.5957 44.6826 43.3272 44.6826C43.1471 44.6826 42.9761 44.6733 42.8144 44.6546C42.651 44.6352 42.5009 44.6072 42.3641 44.5708C42.2274 44.5343 42.104 44.4906 41.9939 44.4395C41.8839 44.3876 41.7905 44.3293 41.7138 44.2645C41.6354 44.1996 41.5762 44.1292 41.5362 44.053C41.4945 43.976 41.4736 43.8942 41.4736 43.8075C41.4736 43.7426 41.4853 43.6814 41.5086 43.6239C41.532 43.5656 41.5645 43.5113 41.6062 43.461C41.6479 43.4108 41.6988 43.3646 41.7588 43.3225C41.8172 43.2795 41.8814 43.241 41.9514 43.207L42.2966 43.3298C42.3183 43.3371 42.3375 43.3464 42.3541 43.3577C42.3708 43.3691 42.3791 43.3845 42.3791 43.4039C42.3791 43.4234 42.365 43.4432 42.3366 43.4635C42.3083 43.4829 42.2766 43.5072 42.2416 43.5364C42.2065 43.5648 42.1749 43.6008 42.1465 43.6446C42.1182 43.6875 42.104 43.7422 42.104 43.8087C42.104 43.8824 42.1315 43.9501 42.1865 44.0117C42.2416 44.0732 42.3216 44.1263 42.4267 44.1709C42.5301 44.2146 42.6576 44.2487 42.8094 44.273C42.9611 44.2973 43.1337 44.3094 43.3272 44.3094C43.5223 44.3094 43.6966 44.2965 43.85 44.2705C44.0017 44.2438 44.1301 44.2078 44.2352 44.1624C44.3403 44.1162 44.4203 44.0627 44.4753 44.0019C44.5287 43.9403 44.5554 43.8747 44.5554 43.805C44.5554 43.7637 44.5512 43.7264 44.5429 43.6932C44.5345 43.6592 44.5204 43.628 44.5003 43.5996C44.4803 43.5704 44.4545 43.5433 44.4228 43.5182C44.3911 43.4922 44.3511 43.4663 44.3027 43.4404C44.2877 43.4315 44.2752 43.4221 44.2652 43.4124C44.2552 43.4027 44.2502 43.3922 44.2502 43.3808Z" fill="white"/>
<path d="M43.2321 42.4274C43.2321 42.3683 43.2171 42.3172 43.1871 42.2743C43.1554 42.2313 43.1129 42.1961 43.0595 42.1685C43.0045 42.141 42.9403 42.1207 42.8669 42.1078C42.7935 42.0948 42.7135 42.0883 42.6268 42.0883C42.455 42.0883 42.3216 42.1163 42.2266 42.1722C42.1315 42.2273 42.084 42.3116 42.084 42.425V42.6146H43.2321V42.4274ZM45.1432 41.573V41.9023C45.1432 41.9639 45.0948 42.0085 44.9981 42.0361L43.885 42.3715C43.8416 42.3853 43.81 42.4007 43.7899 42.4177C43.7699 42.4339 43.7599 42.4582 43.7599 42.4906V42.6146H45.1432V42.9793H41.5137V42.425C41.5137 42.3018 41.5403 42.1965 41.5937 42.109C41.6454 42.0215 41.7179 41.9498 41.8113 41.8938C41.9047 41.8379 42.0164 41.797 42.1465 41.7711C42.2749 41.7451 42.4167 41.7322 42.5718 41.7322C42.6918 41.7322 42.806 41.7407 42.9144 41.7577C43.0212 41.7739 43.1187 41.7978 43.2071 41.8294C43.2955 41.861 43.3739 41.8999 43.4422 41.9461C43.5106 41.9923 43.5656 42.045 43.6073 42.1041C43.634 42.0806 43.6665 42.0587 43.7049 42.0385C43.7416 42.0182 43.7858 42 43.8375 41.9838L45.1432 41.573Z" fill="white"/>
<path d="M42.1015 41.0335H43.0345V40.4452H43.6023V41.0335H44.5554L44.5554 40.2775H45.1432V41.4006H41.5137L41.5137 40.2775H42.1015V41.0335Z" fill="white"/>
<path d="M43.7649 39.0736L42.6543 39.2644C42.5959 39.2758 42.5276 39.2879 42.4492 39.3009C42.3708 39.313 42.2858 39.3248 42.194 39.3361C42.2874 39.3475 42.3741 39.3596 42.4542 39.3726C42.5326 39.3848 42.6009 39.3965 42.6593 39.4078L43.7649 39.5975V39.0736ZM45.1432 38.461V38.7442C45.1432 38.7758 45.1282 38.8017 45.0982 38.822C45.0665 38.8414 45.0265 38.856 44.9781 38.8657L44.2852 38.9849V39.6874L44.9781 39.8065C45.0198 39.8146 45.0582 39.8288 45.0932 39.8491C45.1265 39.8693 45.1432 39.8949 45.1432 39.9256V40.2113L41.5137 39.5221V39.1489L45.1432 38.461Z" fill="white"/>
<path d="M42.119 37.2227V37.7381H45.1432V38.104H42.119L42.119 38.6193H41.5137V37.2227H42.119Z" fill="white"/>
<path d="M43.3272 35.352C43.5923 35.352 43.8383 35.3739 44.0651 35.4177C44.2919 35.4606 44.4878 35.5218 44.6529 35.6012C44.818 35.6798 44.9481 35.7746 45.0431 35.8856C45.1365 35.9967 45.1832 36.1198 45.1832 36.2551C45.1832 36.3905 45.1365 36.5136 45.0431 36.6247C44.9481 36.7357 44.818 36.8309 44.6529 36.9103C44.4878 36.9897 44.2919 37.0513 44.0651 37.095C43.8383 37.138 43.5923 37.1595 43.3272 37.1595C43.062 37.1595 42.8169 37.138 42.5918 37.095C42.365 37.0513 42.169 36.9897 42.0039 36.9103C41.8388 36.8309 41.7096 36.7357 41.6162 36.6247C41.5212 36.5136 41.4736 36.3905 41.4736 36.2551C41.4736 36.1198 41.5212 35.9967 41.6162 35.8856C41.7096 35.7746 41.8397 35.6798 42.0064 35.6012C42.1715 35.5218 42.3675 35.4606 42.5943 35.4177C42.8194 35.3739 43.0637 35.352 43.3272 35.352ZM43.3272 35.7252C43.1371 35.7252 42.967 35.7373 42.8169 35.7617C42.6651 35.786 42.5367 35.8212 42.4317 35.8674C42.3249 35.9128 42.2441 35.9683 42.189 36.0339C42.1323 36.0988 42.104 36.1725 42.104 36.2551C42.104 36.3378 42.1323 36.4119 42.189 36.4776C42.2441 36.5432 42.3249 36.5991 42.4317 36.6453C42.5367 36.6907 42.6651 36.7255 42.8169 36.7498C42.967 36.7742 43.1371 36.7863 43.3272 36.7863C43.519 36.7863 43.6907 36.7742 43.8425 36.7498C43.9926 36.7255 44.1201 36.6907 44.2252 36.6453C44.3302 36.5991 44.4111 36.5432 44.4678 36.4776C44.5229 36.4119 44.5504 36.3378 44.5504 36.2551C44.5504 36.1725 44.5229 36.0988 44.4678 36.0339C44.4111 35.9683 44.3302 35.9128 44.2252 35.8674C44.1201 35.8212 43.9926 35.786 43.8425 35.7617C43.6907 35.7373 43.519 35.7252 43.3272 35.7252Z" fill="white"/>
<path d="M43.2321 34.5339C43.2321 34.4747 43.2171 34.4237 43.1871 34.3808C43.1554 34.3378 43.1129 34.3026 43.0595 34.275C43.0045 34.2475 42.9403 34.2272 42.8669 34.2142C42.7935 34.2013 42.7135 34.1948 42.6268 34.1948C42.455 34.1948 42.3216 34.2227 42.2266 34.2787C42.1315 34.3338 42.084 34.418 42.084 34.5315V34.7211H43.2321V34.5339ZM45.1432 33.6794V34.0088C45.1432 34.0704 45.0948 34.115 44.9981 34.1425L43.885 34.478C43.8416 34.4918 43.81 34.5072 43.7899 34.5242C43.7699 34.5404 43.7599 34.5647 43.7599 34.5971V34.7211H45.1432L45.1432 35.0857H41.5137V34.5315C41.5137 34.4083 41.5403 34.303 41.5937 34.2154C41.6454 34.1279 41.7179 34.0562 41.8113 34.0003C41.9047 33.9444 42.0164 33.9035 42.1465 33.8775C42.2749 33.8516 42.4167 33.8386 42.5718 33.8386C42.6918 33.8386 42.806 33.8472 42.9144 33.8642C43.0212 33.8804 43.1187 33.9043 43.2071 33.9359C43.2955 33.9675 43.3739 34.0064 43.4422 34.0526C43.5106 34.0988 43.5656 34.1514 43.6073 34.2106C43.634 34.1871 43.6665 34.1652 43.7049 34.1449C43.7416 34.1247 43.7858 34.1065 43.8375 34.0902L45.1432 33.6794Z" fill="white"/>
<path d="M42.209 32.5517C42.2474 32.563 42.2757 32.5747 42.2941 32.5869C42.3108 32.5982 42.3191 32.6132 42.3191 32.6319C42.3191 32.6497 42.3066 32.6692 42.2816 32.6902C42.2549 32.7105 42.2266 32.7344 42.1965 32.7619C42.1665 32.7895 42.139 32.8211 42.114 32.8567C42.0873 32.8924 42.074 32.9341 42.074 32.9819C42.074 33.0662 42.1132 33.1294 42.1915 33.1716C42.2682 33.2137 42.3691 33.2348 42.4942 33.2348C42.5743 33.2348 42.641 33.2234 42.6943 33.2007C42.746 33.1772 42.791 33.1468 42.8294 33.1096C42.8678 33.0715 42.9019 33.0285 42.932 32.9807C42.962 32.9329 42.9953 32.8839 43.032 32.8336C43.067 32.7834 43.1087 32.7344 43.1571 32.6866C43.2054 32.6388 43.2663 32.5962 43.3397 32.5589C43.4131 32.5209 43.5031 32.4905 43.6098 32.4678C43.7149 32.4443 43.8433 32.4325 43.9951 32.4325C44.1601 32.4325 44.3152 32.4467 44.4603 32.4751C44.6037 32.5026 44.7296 32.5427 44.838 32.5954C44.9448 32.6481 45.029 32.7133 45.0907 32.7911C45.1524 32.8681 45.1832 32.9556 45.1832 33.0536C45.1832 33.1096 45.1716 33.1655 45.1482 33.2214C45.1249 33.2765 45.0923 33.33 45.0507 33.3818C45.009 33.4329 44.9589 33.4811 44.9006 33.5265C44.8422 33.5718 44.7772 33.6116 44.7055 33.6456L44.3503 33.5386C44.3236 33.5297 44.3019 33.518 44.2852 33.5034C44.2669 33.4888 44.2577 33.4734 44.2577 33.4572C44.2577 33.4353 44.2744 33.4122 44.3077 33.3879C44.3411 33.3636 44.3778 33.3356 44.4178 33.304C44.4578 33.2724 44.4945 33.236 44.5279 33.1946C44.5612 33.1525 44.5779 33.1023 44.5779 33.0439C44.5779 32.9588 44.5379 32.8932 44.4578 32.847C44.3778 32.8 44.2585 32.7765 44.1001 32.7765C44.0084 32.7765 43.9342 32.7883 43.8775 32.8118C43.8208 32.8345 43.7733 32.8644 43.7349 32.9017C43.6966 32.939 43.664 32.9815 43.6374 33.0293C43.609 33.0771 43.5782 33.1262 43.5448 33.1764C43.5114 33.2267 43.4714 33.2757 43.4247 33.3235C43.378 33.3713 43.3163 33.4138 43.2396 33.4511C43.1629 33.4884 43.0679 33.5188 42.9545 33.5423C42.8411 33.565 42.7002 33.5763 42.5317 33.5763C42.3967 33.5763 42.2657 33.5633 42.139 33.5374C42.0123 33.5115 41.8997 33.4734 41.8013 33.4232C41.7029 33.3729 41.6237 33.3113 41.5637 33.2384C41.5036 33.1647 41.4736 33.0804 41.4736 32.9856C41.4736 32.8794 41.5078 32.7814 41.5762 32.6914C41.6429 32.6007 41.7363 32.5241 41.8563 32.4617L42.209 32.5517Z" fill="white"/>
<path d="M43.3272 29.8871C43.5923 29.8871 43.8383 29.909 44.0651 29.9527C44.2919 29.9957 44.4878 30.0569 44.6529 30.1363C44.818 30.2149 44.9481 30.3097 45.0431 30.4207C45.1365 30.5317 45.1832 30.6549 45.1832 30.7902C45.1832 30.9255 45.1365 31.0487 45.0431 31.1597C44.9481 31.2707 44.818 31.3659 44.6529 31.4454C44.4878 31.5248 44.2919 31.5863 44.0651 31.6301C43.8383 31.6731 43.5923 31.6945 43.3272 31.6945C43.062 31.6945 42.8169 31.6731 42.5918 31.6301C42.365 31.5863 42.169 31.5248 42.0039 31.4454C41.8388 31.3659 41.7096 31.2707 41.6162 31.1597C41.5212 31.0487 41.4736 30.9255 41.4736 30.7902C41.4736 30.6549 41.5212 30.5317 41.6162 30.4207C41.7096 30.3097 41.8397 30.2149 42.0064 30.1363C42.1715 30.0569 42.3675 29.9957 42.5943 29.9527C42.8194 29.909 43.0637 29.8871 43.3272 29.8871ZM43.3272 30.2603C43.1371 30.2603 42.967 30.2724 42.8169 30.2967C42.6651 30.321 42.5367 30.3563 42.4317 30.4025C42.3249 30.4478 42.2441 30.5034 42.189 30.569C42.1323 30.6338 42.104 30.7076 42.104 30.7902C42.104 30.8729 42.1323 30.947 42.189 31.0126C42.2441 31.0783 42.3249 31.1342 42.4317 31.1804C42.5367 31.2258 42.6651 31.2606 42.8169 31.2849C42.967 31.3092 43.1371 31.3214 43.3272 31.3214C43.519 31.3214 43.6907 31.3092 43.8425 31.2849C43.9926 31.2606 44.1201 31.2258 44.2252 31.1804C44.3302 31.1342 44.4111 31.0783 44.4678 31.0126C44.5229 30.947 44.5504 30.8729 44.5504 30.7902C44.5504 30.7076 44.5229 30.6338 44.4678 30.569C44.4111 30.5034 44.3302 30.4478 44.2252 30.4025C44.1201 30.3563 43.9926 30.321 43.8425 30.2967C43.6907 30.2724 43.519 30.2603 43.3272 30.2603Z" fill="white"/>
<path d="M42.1015 29.2537H43.1046V28.6192H43.6949V29.2537H45.1432V29.6208H41.5137V28.4977H42.1015V29.2537Z" fill="white"/>
<path d="M42.119 26.5516V27.067H45.1432V27.4329H42.119V27.9482H41.5137L41.5137 26.5516H42.119Z" fill="white"/>
<path d="M41.5137 24.822H45.1432V25.189H43.5798V25.9657H45.1432V26.3328H41.5137V25.9657H43.0545V25.189H41.5137V24.822Z" fill="white"/>
<path d="M42.1015 24.0855H43.0345V23.4972H43.6023V24.0855H44.5554V23.3295H45.1432V24.4526H41.5137V23.3295L42.1015 23.3295V24.0855Z" fill="white"/>
<path d="M44.5679 21.8028C44.5679 21.7444 44.5537 21.6966 44.5254 21.6594C44.4953 21.6213 44.4562 21.5909 44.4078 21.5682C44.3594 21.5455 44.3044 21.5297 44.2427 21.5208C44.1793 21.5119 44.1143 21.5074 44.0476 21.5074C43.9742 21.5074 43.9083 21.5127 43.85 21.5232C43.7916 21.5338 43.7424 21.5508 43.7024 21.5743C43.6607 21.5978 43.629 21.6286 43.6073 21.6667C43.5857 21.7039 43.5748 21.7501 43.5748 21.8052V22.1152H44.5679V21.8028ZM42.084 22.1152H43.0645V21.8757C43.0645 21.8247 43.0562 21.7793 43.0395 21.7396C43.0212 21.6999 42.9928 21.6667 42.9545 21.6399C42.9161 21.6132 42.8661 21.5929 42.8044 21.5791C42.741 21.5646 42.6651 21.5573 42.5768 21.5573C42.4867 21.5573 42.41 21.5633 42.3466 21.5755C42.2833 21.5868 42.2324 21.6047 42.194 21.629C42.1557 21.6533 42.1282 21.6841 42.1115 21.7213C42.0931 21.7586 42.084 21.8028 42.084 21.8538V22.1152ZM41.5136 21.8538C41.5136 21.7355 41.537 21.6346 41.5837 21.5512C41.6287 21.4669 41.6938 21.3984 41.7788 21.3458C41.8622 21.2923 41.9639 21.2534 42.084 21.2291C42.204 21.2048 42.3383 21.1926 42.4867 21.1926C42.5701 21.1926 42.6501 21.1987 42.7268 21.2108C42.8035 21.2222 42.8761 21.2404 42.9445 21.2655C43.0112 21.2899 43.072 21.3215 43.1271 21.3603C43.1821 21.3992 43.2288 21.4454 43.2671 21.4989C43.3255 21.379 43.4206 21.2903 43.5523 21.2327C43.684 21.1752 43.855 21.1464 44.0651 21.1464C44.2185 21.1464 44.3611 21.161 44.4928 21.1902C44.6246 21.2185 44.7388 21.2603 44.8355 21.3154C44.9323 21.3705 45.0081 21.4385 45.0632 21.5196C45.1165 21.5998 45.1432 21.6922 45.1432 21.7967V22.4798H41.5136V21.8538Z" fill="white"/>
<path d="M42.1015 20.5008H43.0345V19.9125H43.6023V20.5008H44.5554V19.7448H45.1432V20.8679H41.5136V19.7448H42.1015V20.5008Z" fill="white"/>
<path d="M43.7649 18.5409L42.6543 18.7317C42.5959 18.7431 42.5276 18.7552 42.4492 18.7682C42.3708 18.7803 42.2858 18.7921 42.194 18.8034C42.2874 18.8148 42.3741 18.8269 42.4542 18.8399C42.5326 18.8521 42.6009 18.8638 42.6593 18.8752L43.7649 19.0648V18.5409ZM45.1432 17.9283V18.2115C45.1432 18.2431 45.1282 18.269 45.0982 18.2893C45.0665 18.3087 45.0265 18.3233 44.9781 18.333L44.2852 18.4522L44.2852 19.1547L44.9781 19.2738C45.0198 19.2819 45.0582 19.2961 45.0932 19.3164C45.1265 19.3366 45.1432 19.3622 45.1432 19.393V19.6786L41.5136 18.9894V18.6163L45.1432 17.9283Z" fill="white"/>
<path d="M44.5429 17.0882C44.5429 17.029 44.5229 16.9759 44.4828 16.9289C44.4411 16.8819 44.3828 16.8422 44.3077 16.8098C44.2327 16.7774 44.1418 16.7527 44.0351 16.7357C43.9284 16.7187 43.8083 16.7101 43.6749 16.7101H41.5136V16.3455H43.6749C43.895 16.3455 44.0976 16.3629 44.2827 16.3978C44.4662 16.4318 44.6246 16.4808 44.758 16.5448C44.8914 16.6089 44.9956 16.6866 45.0707 16.7782C45.1457 16.8698 45.1832 16.9731 45.1832 17.0882C45.1832 17.2032 45.1457 17.307 45.0707 17.3993C44.9956 17.4909 44.8914 17.5687 44.758 17.6327C44.6246 17.6967 44.4662 17.7461 44.2827 17.781C44.0976 17.815 43.895 17.832 43.6749 17.832H41.5136V17.4674H43.6749C43.8083 17.4674 43.9284 17.4589 44.0351 17.4419C44.1418 17.4249 44.2327 17.4001 44.3077 17.3677C44.3828 17.3353 44.4411 17.2956 44.4828 17.2486C44.5229 17.2016 44.5429 17.1481 44.5429 17.0882Z" fill="white"/>
<path d="M42.119 14.7505V15.2659H45.1432V15.6317H42.119V16.1471H41.5136V14.7505H42.119Z" fill="white"/>
<path d="M45.1432 14.1646V14.5317H41.5136V14.1646H45.1432Z" fill="white"/>
<path d="M42.1015 13.4287H43.1046V12.7942H43.6949V13.4287H45.1432V13.7957H41.5136L41.5136 12.6726H42.1015V13.4287Z" fill="white"/>
<path d="M44.5429 11.6968C44.5429 11.6377 44.5229 11.5846 44.4828 11.5376C44.4411 11.4906 44.3828 11.4509 44.3077 11.4185C44.2327 11.3861 44.1418 11.3613 44.0351 11.3443C43.9284 11.3273 43.8083 11.3188 43.6749 11.3188H41.5136V10.9542H43.6749C43.895 10.9542 44.0976 10.9716 44.2827 11.0064C44.4662 11.0405 44.6246 11.0895 44.758 11.1535C44.8914 11.2175 44.9956 11.2953 45.0707 11.3869C45.1457 11.4784 45.1832 11.5818 45.1832 11.6968C45.1832 11.8119 45.1457 11.9156 45.0707 12.008C44.9956 12.0996 44.8914 12.1773 44.758 12.2414C44.6246 12.3054 44.4662 12.3548 44.2827 12.3896C44.0976 12.4237 43.895 12.4407 43.6749 12.4407H41.5136V12.076H43.6749C43.8083 12.076 43.9284 12.0675 44.0351 12.0505C44.1418 12.0335 44.2327 12.0088 44.3077 11.9764C44.3828 11.944 44.4411 11.9043 44.4828 11.8573C44.5229 11.8103 44.5429 11.7568 44.5429 11.6968Z" fill="white"/>
<path d="M44.5329 9.56092H45.1432V10.6075H41.5136V10.2428H44.5329V9.56092Z" fill="white"/>
<path d="M46.3587 0H44.1738L45.2663 1.56559L46.3587 0Z" fill="white"/>
<path d="M42.3427 1.78746H44.6952L43.519 0.101779L42.3427 1.78746Z" fill="white"/>
<path d="M42.1525 2.38395L43.5194 7.96398L44.8863 2.38395H42.1525Z" fill="white"/>
<path d="M42.8653 0H40.6804L41.7729 1.56559L42.8653 0Z" fill="white"/>
<path d="M45.4994 2.38395L44.2449 7.50513L48.5861 2.38395H45.4994Z" fill="white"/>
<path d="M48.2147 1.78835L46.8061 0.401701L45.8386 1.78835H48.2147Z" fill="white"/>
<path d="M40.2318 0.397491L38.8193 1.78787H41.202L40.2318 0.397491Z" fill="white"/>
<path d="M38.447 2.38395L42.795 7.51322L41.5386 2.38395H38.447Z" fill="white"/>
</svg>
