<svg width="35" height="42" viewBox="0 0 35 42" fill="none" xmlns="http://www.w3.org/2000/svg">
<path d="M33 17.5C33 29.5556 17.5 39.8889 17.5 39.8889C17.5 39.8889 2 29.5556 2 17.5C2 13.3891 3.63303 9.44666 6.53984 6.53984C9.44666 3.63303 13.3891 2 17.5 2C21.6109 2 25.5533 3.63303 28.4602 6.53984C31.367 9.44666 33 13.3891 33 17.5Z" stroke="#D400A6" stroke-width="4" stroke-linecap="round" stroke-linejoin="round"/>
<path d="M33 17.5C33 29.5556 17.5 39.8889 17.5 39.8889C17.5 39.8889 2 29.5556 2 17.5C2 13.3891 3.63303 9.44666 6.53984 6.53984C9.44666 3.63303 13.3891 2 17.5 2C21.6109 2 25.5533 3.63303 28.4602 6.53984C31.367 9.44666 33 13.3891 33 17.5Z" stroke="url(#paint0_linear)" stroke-width="4" stroke-linecap="round" stroke-linejoin="round"/>
<path d="M17.5007 22.6666C20.3541 22.6666 22.6673 20.3534 22.6673 17.4999C22.6673 14.6464 20.3541 12.3333 17.5007 12.3333C14.6472 12.3333 12.334 14.6464 12.334 17.4999C12.334 20.3534 14.6472 22.6666 17.5007 22.6666Z" stroke="#D400A6" stroke-width="4" stroke-linecap="round" stroke-linejoin="round"/>
<path d="M17.5007 22.6666C20.3541 22.6666 22.6673 20.3534 22.6673 17.4999C22.6673 14.6464 20.3541 12.3333 17.5007 12.3333C14.6472 12.3333 12.334 14.6464 12.334 17.4999C12.334 20.3534 14.6472 22.6666 17.5007 22.6666Z" stroke="url(#paint1_linear)" stroke-width="4" stroke-linecap="round" stroke-linejoin="round"/>
<defs>
<linearGradient id="paint0_linear" x1="3.16541" y1="2" x2="33" y2="2" gradientUnits="userSpaceOnUse">
<stop stop-color="#7000FF"/>
<stop offset="0.881919" stop-color="white" stop-opacity="0"/>
</linearGradient>
<linearGradient id="paint1_linear" x1="12.7225" y1="12.3333" x2="22.6673" y2="12.3333" gradientUnits="userSpaceOnUse">
<stop stop-color="#7000FF"/>
<stop offset="0.881919" stop-color="white" stop-opacity="0"/>
</linearGradient>
</defs>
</svg>
