<svg width="24" height="24" viewBox="0 0 24 24" fill="none" xmlns="http://www.w3.org/2000/svg">
<path d="M1.73148 15.7313C1.73148 16.2201 2.28533 16.5045 2.68256 16.2211L5.99059 13.8612C6.26804 13.6633 6.59487 13.5587 6.93574 13.5587H14.2112C15.4919 13.5587 16.5338 12.5168 16.5338 11.2362V3.60172C16.5338 3.26943 16.2644 3.00005 15.9321 3.00005H4.05401C2.77337 3.00005 1.73148 4.0419 1.73148 5.32258L1.73148 15.7313ZM2.93482 5.32258C2.93482 4.70542 3.43689 4.20339 4.05401 4.20339H15.3304V11.2362C15.3304 11.8533 14.8283 12.3554 14.2112 12.3554H6.9357C6.34285 12.3554 5.77439 12.5373 5.29177 12.8816L2.93482 14.563V5.32258Z" fill="#333333"/>
<path d="M22.2685 9.98951C22.2685 8.70867 21.2267 7.66666 19.9461 7.66666H18.3388C18.0065 7.66666 17.7371 7.93604 17.7371 8.26833C17.7371 8.60061 18.0065 8.87 18.3388 8.87H19.9461C20.5632 8.87 21.0652 9.37224 21.0652 9.98951V19.2297L18.7083 17.5485C18.2257 17.2042 17.6573 17.0223 17.0645 17.0223H9.78867C9.17155 17.0223 8.66956 16.52 8.66956 15.9027V15.3637C8.66956 15.0314 8.40017 14.762 8.06789 14.762C7.73561 14.762 7.46622 15.0314 7.46622 15.3637V15.9027C7.46622 17.1836 8.50807 18.2256 9.78867 18.2256H17.0645C17.4053 18.2256 17.7321 18.3302 18.0095 18.5281L21.3175 20.8878C21.7127 21.1699 22.2686 20.8884 22.2686 20.398V9.98951H22.2685Z" fill="#333333"/>
<path d="M6.05797 7.481H13.0094C13.3417 7.481 13.6111 7.21161 13.6111 6.87932C13.6111 6.54704 13.3417 6.27765 13.0094 6.27765H6.05797C5.72569 6.27765 5.4563 6.54704 5.4563 6.87932C5.4563 7.21161 5.72569 7.481 6.05797 7.481Z" fill="#333333"/>
<path d="M6.05797 10.2888H13.0094C13.3417 10.2888 13.6111 10.0194 13.6111 9.68717C13.6111 9.35488 13.3417 9.08549 13.0094 9.08549H6.05797C5.72569 9.08549 5.4563 9.35488 5.4563 9.68717C5.4563 10.0194 5.72569 10.2888 6.05797 10.2888Z" fill="#333333"/>
</svg>
