<svg width="24" height="24" viewBox="0 0 24 24" fill="none" xmlns="http://www.w3.org/2000/svg">
<path d="M12 6.44446C13.2273 6.44446 14.2222 5.44953 14.2222 4.22221C14.2222 2.9949 13.2273 1.99997 12 1.99997C10.7727 1.99997 9.77774 2.9949 9.77774 4.22221C9.77774 5.44953 10.7727 6.44446 12 6.44446Z" fill="#333333"/>
<path d="M12 14.2222C13.2273 14.2222 14.2222 13.2273 14.2222 12C14.2222 10.7726 13.2273 9.77771 12 9.77771C10.7727 9.77771 9.77774 10.7726 9.77774 12C9.77774 13.2273 10.7727 14.2222 12 14.2222Z" fill="#333333"/>
<path d="M12 22C13.2273 22 14.2222 21.0051 14.2222 19.7778C14.2222 18.5505 13.2273 17.5555 12 17.5555C10.7727 17.5555 9.77774 18.5505 9.77774 19.7778C9.77774 21.0051 10.7727 22 12 22Z" fill="#333333"/>
</svg>
