<svg width="24" height="24" viewBox="0 0 24 24" fill="none" xmlns="http://www.w3.org/2000/svg">
<path d="M21.8362 11.6366L19.4451 9.2455C19.2327 9.03298 18.8607 9.03298 18.6487 9.2455L18.3464 9.54761C18.1269 9.76712 18.1269 10.1193 18.3464 10.3387L19.2355 11.2224H12.7807V4.78029L13.6672 5.67997C13.8796 5.89216 14.2451 5.89216 14.457 5.67997L14.7562 5.37785C14.9758 5.15818 14.9739 4.80078 14.7544 4.58127L12.3596 2.18062C12.2539 2.07525 12.1121 2.01054 11.961 2.01054H11.9446C11.7937 2.01054 11.6524 2.07509 11.5469 2.18062L9.20185 4.52907C9.09567 4.63509 9.03713 4.77802 9.03713 4.92891C9.03713 5.07948 9.09567 5.22192 9.20185 5.32793L9.50396 5.63054C9.71632 5.84273 10.0979 5.84306 10.31 5.6307L11.2192 4.73102V11.2224H4.75665L5.65665 10.3278C5.76266 10.2218 5.8212 10.0827 5.8212 9.93216C5.8212 9.78159 5.76266 9.64111 5.65648 9.53541L5.35421 9.23379C5.14201 9.02176 4.76998 9.02241 4.55811 9.23411L2.16397 11.6283C2.05535 11.7369 1.9973 11.8821 2.00006 12.0315C1.9973 12.1866 2.05519 12.3318 2.1638 12.4403L4.50852 14.7855C4.72088 14.9977 5.09307 14.9977 5.3051 14.7855L5.60754 14.4831C5.7134 14.3774 5.77193 14.2357 5.77193 14.0852C5.77193 13.9341 5.7134 13.7912 5.60754 13.6853L4.70754 12.784H11.2191V19.2894L10.2705 18.3509C10.0586 18.1387 9.68152 18.1387 9.46965 18.3509L9.16478 18.6533C9.05892 18.759 8.99925 18.9006 8.99925 19.0513C8.99925 19.2019 9.05713 19.3434 9.16299 19.4494L11.5389 21.8257C11.6444 21.931 11.7856 21.9894 11.9414 21.9894C11.9423 21.9887 11.9511 21.9894 11.9524 21.9894C12.1033 21.9894 12.2448 21.9312 12.3505 21.8257L14.7418 19.4341C14.8475 19.3283 14.9062 19.1866 14.9062 19.0361C14.9062 18.8852 14.8477 18.7437 14.7418 18.6379L14.4394 18.3354C14.2274 18.1232 13.8685 18.1232 13.6563 18.3354L12.7807 19.2244V12.7839H19.3004L18.3615 13.7242C18.2553 13.8302 18.197 13.9726 18.197 14.1234C18.197 14.2741 18.2552 14.4157 18.3615 14.5218L18.664 14.8244C18.8758 15.0367 19.2482 15.0367 19.4601 14.8244L21.8362 12.4483C21.9448 12.34 22.0027 12.1944 21.9999 12.0452C22.0028 11.89 21.9448 11.745 21.8362 11.6366Z" fill="#333333"/>
</svg>
