<svg width="24" height="24" viewBox="0 0 24 24" fill="none" xmlns="http://www.w3.org/2000/svg">
<path fill-rule="evenodd" clip-rule="evenodd" d="M2 17.6818C2 19.0609 3.12091 20.1818 4.5 20.1818C4.87637 20.1818 5.18182 19.8764 5.18182 19.5C5.18182 19.1236 4.87637 18.8182 4.5 18.8182C3.87364 18.8182 3.36364 18.3082 3.36364 17.6818V3.5909C3.36364 2.96454 3.87364 2.45454 4.5 2.45454H14.9546C15.3309 2.45454 15.6364 2.14909 15.6364 1.77272C15.6364 1.39636 15.3309 1.0909 14.9546 1.0909H4.5C3.12091 1.0909 2 2.21181 2 3.5909V17.6818ZM19.5 22.9091H9.04545C7.66636 22.9091 6.54545 21.7882 6.54545 20.4091V6.31818C6.54545 4.93909 7.66636 3.81818 9.04545 3.81818H19.5C20.8791 3.81818 22 4.93909 22 6.31818V20.4091C22 21.7882 20.8791 22.9091 19.5 22.9091ZM9.04545 5.18182C8.41909 5.18182 7.90909 5.69182 7.90909 6.31818V20.4091C7.90909 21.0354 8.41909 21.5454 9.04545 21.5454H19.5C20.1264 21.5454 20.6364 21.0354 20.6364 20.4091V6.31818C20.6364 5.69182 20.1264 5.18182 19.5 5.18182H9.04545ZM13.1364 12.2273H9.95454C9.57818 12.2273 9.27273 11.9218 9.27273 11.5455V8.36364C9.27273 7.98728 9.57818 7.68182 9.95454 7.68182H13.1364C13.5127 7.68182 13.8182 7.98728 13.8182 8.36364V11.5455C13.8182 11.9218 13.5127 12.2273 13.1364 12.2273ZM10.6364 10.8636H12.4545V9.04546H10.6364V10.8636ZM16.0909 12H18.8182C19.1945 12 19.5 11.6945 19.5 11.3182C19.5 10.9418 19.1945 10.6364 18.8182 10.6364H16.0909C15.7145 10.6364 15.4091 10.9418 15.4091 11.3182C15.4091 11.6945 15.7145 12 16.0909 12ZM18.8182 9.27273H16.0909C15.7145 9.27273 15.4091 8.96727 15.4091 8.59091C15.4091 8.21455 15.7145 7.90909 16.0909 7.90909H18.8182C19.1945 7.90909 19.5 8.21455 19.5 8.59091C19.5 8.96727 19.1945 9.27273 18.8182 9.27273ZM9.95454 19.2727H18.5909C18.9673 19.2727 19.2727 18.9673 19.2727 18.5909C19.2727 18.2145 18.9673 17.9091 18.5909 17.9091H9.95454C9.57818 17.9091 9.27273 18.2145 9.27273 18.5909C9.27273 18.9673 9.57818 19.2727 9.95454 19.2727ZM18.5909 15.6364H9.95454C9.57818 15.6364 9.27273 15.3309 9.27273 14.9545C9.27273 14.5782 9.57818 14.2727 9.95454 14.2727H18.5909C18.9673 14.2727 19.2727 14.5782 19.2727 14.9545C19.2727 15.3309 18.9673 15.6364 18.5909 15.6364Z" fill="#333333"/>
</svg>
