<svg width="24" height="24" viewBox="0 0 24 24" fill="none" xmlns="http://www.w3.org/2000/svg">
<path d="M11.9668 20.3057H4.49168C4.0332 20.3057 3.66113 19.9335 3.66113 19.4751V4.52491C3.66113 4.06644 4.03324 3.69437 4.49168 3.69437H11.9668C12.4261 3.69437 12.7973 3.32312 12.7973 2.86382C12.7973 2.40452 12.4261 2.0332 11.9668 2.0332H4.49168C3.11793 2.0332 2 3.15116 2 4.52491V19.4751C2 20.8488 3.11793 21.9668 4.49168 21.9668H11.9668C12.4261 21.9668 12.7973 21.5955 12.7973 21.1362C12.7973 20.6769 12.4261 20.3057 11.9668 20.3057Z" fill="black"/>
<path d="M21.7525 11.4086L16.7027 6.42523C16.3771 6.10296 15.8505 6.10714 15.5282 6.43355C15.206 6.75996 15.2093 7.2857 15.5366 7.60796L19.1454 11.1694H9.47508C9.01578 11.1694 8.64453 11.5407 8.64453 12C8.64453 12.4593 9.01578 12.8305 9.47508 12.8305H19.1454L15.5366 16.392C15.2093 16.7143 15.2068 17.24 15.5282 17.5664C15.691 17.7309 15.9053 17.8139 16.1196 17.8139C16.3306 17.8139 16.5415 17.7342 16.7027 17.5747L21.7525 12.5913C21.9103 12.4352 22 12.2225 22 11.9999C22 11.7774 21.9111 11.5656 21.7525 11.4086Z" fill="black"/>
</svg>
