<svg width="24" height="24" viewBox="0 0 24 24" fill="none" xmlns="http://www.w3.org/2000/svg">
<g clip-path="url(#clip0)">
<path d="M12 4.59544C13.205 4.59544 14.1819 3.61859 14.1819 2.41362C14.1819 1.20865 13.205 0.231796 12 0.231796C10.7951 0.231796 9.81821 1.20865 9.81821 2.41362C9.81821 3.61859 10.795 4.59544 12 4.59544ZM12 1.32271C12.6025 1.32271 13.0909 1.81111 13.0909 2.41362C13.0909 3.01613 12.6025 3.50453 12 3.50453C11.3975 3.50453 10.9091 3.01613 10.9091 2.41362C10.9091 1.81111 11.3975 1.32271 12 1.32271Z" fill="#333333"/>
<path d="M12.7925 4.94936C12.7829 4.94951 12.7733 4.94978 12.7637 4.95004H11.2364C9.59524 4.90457 8.22797 6.19818 8.1825 7.83934C8.18224 7.84895 8.18203 7.85861 8.18182 7.86821V8.30456C8.18182 8.60457 8.48183 8.76822 8.78183 8.76822H15.2182C15.5182 8.76822 15.8182 8.60457 15.8182 8.30456V7.86821C15.7887 6.22668 14.434 4.91986 12.7925 4.94936ZM9.32729 7.67726C9.38184 6.8591 10.2273 6.04089 11.2364 6.04089H12.7636C13.7727 6.04089 14.6182 6.85905 14.6727 7.67726H9.32729Z" fill="#333333"/>
<path d="M3.13638 14.0863C3.43763 14.0863 3.68183 13.8421 3.68183 13.5409C3.68011 11.0177 4.82374 8.63006 6.79091 7.04997C7.00672 6.83975 7.01121 6.49444 6.80099 6.27863C6.61813 6.09092 6.32757 6.05981 6.10911 6.20451C3.88182 7.98777 2.58706 10.6876 2.59092 13.5409C2.59092 13.8421 2.83512 14.0863 3.13638 14.0863Z" fill="#333333"/>
<path d="M14.6583 21.418C14.654 21.4195 14.6497 21.4211 14.6455 21.4227C12.9375 21.9944 11.0898 21.9944 9.38181 21.4227C9.09574 21.3335 8.7913 21.4919 8.7 21.7772C8.59638 22.044 8.72866 22.3443 8.99541 22.4479C9.0059 22.4519 9.0165 22.4557 9.02725 22.459C10.9644 23.1137 13.0629 23.1137 15 22.459C15.2891 22.3559 15.4455 22.0432 15.3545 21.7499C15.254 21.4661 14.9422 21.3174 14.6583 21.418Z" fill="#333333"/>
<path d="M16.8 6.75001C19.0091 8.30526 20.322 10.8393 20.3182 13.5409C20.3182 13.8422 20.5624 14.0864 20.8636 14.0864C21.1649 14.0864 21.4091 13.8422 21.4091 13.5409C21.4015 10.4847 19.9185 7.62032 17.4273 5.85C17.1787 5.67679 16.8369 5.73782 16.6636 5.98635C16.4904 6.23488 16.5515 6.5768 16.8 6.75001Z" fill="#333333"/>
<path d="M3.81818 19.5954C5.02315 19.5954 6.00001 18.6185 6.00001 17.4136C6.00001 16.2086 5.02315 15.2318 3.81818 15.2318C2.61321 15.2318 1.63635 16.2086 1.63635 17.4136C1.63635 18.6186 2.61321 19.5954 3.81818 19.5954ZM3.81818 16.3227C4.42069 16.3227 4.90909 16.8111 4.90909 17.4136C4.90909 18.0161 4.42069 18.5045 3.81818 18.5045C3.21567 18.5045 2.72727 18.0161 2.72727 17.4136C2.72727 16.8111 3.21567 16.3227 3.81818 16.3227Z" fill="#333333"/>
<path d="M4.61071 19.9493C4.60105 19.9495 4.59145 19.9497 4.58184 19.95H3.05453C1.41335 19.9045 0.0460853 21.1982 0.000617588 22.8393C0.000356579 22.8489 0.000147772 22.8586 -6.10352e-05 22.8682V23.3045C-6.10352e-05 23.6046 0.299942 23.7682 0.599946 23.7682H7.03632C7.33632 23.7682 7.63633 23.6046 7.63633 23.3045V22.8682C7.60688 21.2267 6.25225 19.9198 4.61071 19.9493ZM1.14545 22.6772C1.20001 21.8591 2.04546 21.0409 3.05453 21.0409H4.58179C5.5909 21.0409 6.43636 21.859 6.49086 22.6772H1.14545Z" fill="#333333"/>
<path d="M18 17.4136C18 18.6185 18.9769 19.5954 20.1818 19.5954C21.3868 19.5954 22.3636 18.6185 22.3636 17.4136C22.3636 16.2086 21.3868 15.2318 20.1818 15.2318C18.9769 15.2318 18 16.2086 18 17.4136ZM21.2727 17.4136C21.2727 18.0161 20.7843 18.5045 20.1818 18.5045C19.5793 18.5045 19.0909 18.0161 19.0909 17.4136C19.0909 16.8111 19.5793 16.3227 20.1818 16.3227C20.7843 16.3227 21.2727 16.8111 21.2727 17.4136Z" fill="#333333"/>
<path d="M20.9743 19.9493C20.9647 19.9495 20.9551 19.9497 20.9455 19.95H19.4182C17.777 19.9045 16.4098 21.1982 16.3643 22.8393C16.364 22.8489 16.3638 22.8586 16.3636 22.8682V23.3045C16.3636 23.6046 16.6636 23.7682 16.9636 23.7682H23.4C23.7 23.7682 24 23.6046 24 23.3045V22.8682C23.9705 21.2267 22.6159 19.9198 20.9743 19.9493ZM17.5091 22.6772C17.5636 21.8591 18.4091 21.0409 19.4181 21.0409H20.9454C21.9545 21.0409 22.8 21.859 22.8545 22.6772H17.5091Z" fill="#333333"/>
</g>
<defs>
<clipPath id="clip0">
<rect width="24" height="24" fill="white"/>
</clipPath>
</defs>
</svg>
