<svg width="24" height="24" viewBox="0 0 24 24" fill="none" xmlns="http://www.w3.org/2000/svg">
<path d="M15.9224 12.032C15.5765 11.8675 15.2235 11.7259 14.8644 11.6072C16.0275 10.7342 16.7812 9.34412 16.7812 7.78125C16.7812 5.14488 14.6364 3 12 3C9.36358 3 7.21873 5.14488 7.21873 7.78125C7.21873 9.34584 7.97417 10.7373 9.13942 11.6102C8.0718 11.9616 7.07002 12.5086 6.19323 13.2298C4.58546 14.5522 3.4676 16.3969 3.04562 18.4239C2.91336 19.059 3.07181 19.7113 3.48026 20.2136C3.8867 20.7134 4.48938 21 5.13372 21H13.7929C14.1813 21 14.4961 20.6852 14.4961 20.2969C14.4961 19.9085 14.1813 19.5938 13.7929 19.5938H5.13372C4.83356 19.5938 4.65247 19.4262 4.57126 19.3264C4.43102 19.1539 4.37674 18.9294 4.42234 18.7104C5.152 15.2055 8.2435 12.6453 11.8136 12.5589C11.8754 12.5613 11.9375 12.5625 12 12.5625C12.063 12.5625 12.1258 12.5613 12.1882 12.5588C13.2823 12.5845 14.3345 12.8342 15.3187 13.302C15.6694 13.4687 16.0888 13.3196 16.2555 12.9688C16.4222 12.6181 16.2731 12.1987 15.9224 12.032ZM12.1715 11.1519C12.1144 11.1509 12.0573 11.1504 12 11.1504C11.9432 11.1504 11.8865 11.1509 11.8298 11.152C10.0476 11.0631 8.62498 9.58519 8.62498 7.78125C8.62498 5.92025 10.139 4.40625 12 4.40625C13.861 4.40625 15.375 5.92025 15.375 7.78125C15.375 9.58473 13.9531 11.0623 12.1715 11.1519Z" fill="#333333"/>
<path d="M20.2969 16.957H18.3633V15.0234C18.3633 14.6351 18.0485 14.3203 17.6602 14.3203C17.2719 14.3203 16.9571 14.6351 16.9571 15.0234V16.957H15.0235C14.6351 16.957 14.3203 17.2718 14.3203 17.6601C14.3203 18.0485 14.6351 18.3633 15.0235 18.3633H16.9571V20.2969C16.9571 20.6852 17.2719 21 17.6602 21C18.0485 21 18.3633 20.6852 18.3633 20.2969V18.3633H20.2969C20.6852 18.3633 21 18.0485 21 17.6601C21 17.2718 20.6852 16.957 20.2969 16.957Z" fill="#333333"/>
</svg>
