<svg width="24" height="24" viewBox="0 0 24 24" fill="none" xmlns="http://www.w3.org/2000/svg">
<path d="M3.54931 18.2536H3.66199L9.09863 17.0705C9.20452 17.0529 9.30265 17.0038 9.38029 16.9297L18.5915 7.71836C19.2644 7.04693 19.6398 6.13368 19.6338 5.18317C19.635 4.22528 19.2608 3.30507 18.5915 2.61978C17.9201 1.94689 17.0069 1.57147 16.0563 1.57756C15.0997 1.56909 14.1822 1.95649 13.5211 2.64798L4.33801 11.8592C4.25703 11.9244 4.19799 12.0129 4.16898 12.1127L2.98593 17.5494C2.95363 17.7446 3.01639 17.9434 3.15496 18.0846C3.25896 18.1907 3.40071 18.2515 3.54931 18.2536ZM16.0563 2.70432C17.4098 2.70422 18.5071 3.80138 18.5072 5.15486C18.5072 5.1643 18.5071 5.17374 18.507 5.18317C18.5162 5.82797 18.2619 6.44861 17.8028 6.90146L14.338 3.40848C14.7945 2.95488 15.4128 2.70147 16.0563 2.70432ZM13.5493 4.22544L17.0141 7.69022L8.98589 15.6902L5.52111 12.2536L13.5493 4.22544ZM5.07042 13.3804L7.85913 16.1691L4.28167 16.9578L5.07042 13.3804Z" fill="#232323"/>
<path d="M21.4366 21.2958H2.56338C2.25222 21.2958 2 21.5481 2 21.8592C2 22.1704 2.25222 22.4226 2.56338 22.4226H21.4366C21.7478 22.4226 22 22.1704 22 21.8592C22 21.5481 21.7478 21.2958 21.4366 21.2958Z" fill="#232323"/>
</svg>
