<svg width="24" height="24" viewBox="0 0 24 24" fill="none" xmlns="http://www.w3.org/2000/svg">
<path d="M6 10C4.89719 10 4 10.8972 4 12C4 13.1028 4.89719 14 6 14C7.10281 14 8 13.1028 8 12C8 10.8972 7.10281 10 6 10ZM6 12.9127C5.49678 12.9127 5.08734 12.5033 5.08734 12C5.08734 11.4967 5.49678 11.0873 6 11.0873C6.50322 11.0873 6.91266 11.4967 6.91266 12C6.91266 12.5033 6.50322 12.9127 6 12.9127Z" fill="#333333"/>
<path d="M9.99998 15C8.89719 15 8 15.8972 8 17C8 18.1028 8.89719 19 9.99998 19C11.1028 19 12 18.1028 12 17C12 15.8972 11.1028 15 9.99998 15ZM9.99998 17.9127C9.49676 17.9127 9.08735 17.5032 9.08735 17C9.08735 16.4967 9.49676 16.0873 9.99998 16.0873C10.5032 16.0873 10.9127 16.4967 10.9127 17C10.9127 17.5032 10.5032 17.9127 9.99998 17.9127Z" fill="#333333"/>
<path d="M21.458 14.8649C21.4542 14.8608 21.4503 14.8569 21.4463 14.8529L19.4095 12.8383C20.5497 11.9346 21.0648 10.335 20.5964 8.85523C18.3882 1.87191 9.90283 -0.34357 4.8468 4.87619C1.06009 8.78551 1.09542 15.0889 4.68821 18.9706C7.91585 22.4577 13.0017 22.9474 16.7553 20.3719C18.5131 19.1661 17.705 16.2961 15.6015 16.2961C14.0306 16.2961 13.7666 13.9936 15.2505 13.5994L18.8389 17.5857C18.8426 17.5898 18.8464 17.5939 18.8503 17.598C19.5696 18.3537 20.7381 18.3558 21.4593 17.5997C22.1804 16.8439 22.1804 15.6204 21.458 14.8649ZM13.858 16.8012C14.3306 17.2706 14.9498 17.5291 15.6016 17.5291C16.541 17.5291 16.8952 18.8023 16.1111 19.3401C12.8258 21.5944 8.36385 21.1709 5.53252 18.1119C2.35691 14.6811 2.37562 9.17508 5.68531 5.76257C10.1203 1.18979 17.5382 3.10289 19.4798 9.24336C19.8088 10.2827 19.3977 11.412 18.5354 11.9736L15.2682 8.74186C15.466 7.74634 15.192 6.69684 14.4742 5.94447C13.5733 5.00009 10.7351 4.52937 9.50515 4.38932C9.13209 4.34674 8.81621 4.67732 8.8568 5.06894C8.9915 6.36326 9.43793 9.33153 10.3404 10.2776C11.0587 11.0304 12.0604 11.317 13.0094 11.1097L14.3857 12.6386C12.9202 13.4725 12.6226 15.574 13.858 16.8012ZM11.1722 9.40565C10.729 8.94102 10.333 7.17389 10.1239 5.71744C11.5133 5.93658 13.1992 6.35175 13.6424 6.81638C14.3249 7.5318 14.325 8.69002 13.6424 9.40565C12.9614 10.1195 11.8562 10.1226 11.1722 9.40565ZM20.6275 16.7278C20.3683 16.9995 19.9488 17.0008 19.6881 16.7322C19.387 16.3977 14.4222 10.8824 14.1456 10.5751C14.3777 10.3945 14.5857 10.1764 14.7582 9.93292L20.6321 15.7431C20.8886 16.0167 20.8871 16.4556 20.6275 16.7278Z" fill="#333333"/>
</svg>
