<svg width="24" height="24" viewBox="0 0 24 24" fill="none" xmlns="http://www.w3.org/2000/svg">
<path d="M19.6562 3.5625H18.7188V2H17.1562V3.5625H6.84375V2H5.28125V3.5625H4.34375C3.05141 3.5625 2 4.61391 2 5.90625V19.6562C2 20.9486 3.05141 22 4.34375 22H19.6562C20.9486 22 22 20.9486 22 19.6562V5.90625C22 4.61391 20.9486 3.5625 19.6562 3.5625ZM20.4375 19.6562C20.4375 20.087 20.087 20.4375 19.6562 20.4375H4.34375C3.91297 20.4375 3.5625 20.087 3.5625 19.6562V9.34375H20.4375V19.6562ZM20.4375 7.78125H3.5625V5.90625C3.5625 5.47547 3.91297 5.125 4.34375 5.125H5.28125V6.6875H6.84375V5.125H17.1562V6.6875H18.7188V5.125H19.6562C20.087 5.125 20.4375 5.47547 20.4375 5.90625V7.78125Z" fill="#333333"/>
<path d="M6.53125 10.9844H4.96875V12.5469H6.53125V10.9844Z" fill="#333333"/>
<path d="M9.65625 10.9844H8.09375V12.5469H9.65625V10.9844Z" fill="#333333"/>
<path d="M12.7812 10.9844H11.2188V12.5469H12.7812V10.9844Z" fill="#333333"/>
<path d="M15.9062 10.9844H14.3438V12.5469H15.9062V10.9844Z" fill="#333333"/>
<path d="M19.0312 10.9844H17.4688V12.5469H19.0312V10.9844Z" fill="#333333"/>
<path d="M6.53125 14.1094H4.96875V15.6719H6.53125V14.1094Z" fill="#333333"/>
<path d="M9.65625 14.1094H8.09375V15.6719H9.65625V14.1094Z" fill="#333333"/>
<path d="M12.7812 14.1094H11.2188V15.6719H12.7812V14.1094Z" fill="#333333"/>
<path d="M15.9062 14.1094H14.3438V15.6719H15.9062V14.1094Z" fill="#333333"/>
<path d="M6.53125 17.2344H4.96875V18.7969H6.53125V17.2344Z" fill="#333333"/>
<path d="M9.65625 17.2344H8.09375V18.7969H9.65625V17.2344Z" fill="#333333"/>
<path d="M12.7812 17.2344H11.2188V18.7969H12.7812V17.2344Z" fill="#333333"/>
<path d="M15.9062 17.2344H14.3438V18.7969H15.9062V17.2344Z" fill="#333333"/>
<path d="M19.0312 14.1094H17.4688V15.6719H19.0312V14.1094Z" fill="#333333"/>
</svg>
