<svg width="24" height="24" viewBox="0 0 24 24" fill="none" xmlns="http://www.w3.org/2000/svg">
<path d="M12.1283 9.42256C11.0016 9.42256 10.0882 10.3359 10.0882 11.4627C10.0882 12.5894 11.0016 13.5028 12.1283 13.5028C13.255 13.5028 14.1684 12.5894 14.1684 11.4627C14.1684 10.3359 13.2551 9.42256 12.1283 9.42256ZM12.1283 12.5313C11.5381 12.5313 11.0597 12.0528 11.0597 11.4626C11.0597 10.8724 11.5381 10.394 12.1283 10.394C12.7185 10.394 13.1969 10.8724 13.1969 11.4626C13.1969 12.0528 12.7185 12.5313 12.1283 12.5313Z" fill="#333333"/>
<path d="M20.2644 4.7594L7.00384 3.25366C6.48919 3.18049 5.96775 3.33074 5.57094 3.66655C5.17418 3.9742 4.91985 4.43023 4.86663 4.92945L4.62378 6.92098H3.87084C2.80221 6.92098 2.00073 7.86814 2.00073 8.93677V18.87C1.97382 19.8891 2.77808 20.737 3.79716 20.7639C3.8217 20.7646 3.84629 20.7647 3.87084 20.7644H17.2043C18.2729 20.7644 19.2444 19.9387 19.2444 18.87V18.4815C19.5757 18.4174 19.89 18.2851 20.1673 18.0929C20.5608 17.7616 20.8128 17.2924 20.8716 16.7814L21.9888 6.92098C22.1027 5.84988 21.3341 4.88636 20.2644 4.7594ZM18.2729 18.87C18.2729 19.4044 17.7386 19.7929 17.2043 19.7929H3.87084C3.38817 19.8071 2.98541 19.4273 2.97123 18.9447C2.97049 18.9198 2.97081 18.8949 2.97221 18.87V17.0728L6.73669 14.3041C7.18891 13.9569 7.82586 13.9878 8.24248 14.377L10.8897 16.7085C11.2918 17.0461 11.7978 17.2347 12.3227 17.2428C12.7331 17.2478 13.1367 17.1386 13.4885 16.9271L18.273 14.1584V18.87H18.2729ZM18.2729 13.0169L12.9784 16.1014C12.5237 16.3707 11.9483 16.3219 11.5454 15.9799L8.8739 13.6241C8.10822 12.9662 6.98911 12.9258 6.17806 13.5269L2.97221 15.8585V8.93677C2.97221 8.40245 3.33652 7.89245 3.87084 7.89245H17.2043C17.7751 7.91611 18.2361 8.36666 18.2729 8.93677V13.0169ZM21.0183 6.78984C21.0179 6.79305 21.0177 6.7963 21.0173 6.79951L19.8758 16.6599C19.8778 16.9156 19.7612 17.1578 19.5601 17.3157C19.4629 17.4128 19.2443 17.4614 19.2443 17.51V8.93677C19.206 7.83035 18.311 6.94603 17.2042 6.92098H5.59521L5.81379 5.02661C5.86121 4.7813 5.98946 4.559 6.1781 4.39514C6.39111 4.24787 6.64864 4.17921 6.90673 4.20082L20.1431 5.73088C20.6771 5.78159 21.069 6.25571 21.0183 6.78984Z" fill="#333333"/>
</svg>
