<svg width="24" height="24" viewBox="0 0 24 24" fill="none" xmlns="http://www.w3.org/2000/svg">
<path d="M12 22C9.32891 22 6.81766 20.9598 4.92891 19.0711C3.04016 17.1823 2 14.6711 2 12C2 9.32891 3.0402 6.8177 4.92891 4.92891C6.81762 3.04012 9.32891 2 12 2C14.6711 2 17.1823 3.04016 19.0711 4.92891C20.9598 6.81766 22 9.32891 22 12C22 14.6711 20.9598 17.1823 19.0711 19.0711C17.1824 20.9599 14.6711 22 12 22ZM12 3.25C7.17523 3.25 3.25 7.17523 3.25 12C3.25 16.8248 7.17523 20.75 12 20.75C16.8248 20.75 20.75 16.8248 20.75 12C20.75 7.17523 16.8248 3.25 12 3.25Z" fill="#333333"/>
<path d="M12 11.375C11.1384 11.375 10.4375 10.6741 10.4375 9.8125C10.4375 8.95094 11.1384 8.25 12 8.25C12.8616 8.25 13.5625 8.95094 13.5625 9.8125C13.5625 10.1577 13.8423 10.4375 14.1875 10.4375C14.5327 10.4375 14.8125 10.1577 14.8125 9.8125C14.8125 8.47652 13.8759 7.35594 12.625 7.07086V6.375C12.625 6.02984 12.3452 5.75 12 5.75C11.6548 5.75 11.375 6.02984 11.375 6.375V7.07086C10.1241 7.35594 9.1875 8.47652 9.1875 9.8125C9.1875 11.3633 10.4492 12.625 12 12.625C12.8616 12.625 13.5625 13.3259 13.5625 14.1875C13.5625 15.0491 12.8616 15.75 12 15.75C11.1384 15.75 10.4375 15.0491 10.4375 14.1875C10.4375 13.8423 10.1577 13.5625 9.8125 13.5625C9.4673 13.5625 9.1875 13.8423 9.1875 14.1875C9.1875 15.5235 10.1241 16.6441 11.375 16.9291V17.625C11.375 17.9702 11.6548 18.25 12 18.25C12.3452 18.25 12.625 17.9702 12.625 17.625V16.9291C13.8759 16.6441 14.8125 15.5235 14.8125 14.1875C14.8125 12.6367 13.5508 11.375 12 11.375Z" fill="#333333"/>
</svg>
