<svg width="24" height="24" viewBox="0 0 24 24" fill="none" xmlns="http://www.w3.org/2000/svg">
<path d="M12 5.99999C8.15374 5.99999 4.66575 8.10432 2.09196 11.5223C1.88194 11.8023 1.88194 12.1935 2.09196 12.4736C4.66575 15.8957 8.15374 18 12 18C15.8463 18 19.3343 15.8957 21.908 12.4777C22.1181 12.1977 22.1181 11.8064 21.908 11.5264C19.3343 8.10432 15.8463 5.99999 12 5.99999ZM12.2759 16.2251C9.72272 16.3857 7.61428 14.2814 7.77488 11.7241C7.90666 9.61564 9.61565 7.90665 11.7241 7.77487C14.2773 7.61427 16.3857 9.71859 16.2251 12.2759C16.0892 14.3802 14.3802 16.0892 12.2759 16.2251ZM12.1483 14.2732C10.7728 14.3596 9.63624 13.2272 9.72684 11.8517C9.79685 10.7152 10.7193 9.79684 11.8559 9.72271C13.2313 9.63623 14.3679 10.7687 14.2773 12.1441C14.2032 13.2848 13.2807 14.2032 12.1483 14.2732Z" fill="#232323"/>
</svg>
