<svg width="24" height="24" viewBox="0 0 24 24" fill="none" xmlns="http://www.w3.org/2000/svg">
<g clip-path="url(#clip0)">
<path d="M11.9985 7.49988L11.9963 12.747C11.9963 12.9462 12.0754 13.1366 12.2161 13.2772L15.9697 17.0302L17.0303 15.9696L13.4963 12.4364L13.4985 7.49988H11.9985Z" fill="#333333"/>
<path d="M13.5 1.49988C8.22083 1.49988 3.85164 5.42054 3.11987 10.4999H0L3.75 14.2499L7.49999 10.4999H4.63548C5.353 6.25019 9.04917 2.99989 13.5 2.99989C18.4629 2.99989 22.5 7.037 22.5 11.9999C22.5 16.9628 18.4629 20.9999 13.5 20.9999C10.7102 20.9999 8.12332 19.7372 6.40283 17.5355L5.22071 18.4584C7.22752 21.0263 10.2451 22.4999 13.5 22.4999C19.2898 22.4999 24 17.7889 24 11.9999C24 6.21087 19.2898 1.49992 13.5 1.49988Z" fill="#333333"/>
</g>
<defs>
<clipPath id="clip0">
<rect width="24" height="24" fill="white"/>
</clipPath>
</defs>
</svg>
