<svg width="24" height="24" viewBox="0 0 24 24" fill="none" xmlns="http://www.w3.org/2000/svg">
<path d="M18.422 2H5.57797C3.60508 2 2 3.60508 2 5.57797V18.4221C2 20.3949 3.60508 22 5.57797 22H18.4221C20.3949 22 22 20.3949 22 18.422V5.57797C22 3.60508 20.3949 2 18.422 2ZM20.8281 18.422C20.8281 19.7487 19.7487 20.8281 18.422 20.8281H5.57797C4.25125 20.8281 3.17188 19.7487 3.17188 18.422V5.57797C3.17188 4.25125 4.25125 3.17188 5.57797 3.17188H18.4221C19.7488 3.17188 20.8281 4.25125 20.8281 5.57797V18.422Z" fill="#333333"/>
<path d="M18.9036 6.39327H9.97937C9.73401 5.66456 9.04476 5.13808 8.23437 5.13808C7.42398 5.13808 6.73472 5.66456 6.48937 6.39327H5.09636C4.77277 6.39327 4.51042 6.65562 4.51042 6.97921C4.51042 7.3028 4.77277 7.56515 5.09636 7.56515H6.48941C6.73476 8.29386 7.42402 8.82034 8.23441 8.82034C9.0448 8.82034 9.73405 8.29386 9.97941 7.56515H18.9037C19.2273 7.56515 19.4896 7.3028 19.4896 6.97921C19.4896 6.65562 19.2273 6.39327 18.9036 6.39327ZM8.23437 7.64847C7.86534 7.64847 7.56511 7.34823 7.56511 6.97921C7.56511 6.61019 7.86534 6.30995 8.23437 6.30995C8.60339 6.30995 8.90362 6.61019 8.90362 6.97921C8.90362 7.34823 8.60339 7.64847 8.23437 7.64847Z" fill="#333333"/>
<path d="M18.9036 11.4141H17.5106C17.2652 10.6854 16.5759 10.1589 15.7656 10.1589C14.9552 10.1589 14.266 10.6854 14.0206 11.4141H5.09636C4.77277 11.4141 4.51042 11.6764 4.51042 12C4.51042 12.3236 4.77277 12.5859 5.09636 12.5859H14.0206C14.266 13.3147 14.9553 13.8411 15.7656 13.8411C16.576 13.8411 17.2653 13.3147 17.5106 12.5859H18.9037C19.2273 12.5859 19.4896 12.3236 19.4896 12C19.4896 11.6764 19.2273 11.4141 18.9036 11.4141ZM15.7656 12.6693C15.3966 12.6693 15.0964 12.369 15.0964 12C15.0964 11.631 15.3966 11.3307 15.7656 11.3307C16.1346 11.3307 16.4349 11.631 16.4349 12C16.4349 12.369 16.1346 12.6693 15.7656 12.6693Z" fill="#333333"/>
<path d="M18.9036 16.4349H12.4898C12.2444 15.7062 11.5552 15.1797 10.7448 15.1797C9.93441 15.1797 9.24515 15.7062 8.9998 16.4349H5.09636C4.77277 16.4349 4.51042 16.6972 4.51042 17.0208C4.51042 17.3444 4.77277 17.6068 5.09636 17.6068H8.9998C9.24515 18.3355 9.93441 18.8619 10.7448 18.8619C11.5552 18.8619 12.2444 18.3355 12.4898 17.6068H18.9037C19.2273 17.6068 19.4896 17.3444 19.4896 17.0208C19.4896 16.6972 19.2273 16.4349 18.9036 16.4349ZM10.7448 17.6901C10.3758 17.6901 10.0755 17.3899 10.0755 17.0209C10.0755 16.6518 10.3758 16.3516 10.7448 16.3516C11.1138 16.3516 11.4141 16.6518 11.4141 17.0208C11.4141 17.3898 11.1138 17.6901 10.7448 17.6901Z" fill="#333333"/>
</svg>
