<svg width="24" height="24" viewBox="0 0 24 24" fill="none" xmlns="http://www.w3.org/2000/svg">
<path d="M18.9457 12.8223C18.6054 12.8223 18.3297 13.0981 18.3297 13.4383V19.768H14.9315V13.4383C14.9315 13.0981 14.6557 12.8223 14.3154 12.8223H9.68472C9.34443 12.8223 9.0687 13.0981 9.0687 13.4383V19.768H5.67017V13.4383C5.67017 13.0981 5.39444 12.8223 5.05415 12.8223C4.71386 12.8223 4.43813 13.0981 4.43813 13.4383V20.384C4.43813 20.7242 4.71386 21 5.05415 21H9.68472H14.3154H18.9457C19.286 21 19.5617 20.7242 19.5617 20.384V13.4383C19.5617 13.0981 19.2859 12.8223 18.9457 12.8223ZM10.3007 19.768V14.0543H13.6994V19.768H10.3007Z" fill="#333333"/>
<path d="M22.2582 13.0026L12.4351 3.18031C12.1946 2.93973 11.8046 2.93982 11.5639 3.18031L1.74171 13.0026C1.50114 13.2432 1.50114 13.6332 1.74171 13.8737C1.98237 14.1143 2.37235 14.1143 2.61293 13.8737L11.9996 4.48709L21.3871 13.8738C21.5074 13.9941 21.6651 14.0542 21.8227 14.0542C21.9803 14.0542 22.138 13.9941 22.2583 13.8737C22.4988 13.6332 22.4988 13.2432 22.2582 13.0026Z" fill="#333333"/>
</svg>
