<svg width="24" height="24" viewBox="0 0 24 24" fill="none" xmlns="http://www.w3.org/2000/svg">
<path d="M10.2914 17.244L7.93468 19.6007C6.95762 20.5778 5.37535 20.5778 4.39911 19.6009C3.42268 18.6245 3.42268 17.042 4.39892 16.0658L9.11322 11.3515C10.0895 10.3752 11.6719 10.3752 12.6481 11.3515C12.9736 11.6769 13.5012 11.6769 13.8267 11.3515C14.1521 11.0261 14.1521 10.4984 13.8267 10.1729C12.1995 8.54579 9.56183 8.54579 7.93468 10.1729L3.22041 14.8872C1.59326 16.5144 1.59326 19.1521 3.22041 20.7792C4.84737 22.4072 7.48525 22.4072 9.11326 20.7792L11.47 18.4225C11.7954 18.097 11.7954 17.5694 11.47 17.2439C11.1446 16.9185 10.6169 16.9185 10.2914 17.244Z" fill="black"/>
<path d="M20.7796 3.22014C19.1525 1.59299 16.5139 1.59299 14.8868 3.22014L12.0592 6.04771C11.7338 6.37315 11.7338 6.90082 12.0592 7.22626C12.3846 7.5517 12.9123 7.5517 13.2377 7.22626L16.0653 4.39868C17.0416 3.42241 18.6248 3.42241 19.6011 4.39868C20.5773 5.37492 20.5773 6.95735 19.6011 7.93358L14.4159 13.1188C13.4397 14.095 11.8573 14.095 10.881 13.1188C10.5556 12.7933 10.0279 12.7933 9.7025 13.1188C9.37706 13.4442 9.37706 13.9719 9.7025 14.2973C11.3297 15.9245 13.9673 15.9245 15.5945 14.2973L20.7796 9.11217C22.4068 7.48502 22.4068 4.84729 20.7796 3.22014Z" fill="black"/>
</svg>
