<svg width="24" height="24" viewBox="0 0 24 24" fill="none" xmlns="http://www.w3.org/2000/svg">
<path d="M19.0703 7.03906H18.5234V4.92969C18.5234 3.31426 17.2092 2 15.5938 2H8.40625C6.79082 2 5.47656 3.31426 5.47656 4.92969V7.03906H4.92969C3.31426 7.03906 2 8.35332 2 9.96875V14.6562C2 16.2717 3.31426 17.5859 4.92969 17.5859H5.47656V20.2422C5.47656 21.2114 6.26512 22 7.23438 22H16.7656C17.7349 22 18.5234 21.2114 18.5234 20.2422V17.5859H19.0703C20.6857 17.5859 22 16.2717 22 14.6562V9.96875C22 8.35332 20.6857 7.03906 19.0703 7.03906ZM6.64844 4.92969C6.64844 3.96043 7.43699 3.17188 8.40625 3.17188H15.5938C16.563 3.17188 17.3516 3.96043 17.3516 4.92969V7.03906H6.64844V4.92969ZM17.3516 20.2422C17.3516 20.5653 17.0887 20.8281 16.7656 20.8281H7.23438C6.91129 20.8281 6.64844 20.5653 6.64844 20.2422V14.4609H17.3516V20.2422ZM20.8281 14.6562C20.8281 15.6255 20.0396 16.4141 19.0703 16.4141H18.5234V14.4609H18.875C19.1986 14.4609 19.4609 14.1986 19.4609 13.875C19.4609 13.5514 19.1986 13.2891 18.875 13.2891H5.125C4.80141 13.2891 4.53906 13.5514 4.53906 13.875C4.53906 14.1986 4.80141 14.4609 5.125 14.4609H5.47656V16.4141H4.92969C3.96043 16.4141 3.17188 15.6255 3.17188 14.6562V9.96875C3.17188 8.99949 3.96043 8.21094 4.92969 8.21094H19.0703C20.0396 8.21094 20.8281 8.99949 20.8281 9.96875V14.6562Z" fill="#232323"/>
<path d="M13.5625 15.7891H10.4375C10.1139 15.7891 9.85156 16.0514 9.85156 16.375C9.85156 16.6986 10.1139 16.9609 10.4375 16.9609H13.5625C13.8861 16.9609 14.1484 16.6986 14.1484 16.375C14.1484 16.0514 13.8861 15.7891 13.5625 15.7891Z" fill="#232323"/>
<path d="M13.5625 18.2891H10.4375C10.1139 18.2891 9.85156 18.5514 9.85156 18.875C9.85156 19.1986 10.1139 19.4609 10.4375 19.4609H13.5625C13.8861 19.4609 14.1484 19.1986 14.1484 18.875C14.1484 18.5514 13.8861 18.2891 13.5625 18.2891Z" fill="#232323"/>
<path d="M7 9.53906H5.125C4.80141 9.53906 4.53906 9.80141 4.53906 10.125C4.53906 10.4486 4.80141 10.7109 5.125 10.7109H7C7.32359 10.7109 7.58594 10.4486 7.58594 10.125C7.58594 9.80141 7.32359 9.53906 7 9.53906Z" fill="#232323"/>
</svg>
