<svg width="24" height="24" viewBox="0 0 24 24" fill="none" xmlns="http://www.w3.org/2000/svg">
<path d="M18.4286 2H5.57143C3.59995 2.00234 2.00234 3.59995 2 5.57143V18.4286C2.00234 20.4001 3.59995 21.9977 5.57143 22H18.4286C20.4001 21.9977 21.9977 20.4001 22 18.4286V5.57143C21.9977 3.59995 20.4001 2.00234 18.4286 2ZM20.5715 18.4286C20.5715 19.6121 19.6121 20.5715 18.4286 20.5715H5.57143C4.38796 20.5715 3.42856 19.6121 3.42856 18.4286V5.57143C3.42856 4.38796 4.38796 3.42856 5.57143 3.42856H18.4286C19.6121 3.42856 20.5715 4.38796 20.5715 5.57143V18.4286Z" fill="#333333"/>
<path d="M15.5714 11.2857H12.7143V8.42849C12.7143 8.03398 12.3945 7.71419 12 7.71419C11.6055 7.71419 11.2857 8.03398 11.2857 8.42849V11.2857H8.42854C8.03403 11.2857 7.71423 11.6054 7.71423 12C7.71423 12.3945 8.03403 12.7142 8.42854 12.7142H11.2857V15.5714C11.2857 15.9659 11.6055 16.2857 12 16.2857C12.3945 16.2857 12.7143 15.9658 12.7143 15.5714V12.7142H15.5714C15.9659 12.7142 16.2857 12.3944 16.2857 11.9999C16.2857 11.6054 15.9659 11.2857 15.5714 11.2857Z" fill="#333333"/>
</svg>
