<svg width="24" height="24" viewBox="0 0 24 24" fill="none" xmlns="http://www.w3.org/2000/svg">
<path d="M21.0029 6.76956C20.1709 5.58132 18.5167 5.26818 17.3282 6.1002L11.2174 10.379L8.99537 8.8229C9.82274 7.39443 9.43357 5.54594 8.05602 4.58149C6.60132 3.56322 4.59703 3.91659 3.57835 5.37102C2.56011 6.82551 2.91321 8.83022 4.36795 9.84891C5.36617 10.5478 6.62354 10.6002 7.64315 10.0945L10.3648 12.0001L7.64339 13.9054C6.62379 13.3999 5.36648 13.4523 4.36819 14.151C2.91352 15.1697 2.5604 17.1742 3.57859 18.6286C4.59728 20.0833 6.60177 20.4367 8.05623 19.4184C9.43361 18.4539 9.82271 16.6055 8.99558 15.177L11.2176 13.6209L17.3282 17.8994C18.5166 18.7317 20.1709 18.4184 21.0029 17.2301L13.5328 12L21.0029 6.76956ZM6.21907 8.88895C5.29861 8.88895 4.55237 8.14271 4.55237 7.22225C4.55237 6.30178 5.29864 5.55555 6.21907 5.55555C7.13975 5.55555 7.88577 6.30178 7.88577 7.22225C7.88577 8.14271 7.13975 8.88895 6.21907 8.88895ZM6.21907 18.4447C5.29861 18.4447 4.55237 17.6985 4.55237 16.778C4.55237 15.8575 5.29861 15.1113 6.21907 15.1113C7.13975 15.1113 7.88577 15.8575 7.88577 16.778C7.88577 17.6984 7.13975 18.4447 6.21907 18.4447Z" fill="#333333"/>
</svg>
