<svg width="24" height="24" viewBox="0 0 24 24" fill="none" xmlns="http://www.w3.org/2000/svg">
<path d="M19.9907 21.1647L18.8143 7.61138C18.7822 7.24125 18.4824 6.95774 18.1233 6.95774H15.6974V5.82582C15.6974 3.71626 14.0386 2 11.9997 2C9.96089 2 8.30229 3.71626 8.30229 5.82582V6.95774H5.8748C5.51566 6.95774 5.21582 7.24125 5.18372 7.61138L4.00277 21.218C3.98538 21.4188 4.05033 21.6178 4.18179 21.7666C4.31325 21.9153 4.49911 22 4.69386 22H19.3043C19.3048 22 19.3056 22 19.3061 22C19.6894 22 20 21.6786 20 21.2821C19.9999 21.2422 19.9968 21.2029 19.9907 21.1647ZM9.69001 5.82582C9.69001 4.50792 10.7262 3.43572 11.9998 3.43572C13.2736 3.43572 14.3098 4.50792 14.3098 5.82582V6.95774H9.69001V5.82582ZM5.45285 20.5644L6.50918 8.39346H8.30229V9.67719C8.30229 10.0736 8.61286 10.3951 8.99615 10.3951C9.37944 10.3951 9.69001 10.0736 9.69001 9.67719V8.39346H14.3098V9.67719C14.3098 10.0736 14.6204 10.3951 15.0037 10.3951C15.387 10.3951 15.6975 10.0736 15.6975 9.67719V8.39346H17.489L18.5453 20.5644H5.45285Z" fill="#333333"/>
</svg>
