<svg width="24" height="24" viewBox="0 0 24 24" fill="none" xmlns="http://www.w3.org/2000/svg">
<path d="M10.8076 2C5.95121 2 2 5.95121 2 10.8076C2 15.6642 5.95121 19.6151 10.8076 19.6151C15.6642 19.6151 19.6151 15.6642 19.6151 10.8076C19.6151 5.95121 15.6642 2 10.8076 2ZM10.8076 17.9892C6.84769 17.9892 3.62601 14.7675 3.62601 10.8076C3.62601 6.84773 6.84769 3.62601 10.8076 3.62601C14.7675 3.62601 17.9891 6.84769 17.9891 10.8076C17.9891 14.7675 14.7675 17.9892 10.8076 17.9892Z" fill="#333333"/>
<path d="M21.7618 20.6122L17.1005 15.9509C16.7829 15.6333 16.2686 15.6333 15.9509 15.9509C15.6333 16.2683 15.6333 16.7832 15.9509 17.1005L20.6122 21.7618C20.771 21.9206 20.9789 22 21.187 22C21.3949 22 21.603 21.9206 21.7618 21.7618C22.0794 21.4445 22.0794 20.9295 21.7618 20.6122Z" fill="#333333"/>
</svg>
