<svg width="24" height="24" viewBox="0 0 24 24" fill="none" xmlns="http://www.w3.org/2000/svg">
<g clip-path="url(#clip0)">
<path d="M18.126 14.2689C16.4579 14.2689 15.1008 15.626 15.1008 17.2941C15.1008 18.9622 16.4579 20.3193 18.126 20.3193C19.7945 20.3193 21.1513 18.9622 21.1513 17.2941C21.1513 15.626 19.7942 14.2689 18.126 14.2689ZM18.126 18.8067C17.2919 18.8067 16.6134 18.1283 16.6134 17.2941C16.6134 16.4599 17.2919 15.7815 18.126 15.7815C18.9602 15.7815 19.6387 16.4599 19.6387 17.2941C19.6387 18.1283 18.9602 18.8067 18.126 18.8067Z" fill="#232323"/>
<path d="M7.78993 14.2689C6.12179 14.2689 4.76471 15.626 4.76471 17.2941C4.76471 18.9622 6.12179 20.3193 7.78993 20.3193C9.45807 20.3193 10.8151 18.9622 10.8151 17.2941C10.8151 15.626 9.45807 14.2689 7.78993 14.2689ZM7.78993 18.8067C6.95574 18.8067 6.27732 18.1283 6.27732 17.2941C6.27732 16.4599 6.95574 15.7815 7.78993 15.7815C8.62388 15.7815 9.30254 16.4599 9.30254 17.2941C9.30254 18.1283 8.62412 18.8067 7.78993 18.8067Z" fill="#232323"/>
<path d="M20.1633 5.60977C20.0347 5.35439 19.7733 5.19328 19.4874 5.19328H15.5042V6.70589H19.021L21.0804 10.802L22.4322 10.1223L20.1633 5.60977Z" fill="#232323"/>
<path d="M15.8571 16.563H10.1345V18.0757H15.8571V16.563Z" fill="#232323"/>
<path d="M5.52098 16.563H2.89916C2.48141 16.563 2.14288 16.9016 2.14288 17.3193C2.14288 17.7371 2.48146 18.0756 2.89916 18.0756H5.52102C5.93877 18.0756 6.27731 17.737 6.27731 17.3193C6.27731 16.9016 5.93873 16.563 5.52098 16.563Z" fill="#232323"/>
<path d="M23.8412 11.9395L22.3536 10.0235C22.2106 9.83898 21.99 9.73107 21.7563 9.73107H16.2605V4.43696C16.2605 4.01921 15.9219 3.68068 15.5042 3.68068H2.89916C2.48141 3.68068 2.14288 4.01926 2.14288 4.43696C2.14288 4.85466 2.48146 5.19324 2.89916 5.19324H14.7479V10.4874C14.7479 10.9051 15.0865 11.2436 15.5042 11.2436H21.386L22.4874 12.6624V16.563H20.3949C19.9772 16.563 19.6386 16.9015 19.6386 17.3192C19.6386 17.737 19.9772 18.0755 20.3949 18.0755H23.2437C23.6614 18.0755 23.9999 17.737 24 17.3192V12.4034C24 12.2355 23.944 12.0721 23.8412 11.9395Z" fill="#232323"/>
<path d="M5.47059 12.7311H1.99157C1.57382 12.7311 1.23529 13.0697 1.23529 13.4874C1.23529 13.9051 1.57387 14.2437 1.99157 14.2437H5.47054C5.88829 14.2437 6.22682 13.9051 6.22682 13.4874C6.22687 13.0697 5.88829 12.7311 5.47059 12.7311Z" fill="#232323"/>
<path d="M7.21008 9.75629H0.756281C0.338578 9.75629 0 10.0949 0 10.5126C0 10.9304 0.338578 11.2689 0.756281 11.2689H7.21008C7.62783 11.2689 7.96636 10.9303 7.96636 10.5126C7.96636 10.0949 7.62783 9.75629 7.21008 9.75629Z" fill="#232323"/>
<path d="M8.44537 6.78149H1.99157C1.57382 6.78149 1.23529 7.12007 1.23529 7.53778C1.23529 7.95553 1.57387 8.29406 1.99157 8.29406H8.44537C8.86312 8.29406 9.20165 7.95548 9.20165 7.53778C9.2017 7.12007 8.86312 6.78149 8.44537 6.78149Z" fill="#232323"/>
</g>
<defs>
<clipPath id="clip0">
<rect width="24" height="24" fill="white"/>
</clipPath>
</defs>
</svg>
