<svg width="24" height="24" viewBox="0 0 24 24" fill="none" xmlns="http://www.w3.org/2000/svg">
<path fill-rule="evenodd" clip-rule="evenodd" d="M21.1667 6.42361H2.83333C2.37333 6.42361 2 6.05027 2 5.59027C2 5.13027 2.37333 4.75694 2.83333 4.75694H21.1667C21.6267 4.75694 22 5.13027 22 5.59027C22 6.05027 21.6267 6.42361 21.1667 6.42361ZM21.1667 12.8126H2.83333C2.37333 12.8126 2 12.4392 2 11.9792C2 11.5192 2.37333 11.1459 2.83333 11.1459H21.1667C21.6267 11.1459 22 11.5192 22 11.9792C22 12.4392 21.6267 12.8126 21.1667 12.8126ZM2.83333 19.2013H21.1667C21.6267 19.2013 22 18.828 22 18.368C22 17.908 21.6267 17.5346 21.1667 17.5346H2.83333C2.37333 17.5346 2 17.908 2 18.368C2 18.828 2.37333 19.2013 2.83333 19.2013Z" fill="black"/>
</svg>
