<svg width="24" height="24" viewBox="0 0 24 24" fill="none" xmlns="http://www.w3.org/2000/svg">
<g clip-path="url(#clip0)">
<path d="M22.74 16.2102L12.7031 10.3939V9.96111C12.7031 9.46761 12.9847 9.00857 13.4381 8.76313C14.4596 8.21024 15.0667 7.14529 15.0226 5.98391C14.963 4.41402 13.6868 3.13752 12.1172 3.07794C11.2867 3.04607 10.5001 3.34588 9.90248 3.92118C9.30445 4.49689 8.97511 5.27108 8.97511 6.10105C8.97511 6.48936 9.28992 6.80418 9.67823 6.80418C10.0665 6.80418 10.3814 6.48936 10.3814 6.10105C10.3814 5.65677 10.5577 5.24244 10.8778 4.93424C11.1975 4.62646 11.6182 4.46582 12.0638 4.48316C12.9031 4.51504 13.5855 5.19768 13.6174 6.03725C13.641 6.65961 13.3158 7.23022 12.7687 7.52643C11.8609 8.01786 11.2969 8.95077 11.2969 9.96111V10.3939L1.26005 16.2102C0.482813 16.6606 0 17.4985 0 18.3969C0 19.7905 1.13353 20.9241 2.52684 20.9241H21.4732C22.8665 20.9241 24 19.7904 24 18.3969C24 17.4985 23.5172 16.6606 22.74 16.2102ZM21.4732 19.5179H2.52684C1.90894 19.5179 1.40625 19.015 1.40625 18.3969C1.40625 17.9983 1.62038 17.6267 1.96514 17.4269L12 11.6118L22.0349 17.4269C22.3796 17.6267 22.5938 17.9983 22.5938 18.3969C22.5938 19.015 22.0911 19.5179 21.4732 19.5179Z" fill="#333333"/>
</g>
<defs>
<clipPath id="clip0">
<rect width="24" height="24" fill="white"/>
</clipPath>
</defs>
</svg>
