<svg width="24" height="24" viewBox="0 0 24 24" fill="none" xmlns="http://www.w3.org/2000/svg">
<path d="M19.8197 6.6007L14.8967 1.67774C14.7818 1.56279 14.625 1.49744 14.4615 1.49744H5.84615C4.82818 1.49744 4 2.32562 4 3.34359V20.6564C4 21.6744 4.82818 22.5026 5.84615 22.5026H18.1538C19.1718 22.5026 20 21.6744 20 20.6564V7.0359C20 6.8681 19.9296 6.71052 19.8197 6.6007ZM15.0769 3.59848L17.899 6.42051H15.6923C15.353 6.42051 15.0769 6.14445 15.0769 5.80513V3.59848ZM18.1538 21.2718H5.84615C5.50683 21.2718 5.23077 20.9957 5.23077 20.6564V3.34359C5.23077 3.00427 5.50683 2.72821 5.84615 2.72821H13.8462V5.80513C13.8462 6.8231 14.6743 7.65128 15.6923 7.65128H18.7692V20.6564C18.7692 20.9957 18.4932 21.2718 18.1538 21.2718Z" fill="#333333"/>
<path d="M15.6923 10.1949H8.30771C7.96785 10.1949 7.69232 10.4704 7.69232 10.8103C7.69232 11.1501 7.96785 11.4256 8.30771 11.4256H15.6923C16.0322 11.4256 16.3077 11.1501 16.3077 10.8103C16.3077 10.4704 16.0322 10.1949 15.6923 10.1949Z" fill="#333333"/>
<path d="M15.6923 12.6564H8.30771C7.96785 12.6564 7.69232 12.9319 7.69232 13.2718C7.69232 13.6117 7.96785 13.8872 8.30771 13.8872H15.6923C16.0322 13.8872 16.3077 13.6117 16.3077 13.2718C16.3077 12.9319 16.0322 12.6564 15.6923 12.6564Z" fill="#333333"/>
<path d="M15.6923 15.118H8.30771C7.96785 15.118 7.69232 15.3935 7.69232 15.7333C7.69232 16.0732 7.96785 16.3487 8.30771 16.3487H15.6923C16.0322 16.3487 16.3077 16.0732 16.3077 15.7333C16.3077 15.3935 16.0322 15.118 15.6923 15.118Z" fill="#333333"/>
<path d="M13.2308 17.5795H8.30771C7.96785 17.5795 7.69232 17.855 7.69232 18.1949C7.69232 18.5347 7.96785 18.8103 8.30771 18.8103H13.2308C13.5706 18.8103 13.8462 18.5347 13.8462 18.1949C13.8462 17.855 13.5706 17.5795 13.2308 17.5795Z" fill="#333333"/>
</svg>
