<svg width="24" height="24" viewBox="0 0 24 24" fill="none" xmlns="http://www.w3.org/2000/svg">
<path d="M12 2C6.47305 2 2 6.47254 2 12C2 17.527 6.47254 22 12 22C17.527 22 22 17.5275 22 12C22 6.47305 17.5275 2 12 2ZM12 20.6667C7.22121 20.6667 3.33332 16.7788 3.33332 12C3.33332 7.22117 7.22121 3.33332 12 3.33332C16.7788 3.33332 20.6667 7.22121 20.6667 12C20.6667 16.7788 16.7788 20.6667 12 20.6667Z" fill="#333333"/>
<path d="M11.9999 10.1944C11.6317 10.1944 11.3332 10.4929 11.3332 10.8611V16.4848C11.3332 16.853 11.6317 17.1515 11.9999 17.1515C12.3681 17.1515 12.6666 16.853 12.6666 16.4848V10.861C12.6665 10.4928 12.368 10.1944 11.9999 10.1944Z" fill="#333333"/>
<path d="M12 6.84853C11.2648 6.84853 10.6667 7.44665 10.6667 8.18185C10.6667 8.91705 11.2648 9.51517 12 9.51517C12.7352 9.51517 13.3333 8.91705 13.3333 8.18185C13.3333 7.44665 12.7352 6.84853 12 6.84853Z" fill="#333333"/>
</svg>
