<svg width="752" height="550" viewBox="0 0 752 550" fill="none" xmlns="http://www.w3.org/2000/svg">
<path d="M231.839 112.857C231.839 113.631 231.609 114.389 231.179 115.032C230.749 115.676 230.137 116.178 229.422 116.475C228.706 116.771 227.919 116.848 227.16 116.697C226.4 116.546 225.702 116.173 225.155 115.626C224.607 115.078 224.234 114.381 224.083 113.621C223.932 112.861 224.01 112.074 224.306 111.359C224.602 110.643 225.104 110.032 225.748 109.601C226.392 109.171 227.149 108.941 227.923 108.941C228.438 108.94 228.948 109.04 229.424 109.236C229.9 109.432 230.332 109.72 230.696 110.084C231.06 110.448 231.348 110.881 231.545 111.357C231.741 111.832 231.841 112.342 231.839 112.857V112.857Z" stroke="#0B334C" stroke-width="0.71" stroke-linecap="round" stroke-linejoin="round"/>
<g opacity="0.3">
<path d="M533.421 225.067L548.548 171.283L223.601 79.8915L208.475 133.676L533.421 225.067Z" fill="#784AAB"/>
<path d="M540.009 94.7782L511.996 46.2588L218.859 215.502L246.872 264.021L540.009 94.7782Z" fill="#784AAB"/>
</g>
<path d="M246.404 231.828C246.404 232.603 246.174 233.36 245.743 234.005C245.312 234.649 244.699 235.151 243.983 235.447C243.267 235.743 242.479 235.819 241.719 235.667C240.959 235.515 240.261 235.141 239.714 234.592C239.167 234.043 238.795 233.344 238.646 232.583C238.496 231.823 238.576 231.035 238.874 230.32C239.173 229.605 239.677 228.994 240.322 228.566C240.968 228.137 241.726 227.909 242.501 227.912C243.015 227.912 243.523 228.013 243.998 228.21C244.472 228.407 244.903 228.696 245.265 229.06C245.628 229.424 245.915 229.855 246.11 230.33C246.306 230.805 246.405 231.314 246.404 231.828V231.828Z" stroke="#0B334C" stroke-width="0.71" stroke-linecap="round" stroke-linejoin="round"/>
<path d="M515.87 77.6171C515.873 78.3926 515.645 79.1515 515.216 79.7975C514.787 80.4435 514.175 80.9474 513.459 81.2454C512.743 81.5435 511.955 81.6221 511.194 81.4715C510.433 81.3208 509.734 80.9476 509.186 80.3992C508.637 79.8508 508.264 79.1519 508.114 78.3911C507.963 77.6303 508.042 76.8419 508.34 76.1258C508.638 75.4098 509.142 74.7984 509.788 74.3692C510.434 73.94 511.192 73.7122 511.968 73.7149C512.48 73.7149 512.988 73.8158 513.461 74.0119C513.935 74.208 514.365 74.4955 514.727 74.8578C515.09 75.2202 515.377 75.6503 515.573 76.1238C515.769 76.5972 515.87 77.1046 515.87 77.6171Z" stroke="#0B334C" stroke-width="0.71" stroke-linecap="round" stroke-linejoin="round"/>
<path opacity="0.5" d="M716.545 536.763C731.188 509.944 733.481 478.243 735.453 447.71C736.458 432.168 737.451 416.371 734.112 401.165C731.43 389.337 726.307 378.234 720.836 367.413C693.829 313.881 658.508 262.549 649.658 203.239C642.363 154.307 652.541 99.1798 623.268 59.2862C612.54 44.6697 597.32 33.8079 580.839 26.2314C558.561 16.1128 534.052 11.9055 509.675 14.0152C463.733 18.0381 422.512 44.0528 377.201 52.6216C343.221 59.0582 308.262 55.451 273.678 55.9471C239.095 56.4433 202.715 61.8072 175.466 83.1017C164.527 91.7587 155.537 102.625 149.081 114.991C142.625 127.357 138.849 140.946 138 154.87C136.94 174.113 141.567 193.235 141.701 212.531C142.103 269.764 103.805 319.487 88.9071 374.788C73.0838 433.482 85.4608 499.122 121.586 548" stroke="#784AAB" stroke-width="2.83" stroke-linecap="round" stroke-linejoin="round" stroke-dasharray="9.9 9.9"/>
<path d="M724.518 248.273C729.456 243.335 729.456 235.328 724.518 230.39C719.58 225.452 711.573 225.452 706.635 230.39C701.697 235.328 701.697 243.335 706.635 248.273C711.573 253.211 719.58 253.211 724.518 248.273Z" fill="#784AAB"/>
<path d="M52.5874 209.251C54.8357 202.639 51.2982 195.456 44.6863 193.208C38.0743 190.96 30.8916 194.497 28.6432 201.109C26.3949 207.721 29.9323 214.904 36.5443 217.152C43.1563 219.4 50.339 215.863 52.5874 209.251Z" fill="#784AAB"/>
<path d="M196.015 205.114C198.263 198.502 194.726 191.319 188.114 189.071C181.502 186.823 174.319 190.36 172.071 196.972C169.823 203.584 173.36 210.767 179.972 213.015C186.584 215.264 193.767 211.726 196.015 205.114Z" fill="#784AAB"/>
<path d="M680.483 76.8925C681.504 73.8883 679.897 70.6248 676.893 69.6032C673.889 68.5817 670.625 70.1889 669.604 73.1932C668.582 76.1974 670.189 79.4609 673.194 80.4825C676.198 81.5041 679.461 79.8968 680.483 76.8925Z" fill="#784AAB"/>
<path d="M748.923 155.967C749.67 150.082 745.504 144.706 739.619 143.96C733.734 143.213 728.358 147.379 727.612 153.264C726.865 159.149 731.031 164.525 736.915 165.271C742.8 166.018 748.176 161.852 748.923 155.967Z" fill="#784AAB"/>
<path d="M738.377 236.858C745.038 230.197 745.038 219.397 738.377 212.736C731.716 206.075 720.916 206.075 714.255 212.736C707.593 219.397 707.593 230.197 714.255 236.859C720.916 243.52 731.716 243.52 738.377 236.858Z" stroke="#784AAB" stroke-width="1.41" stroke-miterlimit="10"/>
<path d="M53.8874 253.647C64.9518 244.575 66.5667 228.251 57.4945 217.187C48.4222 206.122 32.0983 204.507 21.0339 213.58C9.96947 222.652 8.35451 238.976 17.4268 250.04C26.499 261.105 42.823 262.72 53.8874 253.647Z" stroke="#784AAB" stroke-width="1.41" stroke-miterlimit="10"/>
<path d="M262.637 23.7117C264.666 15.2268 259.433 6.70341 250.948 4.67419C242.463 2.64497 233.94 7.87835 231.911 16.3633C229.881 24.8482 235.115 33.3716 243.6 35.4008C252.085 37.43 260.608 32.1966 262.637 23.7117Z" stroke="#784AAB" stroke-width="1.41" stroke-miterlimit="10"/>
<path d="M42.3225 85.1265H102.103C102.977 85.1265 103.817 85.474 104.435 86.0927C105.054 86.7113 105.401 87.5503 105.401 88.4252V133.16H39.0371V88.4252C39.0371 87.5527 39.3828 86.7156 39.9986 86.0974C40.6143 85.4791 41.4499 85.13 42.3225 85.1265V85.1265Z" fill="#CECECE"/>
<path d="M42.3225 85.1265H102.103C102.977 85.1265 103.817 85.474 104.435 86.0927C105.054 86.7113 105.401 87.5503 105.401 88.4252V94.6071H39.0371V88.4252C39.0371 87.5527 39.3828 86.7156 39.9986 86.0974C40.6143 85.4791 41.4499 85.13 42.3225 85.1265V85.1265Z" fill="#1F5B99"/>
<path d="M301.568 100.702C310.177 92.093 310.177 78.1346 301.568 69.5253C292.959 60.916 279 60.916 270.391 69.5253C261.782 78.1346 261.782 92.093 270.391 100.702C279 109.312 292.959 109.312 301.568 100.702Z" fill="#784AAB"/>
<path d="M282.221 75.1763H289.77L288.51 87.2449H283.481L282.221 75.1763ZM282.301 91.6969C282.397 90.7836 282.827 89.938 283.509 89.3233C284.191 88.7087 285.077 88.3685 285.996 88.3685C286.914 88.3685 287.8 88.7087 288.482 89.3233C289.164 89.938 289.594 90.7836 289.69 91.6969C289.594 92.6103 289.164 93.4559 288.482 94.0705C287.8 94.6852 286.914 95.0254 285.996 95.0254C285.077 95.0254 284.191 94.6852 283.509 94.0705C282.827 93.4559 282.397 92.6103 282.301 91.6969V91.6969Z" fill="white"/>
<path d="M107.881 462.353C107.881 462.353 89.2151 417.31 98.1057 378.207C98.5494 376.32 99.5588 374.613 100.999 373.315C102.439 372.017 104.241 371.189 106.164 370.943C108.087 370.697 110.039 371.043 111.76 371.936C113.481 372.829 114.888 374.227 115.793 375.941C124.415 392.408 133.48 420.729 123.517 457.887L107.881 462.353Z" fill="#0E7267"/>
<path d="M106.717 380.138L113.824 443.646" stroke="#0B334C" stroke-width="0.71" stroke-linecap="round" stroke-linejoin="round"/>
<path d="M111.273 448.648C105.172 434.34 96.2277 421.306 90.7566 406.743C85.0709 391.59 81.5844 372.937 66.9277 366.045C64.7514 364.882 62.271 364.414 59.8206 364.704C55.8647 365.388 53.0219 368.861 51.1445 372.401C48.3394 377.84 46.9139 383.885 46.9934 390.004C47.0729 396.124 48.655 402.13 51.6005 407.494C54.859 413.274 59.7401 418.289 61.4163 424.712C65.4392 440.401 49.0661 457.619 56.6961 471.914C60.2899 478.619 68.1614 481.904 75.6305 483.527C83.0997 485.149 91.0114 485.766 97.7028 489.48C108.658 495.555 114.518 498.867 116.946 483.848C118.89 471.86 115.98 459.657 111.273 448.648Z" fill="#1BA596"/>
<path d="M59.8223 380.111C71.1668 389.86 75.659 405.59 75.9138 420.582C76.0881 428.976 75.1361 437.531 77.1341 445.698C80.9156 461.173 94.285 472.115 106.903 481.837" stroke="#0B334C" stroke-width="0.71" stroke-linecap="round" stroke-linejoin="round"/>
<path d="M110.161 463.197C112.642 452.215 119.293 442.694 125.877 433.562C132.461 424.43 139.287 415.07 142.157 404.182C145.308 392.314 143.498 379.709 140.601 367.774C140.051 365.535 139.488 363.148 140.266 360.976C141.607 357.382 146.005 356.001 149.827 356.121C164.484 356.577 175.238 371.891 175.614 386.548C175.989 401.205 168.694 414.896 160.769 427.233C152.844 439.57 143.886 451.746 140.279 465.879C138.094 474.381 135.157 499.403 120.487 495.381C109.705 492.337 108.284 471.525 110.161 463.197Z" fill="#1BA596"/>
<path d="M152.563 367.667C157.096 378.395 155.245 390.799 150.981 401.607C146.717 412.415 140.253 422.218 135.332 432.731C128.415 447.45 124.539 463.413 123.934 479.665" stroke="#0B334C" stroke-width="0.71" stroke-linecap="round" stroke-linejoin="round"/>
<path d="M130.317 547.933H92.3674L84.1875 486.168H138.497L130.317 547.933Z" fill="#1F5B99"/>
<path d="M690.598 545.398L608.45 302.711H588.229L670.376 545.398H690.598Z" fill="black"/>
<path d="M516.032 545.398L558.179 302.711H537.957L495.811 545.398H516.032Z" fill="black"/>
<path d="M364.651 392.042L363.402 393.461L450.376 470.005L451.626 468.585L364.651 392.042Z" fill="#76D3F0"/>
<path d="M428.723 401.435L346.479 450.716L347.45 452.338L429.695 403.057L428.723 401.435Z" fill="#76D3F0"/>
<path d="M439.863 399.917H424.684L466.535 532.123H481.701L439.863 399.917Z" fill="#7BADA8"/>
<path d="M365.387 362.76L311.775 532.123H326.942L380.553 362.76H365.387Z" fill="#7BADA8"/>
<path d="M280.344 547.933L335.753 372.87H320.586L265.178 547.933H280.344Z" fill="#C5D9D7"/>
<path d="M433.507 547.933L378.098 372.87H362.932L418.327 547.933H433.507Z" fill="#C5D9D7"/>
<path d="M318.695 392.04L317.42 393.437L396.345 465.48L397.62 464.083L318.695 392.04Z" fill="#C6F1FE"/>
<path d="M377.424 400.102L298.971 448.097L299.961 449.716L378.415 401.72L377.424 400.102Z" fill="#C6F1FE"/>
<path d="M472.665 380.151C472.665 380.151 408.822 377.684 398.992 353.949C389.163 330.214 384.242 268.007 353.158 265.553C322.075 263.099 301.598 261.463 301.598 282.784C301.598 304.105 287.679 373.634 330.241 384.282C370.202 394.272 423.867 413.635 464.15 392.931C466.516 391.683 468.534 389.864 470.021 387.64C471.508 385.415 472.417 382.856 472.665 380.192V380.151Z" fill="black"/>
<path d="M465.142 500.182C463.989 508.75 463.225 515.361 462.836 518.888L462.527 521.744L474.261 526.371L475.602 523.179L481.784 508.147C476.232 505.478 470.667 502.864 465.142 500.182Z" fill="#FA9778"/>
<path d="M475.681 523.152C475.681 523.152 466.75 525.499 462.888 518.807L460.648 521.61C458.679 524.049 457.158 526.819 456.156 529.79L455.848 530.688L494.105 543.682C494.562 542.334 494.592 540.879 494.191 539.513C493.79 538.148 492.978 536.939 491.866 536.052L475.681 523.152Z" fill="#1F5B99"/>
<path d="M417.617 299.278L516.781 323.523C524.345 325.276 531.216 329.239 536.52 334.908C542.528 341.505 547.369 351.482 542.715 365.039C533.409 392.167 481.889 514.503 481.889 514.503L462.338 506.819C462.338 506.819 476.177 398.496 493.998 374.587C493.998 374.587 419.722 378.301 398.924 366.809C378.126 355.317 417.617 299.278 417.617 299.278Z" fill="#174C82"/>
<path d="M494.964 371.583L493.998 374.734L500.18 370.188" stroke="#0B334C" stroke-width="0.71" stroke-linecap="round" stroke-linejoin="round"/>
<path d="M464.738 499.403L484.129 506.376" stroke="#0B334C" stroke-width="0.71" stroke-linecap="round" stroke-linejoin="round"/>
<path d="M558.658 499.833C553.053 503.48 547.332 506.899 541.494 510.091C549.54 518.499 555.816 524.842 558.806 527.778C560.066 529.039 560.75 529.696 560.75 529.696L571.612 523.286L569.775 519.96L558.658 499.833Z" fill="#FA9778"/>
<path d="M569.453 520.041C569.453 520.041 566.047 528.623 558.363 527.765L559.289 531.224C560.092 534.258 561.422 537.126 563.218 539.699L563.767 540.477L596.903 517.359C596.084 516.198 594.928 515.318 593.592 514.838C592.255 514.358 590.803 514.302 589.433 514.677L569.453 520.041Z" fill="#1F5B99"/>
<path d="M347.445 284.943C347.445 284.943 328.256 307.458 330.388 324.045C332.52 340.633 337.093 356.51 369.276 370.738C401.459 384.965 463.599 411.731 463.599 411.731C463.599 411.731 515.736 495.152 550.346 520.282L565.097 509.38C565.097 509.38 505.37 395.613 497.553 386.132C489.735 376.651 429.767 331.622 429.767 331.622L418.315 285.466L347.445 284.943Z" fill="#1F5B99"/>
<path d="M415.07 323.885C415.07 323.885 477.009 365.28 484.277 374.761" stroke="#0B334C" stroke-width="0.71" stroke-linecap="round" stroke-linejoin="round"/>
<path d="M464.041 407.467L463.732 411.731L466.414 408.258" stroke="#0B334C" stroke-width="0.71" stroke-linecap="round" stroke-linejoin="round"/>
<path d="M347.605 318.588C347.605 318.588 345.232 334.478 350.69 339.212C356.147 343.945 470.129 395.854 472.717 399.166C475.305 402.479 550.212 514.114 550.212 514.114" stroke="#0B334C" stroke-width="0.71" stroke-linecap="round" stroke-linejoin="round"/>
<path d="M561.611 505.344L546.914 516.246" stroke="#0B334C" stroke-width="0.71" stroke-linecap="round" stroke-linejoin="round"/>
<path d="M475.588 430.451C475.588 430.451 493.597 460.086 501.656 467.422" stroke="#0B334C" stroke-width="0.71" stroke-linecap="round" stroke-linejoin="round"/>
<path d="M501.574 392.421L519.556 423.974" stroke="#0B334C" stroke-width="0.71" stroke-linecap="round" stroke-linejoin="round"/>
<path d="M392.246 191.331C392.246 191.331 411.02 204.673 413.702 209.179C416.383 213.684 427.111 252.237 427.111 252.237L456.465 196.963L471.631 202.648C471.631 202.648 443.9 278.01 440.346 282.757C436.793 287.504 418.073 292.949 406.219 280.384C394.365 267.819 392.246 191.331 392.246 191.331Z" fill="#784AAB"/>
<path d="M420.352 262.898L427.231 252.479L426.279 259.103" stroke="#0B334C" stroke-width="0.71" stroke-linecap="round" stroke-linejoin="round"/>
<path d="M458.892 192.497L458.798 192.725C458.704 192.953 458.596 193.181 458.489 193.396C462.15 195.34 465.65 197.807 468.868 199.631C469.762 200.141 470.656 200.623 471.55 201.079C471.832 200.1 472.113 199.135 472.382 198.156C475.546 194.75 482.291 187.294 481.473 186.356C480.401 185.122 474.313 189.44 474.313 189.44C474.313 189.44 483.257 180.495 481.487 179.101C479.717 177.706 472.703 185.47 472.703 185.47C472.703 185.47 478.724 173.777 476.632 173.549C474.541 173.321 469.619 182.212 469.619 182.212C469.619 182.212 473.32 170.385 471.443 170.264C469.566 170.143 464.041 184.411 464.041 184.411C464.041 184.411 460.608 178.497 458.744 179.423C457.296 180.147 458.422 188.528 458.999 192.283C458.968 192.357 458.932 192.428 458.892 192.497V192.497Z" fill="#FA9778"/>
<path d="M472.383 200.087C472.589 200.181 472.759 200.338 472.868 200.537C472.977 200.735 473.018 200.963 472.986 201.187C472.705 202.957 471.94 207.221 470.881 208.468C469.822 209.715 461.494 205.263 459.429 204.083C459.282 204 459.158 203.881 459.067 203.739C458.976 203.596 458.921 203.434 458.906 203.265L458.638 200.101C458.638 200.101 456.586 203.105 456.117 203.105C455.399 202.895 454.707 202.607 454.052 202.246C453.929 202.183 453.82 202.095 453.731 201.989C453.642 201.883 453.575 201.76 453.534 201.628C453.492 201.496 453.478 201.357 453.491 201.219C453.504 201.081 453.544 200.947 453.609 200.825L457.15 194.281C457.275 194.051 457.483 193.876 457.731 193.792C457.98 193.707 458.251 193.719 458.491 193.825L472.383 200.087Z" fill="white"/>
<path d="M379.64 195.689C381.959 194.724 385.647 191.666 388.838 188.233C387.792 187.08 387.209 185.58 387.203 184.023V154.843H364.218V184.023C364.215 185.158 363.906 186.272 363.323 187.247C362.74 188.221 361.905 189.021 360.906 189.561C365.667 194.133 373.136 198.398 379.64 195.689Z" fill="#FA9778"/>
<path d="M387.217 173.228V178.055C386.092 178.153 384.959 178.09 383.852 177.867C378.903 176.915 371.85 174.649 367.478 169.245C366.205 167.588 365.129 165.788 364.273 163.881V163.144C364.629 163.709 365.014 164.255 365.427 164.78C369.812 170.143 376.865 172.45 381.813 173.402C383.606 173.741 385.45 173.681 387.217 173.228V173.228Z" fill="#0B334C"/>
<path d="M346.266 284.139L339.977 294.182H393.535L398.282 286.244L401.956 294.893H423.398L417.484 284.233L346.266 284.139Z" fill="white"/>
<path d="M362.142 187.777C362.142 187.777 377.308 199.846 388.679 187.777C388.679 187.777 411.194 204.834 414.989 209.581C418.784 214.328 418.543 225.458 416.183 232.096C413.822 238.733 403.618 257.453 409.303 268.825C414.989 280.196 418.315 285.466 418.315 285.466H345.085C345.085 285.466 356.429 269.093 352.648 254.624C352.648 254.624 337.495 293.257 319.244 291.366C300.994 289.476 275.408 205.102 275.408 205.102L290.333 197.754L318.493 250.601C318.493 250.601 336.033 194.2 345.044 191.599C350.661 189.98 356.37 188.703 362.142 187.777V187.777Z" fill="#784AAB"/>
<path d="M362.141 187.777C362.141 187.777 352.54 195.823 358.226 201.991C363.911 208.16 376.289 194.522 376.289 194.522C376.289 194.522 385.997 206.591 391.683 202.112C397.368 197.633 388.719 187.777 388.719 187.777C388.719 187.777 378.97 195.836 362.141 187.777Z" fill="white"/>
<path d="M357.796 251.526C357.796 251.526 358.748 274.041 351.158 283.28" stroke="#0B334C" stroke-width="0.71" stroke-linecap="round" stroke-linejoin="round"/>
<path d="M417.283 283.991C417.283 283.991 404.49 265.982 408.044 255.08C411.597 244.178 417.994 229.722 417.994 223.084" stroke="#0B334C" stroke-width="0.71" stroke-linecap="round" stroke-linejoin="round"/>
<path d="M352.152 254.369C356.548 246.744 359.818 238.524 361.861 229.963C361.861 229.963 364.543 249.622 353.332 262.428C353.681 259.684 353.273 256.897 352.152 254.369V254.369Z" fill="#0B334C"/>
<path d="M326.514 264.319L318.924 251.057H322.96" stroke="#0B334C" stroke-width="0.71" stroke-linecap="round" stroke-linejoin="round"/>
<path d="M344.764 192.591C344.764 192.591 356.175 194.013 358.857 208.549" stroke="#0B334C" stroke-width="0.71" stroke-linecap="round" stroke-linejoin="round"/>
<path d="M264.989 186.302C264.158 187.241 270.903 194.696 274.068 198.103C274.483 199.604 274.913 201.079 275.342 202.568C280.415 201.539 285.361 199.961 290.092 197.861C289.288 196.131 288.483 194.388 287.705 192.672L287.611 192.444C287.573 192.392 287.537 192.338 287.504 192.283C288.081 188.528 289.207 180.147 287.759 179.423C285.895 178.498 282.395 184.411 282.395 184.411C282.395 184.411 276.857 170.13 274.993 170.264C273.129 170.398 276.817 182.212 276.817 182.212C276.817 182.212 271.855 173.214 269.777 173.442C267.698 173.67 273.706 185.363 273.706 185.363C273.706 185.363 266.706 177.586 264.922 178.994C263.139 180.402 272.097 189.333 272.097 189.333C272.097 189.333 266.062 185.068 264.989 186.302Z" fill="#FA9778"/>
<path d="M274.617 200.986C274.41 201.077 274.238 201.235 274.129 201.433C274.02 201.632 273.98 201.861 274.014 202.085C274.295 203.855 275.06 208.12 276.119 209.367C277.178 210.614 285.506 206.162 287.571 204.982C287.715 204.895 287.837 204.775 287.927 204.634C288.018 204.492 288.075 204.331 288.094 204.164L288.362 200.986C288.362 200.986 290.414 203.989 290.883 203.989C291.599 203.787 292.288 203.499 292.935 203.131C293.167 203.008 293.343 202.8 293.426 202.55C293.508 202.3 293.491 202.028 293.377 201.79L289.837 195.26C289.714 195.027 289.506 194.851 289.256 194.769C289.006 194.686 288.733 194.704 288.496 194.817L274.617 200.986Z" fill="white"/>
<path d="M399.42 131.014C398.123 125.31 394.652 120.336 389.746 117.149C384.84 113.963 378.884 112.815 373.145 113.95C367.406 115.085 362.336 118.413 359.011 123.227C355.687 128.041 354.371 133.962 355.343 139.731L354.873 139.865C353.331 140.495 352.101 141.712 351.455 143.248C350.809 144.784 350.799 146.514 351.427 148.058C352.607 150.914 356.791 154.226 359.929 153.985C361.251 157.8 363.102 161.411 365.427 164.713C369.812 170.076 376.865 172.383 381.813 173.335C383.64 173.703 385.526 173.653 387.33 173.188C389.135 172.724 390.811 171.857 392.233 170.653C395.479 167.987 398.18 164.717 400.185 161.025C401.163 159.157 401.846 157.148 402.209 155.071C402.4 153.766 402.467 152.446 402.411 151.129C402.021 144.348 401.02 137.615 399.42 131.014V131.014Z" fill="#FA9778"/>
<path d="M378.851 155.674C378.851 156.735 378.536 157.772 377.947 158.654C377.357 159.536 376.52 160.224 375.54 160.63C374.559 161.036 373.481 161.142 372.44 160.935C371.4 160.728 370.444 160.217 369.694 159.467C368.944 158.717 368.433 157.761 368.226 156.721C368.019 155.68 368.125 154.602 368.531 153.622C368.937 152.642 369.625 151.804 370.507 151.215C371.389 150.625 372.426 150.311 373.487 150.311C374.91 150.311 376.274 150.876 377.28 151.882C378.286 152.887 378.851 154.252 378.851 155.674Z" fill="#FA845F"/>
<path d="M402.411 151.101C402.467 152.419 402.4 153.739 402.209 155.044C401.846 157.121 401.163 159.13 400.185 160.998H399.702C398.279 160.998 396.915 160.433 395.909 159.427C394.903 158.421 394.338 157.056 394.338 155.634C394.338 154.211 394.903 152.847 395.909 151.841C396.915 150.835 398.279 150.27 399.702 150.27C400.665 150.288 401.603 150.576 402.411 151.101Z" fill="#FA845F"/>
<path d="M385.796 143.579C386.426 145.59 387.137 147.239 387.619 149.264C387.916 150.362 387.916 151.519 387.619 152.617C387.383 153.152 387.012 153.617 386.542 153.965C386.071 154.313 385.518 154.532 384.938 154.601C385.539 153.936 385.951 153.121 386.131 152.241C386.079 151.374 385.931 150.515 385.688 149.68C385.467 148.696 385.323 147.696 385.259 146.69C385.17 145.624 385.354 144.553 385.796 143.579V143.579Z" fill="#0B334C"/>
<path d="M380.123 134.93C379.587 134.93 378.97 134.849 378.42 134.849C377.869 134.835 377.318 134.862 376.771 134.93C376.241 135.03 375.73 135.21 375.256 135.466C374.762 135.756 374.311 136.112 373.915 136.525V136.525C373.876 136.564 373.83 136.595 373.779 136.616C373.729 136.637 373.674 136.648 373.62 136.648C373.565 136.648 373.51 136.637 373.46 136.616C373.409 136.595 373.363 136.564 373.325 136.525C373.273 136.466 373.238 136.393 373.224 136.315C373.21 136.237 373.217 136.157 373.244 136.083C373.5 135.398 373.914 134.782 374.451 134.286C375.001 133.771 375.661 133.391 376.382 133.173C377.087 132.945 377.829 132.854 378.568 132.905C379.296 132.948 380.008 133.14 380.66 133.468C380.749 133.512 380.829 133.574 380.895 133.649C380.96 133.724 381.01 133.812 381.041 133.907C381.073 134.002 381.085 134.102 381.077 134.202C381.069 134.301 381.041 134.398 380.995 134.487C380.931 134.619 380.83 134.729 380.703 134.803C380.576 134.877 380.431 134.912 380.284 134.903L380.123 134.93Z" fill="#0B334C"/>
<path d="M391.32 133.495C391.972 133.167 392.684 132.975 393.412 132.932C394.147 132.881 394.885 132.972 395.585 133.2C396.311 133.414 396.977 133.795 397.529 134.313C398.066 134.809 398.48 135.425 398.736 136.11C398.77 136.197 398.774 136.294 398.746 136.384C398.718 136.474 398.661 136.552 398.583 136.605C398.505 136.658 398.411 136.683 398.317 136.676C398.223 136.669 398.134 136.63 398.066 136.566V136.566C397.667 136.155 397.216 135.799 396.725 135.506C396.246 135.249 395.73 135.068 395.196 134.97C394.649 134.902 394.098 134.875 393.546 134.889C392.997 134.889 392.393 134.889 391.857 134.97H391.75C391.65 134.975 391.55 134.961 391.456 134.927C391.362 134.894 391.276 134.841 391.202 134.774C391.128 134.707 391.069 134.625 391.027 134.534C390.985 134.444 390.962 134.346 390.958 134.246C390.938 134.099 390.961 133.949 391.026 133.815C391.09 133.682 391.193 133.57 391.32 133.495V133.495Z" fill="#0B334C"/>
<path d="M396.068 146.516C396.068 148.299 395.169 149.747 394.056 149.747C392.943 149.747 392.045 148.299 392.045 146.516C392.045 144.732 392.943 143.271 394.056 143.271C395.169 143.271 396.068 144.665 396.068 146.516Z" fill="#0B334C"/>
<path d="M379.882 146.516C379.882 148.299 378.97 149.747 377.871 149.747C376.771 149.747 375.846 148.299 375.846 146.516C375.846 144.732 376.758 143.271 377.871 143.271C378.984 143.271 379.882 144.665 379.882 146.516Z" fill="#0B334C"/>
<path d="M382.324 159.764C381.765 159.805 381.205 159.713 380.688 159.496C380.151 159.299 379.7 158.919 379.414 158.423C379.937 158.665 380.38 158.879 380.876 159.067C381.372 159.269 381.856 159.502 382.324 159.764V159.764Z" fill="#0B334C"/>
<path d="M381.654 158.625C382.484 158.625 383.156 157.58 383.156 156.291C383.156 155.003 382.484 153.958 381.654 153.958C380.825 153.958 380.152 155.003 380.152 156.291C380.152 157.58 380.825 158.625 381.654 158.625Z" fill="#0B334C"/>
<path d="M401.243 140.133C401.243 140.133 400.774 124.041 391.763 116.438C382.752 108.835 369.731 112.643 360.921 119.039C352.11 125.436 354.833 139.865 354.833 139.865C354.833 139.865 361.631 150.096 365.896 149.613C370.16 149.131 371.34 130.84 371.34 130.84C371.34 130.84 390.301 139.851 396.939 133.683L401.243 140.133Z" fill="#0B334C"/>
<path d="M339.896 112.723C336.161 113.774 332.819 115.905 330.293 118.849C327.766 121.794 326.166 125.42 325.695 129.271C325.038 135.533 327.465 141.97 325.856 148.044C324.904 151.665 322.624 154.749 320.747 157.994C317.797 163.117 315.799 168.977 316.241 174.864C316.684 180.75 319.915 186.637 325.225 189.212C327.444 190.228 329.84 190.802 332.279 190.901C338.474 191.325 344.627 189.612 349.711 186.047C351.115 185.132 352.289 183.907 353.144 182.467C353.835 181.064 354.232 179.536 354.311 177.975C354.726 173.711 354.312 169.408 353.091 165.302C352.219 162.352 350.932 159.523 349.966 156.6C348.237 151.768 347.775 146.574 348.625 141.514C349.063 138.991 350.012 136.585 351.414 134.442C352.816 132.3 354.642 130.467 356.778 129.056C357.555 128.665 358.261 128.148 358.87 127.528C362.209 123.505 359.46 118.248 355.974 115.781C353.67 114.147 351.042 113.028 348.268 112.501C345.493 111.973 342.638 112.049 339.896 112.723V112.723Z" fill="#0B334C"/>
<path d="M302.415 275.704C302.415 275.704 312.378 343.946 326.123 347.271C339.868 350.597 367.358 346.802 378.26 354.848C389.162 362.894 424.711 402.13 424.711 402.13C424.711 402.13 341.29 400.36 308.584 374.292C275.877 348.223 302.415 275.704 302.415 275.704Z" fill="#784AAB"/>
<path d="M594.558 196.52H467.998C467.213 196.52 466.576 197.156 466.576 197.941V279.941C466.576 280.726 467.213 281.363 467.998 281.363H594.558C595.343 281.363 595.979 280.726 595.979 279.941V197.941C595.979 197.156 595.343 196.52 594.558 196.52Z" fill="#1F5B99"/>
<path d="M470.371 196.52H467.998C467.622 196.524 467.262 196.674 466.996 196.94C466.731 197.206 466.58 197.566 466.576 197.941V279.941C466.576 280.318 466.726 280.68 466.993 280.946C467.259 281.213 467.621 281.363 467.998 281.363H470.371V196.52Z" fill="#256CB5"/>
<path d="M547.582 292.976H501.721V296.998H547.582V292.976Z" fill="#256CB5"/>
<path d="M569.118 297.012H531.196L515.547 247.235H548.736L569.118 297.012Z" fill="#1F5B99"/>
<path d="M571.8 297.012H533.878L518.242 247.235H551.418L571.8 297.012Z" fill="#1F5B99"/>
<path d="M470.371 197.968V280.438" stroke="#0B334C" stroke-width="1.06" stroke-linecap="round" stroke-linejoin="round"/>
<path d="M551.889 247.021H515.16L526.304 280.679" stroke="#0B334C" stroke-width="1.06" stroke-linecap="round" stroke-linejoin="round"/>
<path d="M175.884 545.398L258.018 302.711H237.796L155.662 545.398H175.884Z" fill="#0B334C"/>
<path d="M386.293 545.398L304.159 302.711H283.938L366.071 545.398H386.293Z" fill="#0B334C"/>
<path d="M628.364 297.025H218.834V317.247H628.364V297.025Z" fill="#0B334C"/>
<path d="M309.845 297.025H218.834V317.247H309.845V297.025Z" fill="#256DB8"/>
</svg>
