<svg width="574" height="548" viewBox="0 0 574 548" fill="none" xmlns="http://www.w3.org/2000/svg">
<path opacity="0.2" d="M2.05703 322.388C50.3617 321.836 98.6664 321.616 146.971 321.726C146.771 319.72 146.735 317.701 146.863 315.689C134.718 315.11 122.559 314.519 110.387 313.917C109.782 313.917 110.387 289.812 110.387 289.812C140.926 289.547 171.463 289.503 201.997 289.679C201.997 287.75 201.997 285.282 201.997 282.74L198.975 282.674L121.135 281.018C121.06 281.018 120.746 265.375 120.92 259.297C107.786 258.077 94.6751 256.724 81.5859 255.239C80.7578 255.148 81.3375 243.116 81.5859 236.094V231.126L179.349 231.854L139.717 228.998C139.146 228.956 139.543 204.9 139.717 204.892L293.243 197.655L154.366 185.325L64.5771 177.358C63.9064 177.3 64.4695 153.261 64.5771 153.253L335.997 139.242L412.785 135.275C412.305 135.275 413.746 159.331 412.785 159.381L236.346 168.49L381.26 181.35L471.049 189.316C471.753 189.382 471.123 213.421 471.049 213.421C427.988 215.425 384.912 217.44 341.818 219.466L461.244 228.087L552.093 234.637C552.764 234.686 552.242 249.062 552.093 255.587V258.75L426.399 257.806C426.399 259.703 426.399 261.64 426.399 263.446L475.603 264.497C475.91 264.497 475.827 274.666 475.727 281.788C496.264 282.064 516.806 282.193 537.353 282.177C537.353 282.177 537.916 306.266 537.353 306.282C525.716 306.768 514.084 307.207 502.458 307.599C502.392 311.739 502.259 316.426 502.201 319.424V322.546C498.259 322.48 494.309 322.388 490.368 322.306C490.368 323.134 490.368 323.962 490.326 324.583V326.479C476.111 326.258 461.893 326.004 447.672 325.717C447.672 325.916 447.672 326.115 447.672 326.314C470.422 326.959 493.161 327.674 515.889 328.458C516.419 328.458 516.005 343.032 515.889 349.516V352.572L502.847 352.183C502.781 356.63 502.673 361.292 502.64 363.652V365.308C427.608 364.041 352.542 363.652 277.51 364.637C298.968 366.812 320.437 368.916 341.918 370.947C364.342 373.05 386.778 375.063 409.224 376.984C410.011 377.058 409.506 387.128 409.224 394.233V401.089C351.811 398.329 294.372 396.33 236.909 395.094C272.053 399.698 307.202 404.266 342.357 408.799C369.932 412.326 397.548 415.846 425.206 419.357C425.347 419.357 425.43 420.185 425.471 421.303L472.672 423.265L571.702 427.339C571.834 427.339 572.315 451.395 571.702 451.445C515.873 456.132 459.82 459.055 403.676 460.868C347.259 462.698 290.792 463.427 234.334 463.758C202.552 463.94 170.773 464.043 138.997 464.065C138.79 464.065 138.723 439.959 138.997 439.959C185.493 439.868 231.998 439.769 278.503 439.289C258.629 438.46 238.786 437.632 218.973 436.804L119.901 432.664C119.371 432.664 119.835 408.558 119.901 408.558C131.599 408.437 143.303 408.379 155.012 408.385C146.543 407.28 138.075 406.154 129.606 405.006C102.004 401.313 74.4009 397.595 46.7982 393.852C45.8956 393.728 46.5498 381.132 46.7982 374.201V369.746C66.5893 369.581 86.375 369.509 106.155 369.531C105.484 369.407 105.824 357.441 106.039 350.419L2.05703 346.494C1.5519 346.477 1.94938 322.388 2.05703 322.388Z" fill="#784AAB"/>
<path opacity="0.2" d="M148.628 197.183C148.479 197.183 148.396 196.355 148.354 195.237L101.154 193.274L2.10698 189.183C1.97449 189.183 1.4942 165.169 2.10698 165.078C57.9362 160.408 113.997 157.484 170.108 155.671C226.517 153.841 282.984 153.112 339.442 152.781C371.224 152.599 403.006 152.497 434.787 152.475C434.994 152.475 435.052 176.58 434.787 176.58C388.282 176.671 341.777 176.762 295.281 177.251L354.82 179.743L453.883 183.884C454.413 183.884 453.949 207.989 453.883 207.989C442.179 208.111 430.476 208.169 418.772 208.163L444.186 211.542C471.789 215.235 499.391 218.953 526.994 222.696C527.897 222.82 527.243 235.415 526.994 242.346V246.818C507.214 246.983 487.431 247.055 467.646 247.033C468.308 247.182 467.969 259.131 467.762 266.145L571.777 270.045C572.265 270.045 571.876 294.151 571.777 294.151C523.472 294.703 475.167 294.924 426.863 294.813C427.062 296.819 427.101 298.838 426.979 300.85C439.124 301.402 451.269 301.993 463.414 302.622C464.019 302.622 463.414 326.728 463.414 326.728C432.886 326.993 402.349 327.034 371.804 326.852C371.804 328.789 371.804 331.257 371.804 333.799L374.818 333.866L452.699 335.522C452.773 335.522 453.088 351.164 452.922 357.242C466.056 358.462 479.167 359.815 492.256 361.3C493.084 361.391 492.496 373.415 492.256 380.445V385.414L394.485 384.677L434.158 387.591C434.729 387.591 434.324 411.689 434.158 411.697L280.624 418.893L419.41 431.206L509.199 439.181C509.878 439.239 509.306 463.278 509.199 463.286L237.812 477.297L161.049 481.264C161.537 481.264 160.088 457.25 161.049 457.158L337.488 448.05L192.574 435.198L102.785 427.232C102.081 427.165 102.719 403.126 102.785 403.126L232.015 397.081L112.631 388.42L21.7822 381.894C21.1114 381.894 21.6331 367.486 21.7822 360.952V357.781L147.477 358.725C147.477 356.828 147.477 354.882 147.477 353.085L98.272 352.034C97.9656 352.034 98.0484 341.865 98.1478 334.743C77.6114 334.473 57.0722 334.343 36.5303 334.354C36.5303 334.354 35.9589 310.265 36.5303 310.24C48.1565 309.76 59.7855 309.324 71.4173 308.932C71.4836 304.792 71.6161 300.105 71.674 297.115V294.018C75.624 294.085 79.5656 294.176 83.5073 294.259C83.5073 293.389 83.5073 292.602 83.557 291.99V290.077C97.7779 290.309 111.993 290.563 126.203 290.839C126.203 290.64 126.203 290.449 126.203 290.251C103.464 289.594 80.7277 288.876 57.9941 288.098C57.4559 288.098 57.8699 273.532 57.9941 267.048V263.992L71.0281 264.381C71.0944 259.935 71.202 255.272 71.2434 252.912V251.256C146.268 252.523 221.333 252.912 296.365 251.935C274.913 249.727 253.443 247.624 231.957 245.625C209.544 243.522 187.108 241.507 164.651 239.58C163.864 239.514 164.378 229.445 164.651 222.34V215.475C222.065 218.235 279.503 220.236 336.966 221.479C301.845 216.841 266.706 212.27 231.552 207.766C203.916 204.216 176.274 200.688 148.628 197.183Z" fill="#784AAB"/>
<path d="M316.512 266.386C349.221 313.586 329.918 368.239 428.038 391.31C526.157 414.38 521.337 427.24 469.864 424.557C418.39 421.874 545.468 429.915 565.838 435.819C586.209 441.723 558.336 425.625 561.011 451.354C563.685 477.082 587.286 519.455 536.889 497.47C486.492 475.484 490.235 381.124 430.174 452.439C370.113 523.753 362.048 542.517 310.856 533.938C259.664 525.359 341.702 369.333 247.094 421.319C152.486 473.306 243.028 552.703 158.34 500.691C73.6522 448.679 58.606 538.783 60.2125 469.058C61.819 399.334 46.8142 415.978 32.8858 406.323C18.9575 396.667 46.2925 330.727 90.7935 379.518C135.295 428.308 216.803 346.726 232.346 304.163C247.889 261.599 267.464 248.292 267.464 248.292C267.464 248.292 281.219 265.864 295.114 265.864C309.009 265.864 316.512 266.386 316.512 266.386Z" fill="#784AAB"/>
<path d="M276.524 254.759C243.152 276.761 233.919 318.703 225.936 355.197C223.676 365.506 221.63 375.899 219.577 386.217C217.771 395.325 215.436 404.169 210.89 412.359C202.551 427.472 189.227 439.396 174.595 448.281C155.425 459.874 133.937 466.838 113.019 474.531C111.595 475.053 114.278 486.489 113.019 486.953C147.418 474.299 186.155 462.4 207.578 430.237C218.45 413.908 220.305 394.166 224.264 375.41C228.487 355.395 232.677 335.016 240.105 315.896C247.533 296.776 259.059 278.699 276.54 267.18C277.095 266.816 276.598 261.723 276.598 260.969C276.598 260.216 275.994 255.123 276.54 254.759H276.524Z" fill="#784AAB"/>
<path d="M50.6312 395.045C80.4421 414.844 118.592 426.379 153.214 412.269C169.494 405.644 183.853 393.753 197.301 382.623C210.749 371.494 223.203 358.982 232.66 344.167C243.806 326.728 251.052 307.202 258.223 287.858C259.125 285.374 257.328 281.979 258.223 279.577C251.896 296.611 245.528 313.76 236.461 329.568C227.542 345.136 215.717 358.394 202.22 370.144C189.095 381.564 174.81 393.331 159.226 401.214C143.235 409.304 124.885 411.639 107.214 409.37C86.7686 406.754 67.6731 398.067 50.6312 386.739C51.8651 387.567 49.3146 394.142 50.6312 395.02V395.045Z" fill="#784AAB"/>
<path d="M293.988 275.486C322.341 291.6 339.052 321.61 357.212 347.529C367.993 362.904 379.034 378.085 390.335 393.073C400.363 406.389 410.076 420.971 422.713 431.993C437.262 444.688 455.836 448.331 474.7 448.074C474.799 448.074 474.7 439.794 474.7 439.794C458.138 440.026 441.179 437.458 427.499 427.538C413.968 417.734 404.205 403.068 394.219 389.918C382.857 374.98 371.758 359.851 360.921 344.531C351.216 330.802 342.058 316.65 331.98 303.185C321.447 289.108 309.415 276.008 293.988 267.238C295.13 267.884 292.762 274.815 293.988 275.519V275.486Z" fill="#784AAB"/>
<path d="M275.199 273.225C290.543 296.635 306.02 320.252 316.768 346.212C327.906 373.092 332.916 402.281 333.264 431.314C333.479 449.581 331.723 467.907 329.521 486.025C329.189 488.75 329.852 491.598 329.521 494.306C333.098 464.893 334.762 434.966 332.402 405.37C329.769 372.33 320.246 341.384 304.422 312.302C295.544 295.997 285.376 280.454 275.199 264.944C276.441 266.849 273.907 271.271 275.199 273.225V273.225Z" fill="#784AAB"/>
<path d="M62.389 461.009C66.9425 467.363 72.8548 472.623 79.6959 476.406C86.5371 480.189 94.1353 482.4 101.938 482.878C110.351 483.326 118.044 482.671 125.505 487.259C131.302 490.82 135.972 495.912 140.982 500.45C146.29 505.261 152.07 509.46 159.2 510.967C167.323 512.681 175.844 511.124 183.421 507.994C199.618 501.312 211.054 487.375 224.328 476.527C230.779 471.26 237.851 466.507 245.743 463.675C253.038 461.058 263.629 458.806 269.889 464.768C275.934 470.565 279.106 480.609 281.383 488.418C283.867 497.039 284.43 506.164 287.395 514.66C289.879 521.649 294.632 528.489 301.911 531.023C310.076 533.872 316.974 529.003 322.853 523.827C336.931 511.472 350.586 498.695 364.854 486.563C395.269 460.744 429.046 437.317 468.422 428.002C469.101 427.844 467.867 419.853 468.422 419.721C433.642 427.944 403.003 447.246 375.519 469.406C360.929 481.181 347.042 493.793 333.105 506.321C326.961 511.853 320.477 519.488 312.594 522.51C305.348 525.284 298.052 522.08 293.142 516.532C287.461 510.114 285.813 501.477 284.306 493.345C282.6 484.087 280.298 475.128 276.266 466.623C274.676 463.253 272.953 459.609 270.337 456.91C266.975 453.448 262.47 452.612 257.799 452.852C249.519 453.266 241.569 456.545 234.555 460.86C219.691 469.969 208.736 484.046 194.302 493.776C181.111 502.645 163.357 507.506 148.981 498.446C142.531 494.38 137.479 488.509 131.732 483.607C124.628 477.521 117.572 474.788 108.174 474.664C99.1309 474.548 90.7342 473.529 82.503 469.588C74.4909 465.739 67.5787 459.931 62.4055 452.703C63.6973 454.492 61.0806 459.129 62.4055 460.984L62.389 461.009Z" fill="#784AAB"/>
<path d="M345.71 547.047C416.312 551.345 395.394 462.334 466.146 484.311C536.897 506.289 553.715 511.911 553.715 511.911C553.715 511.911 529.949 499.863 506.896 465.539C483.842 431.215 479.014 402.803 436.111 444.092C393.208 485.38 275.107 542.757 345.71 547.047Z" fill="black"/>
<path d="M260.7 291.915C255.781 307.764 247.078 315.59 247.078 315.59" stroke="black" stroke-miterlimit="10"/>
<path d="M46.964 413.262C64.6435 421.344 84.9811 421.352 103.911 418.901C119.845 416.732 135.521 412.973 150.706 407.681C153.811 406.621 156.916 405.528 159.947 404.277C160.461 404.07 159.492 400.327 159.947 400.137C151.336 403.572 142.516 406.456 133.54 408.774C115.62 413.576 96.8889 416.831 78.282 416.036C67.5169 415.572 56.8016 413.618 46.964 409.121C47.4608 409.353 46.4174 413.013 46.964 413.262V413.262Z" fill="black"/>
<path d="M271.291 262.493C250.274 278.723 244.031 303.731 239.236 328.574C234.441 353.416 229.142 379.31 209.582 397.164C194.851 410.645 175.416 417.485 156.196 421.559C155.881 421.625 156.444 425.65 156.196 425.699C173.586 422.014 191.042 416.127 205.185 404.997C215.558 396.729 223.619 385.921 228.587 373.621C238.234 350.435 238.64 324.707 247.053 301.14C251.914 287.518 259.781 275.469 271.291 266.6C271.978 266.07 270.645 262.957 271.291 262.46V262.493Z" fill="black"/>
<path d="M45.199 365.647C52.7014 379.857 63.5824 392.866 79.3077 398.033C99.4383 404.658 121.416 397.462 139.65 388.593C155.002 381.141 169.32 371.618 182.983 361.432C196.879 351.081 210.492 340.018 222.317 327.307C232.461 316.41 241.363 304.055 243.367 288.992C243.822 285.572 243.872 281.68 246.141 278.856C249.453 274.716 255.888 273.482 260.699 272.347C261.038 272.273 260.425 268.273 260.699 268.207C256.095 269.292 250.373 270.459 246.861 273.929C244.584 276.173 244.087 279.212 243.69 282.251C241.976 295.434 236.643 306.133 228.188 316.468C218.707 328.061 207.337 338.064 195.719 347.438C181.178 359.147 165.908 370.152 149.579 379.261C130.475 389.927 107.222 399.905 84.8641 395.367C66.431 391.624 53.662 377.53 45.199 361.507C45.7621 362.575 44.6276 364.554 45.199 365.647Z" fill="black"/>
<path d="M68.7918 361.176C70.2658 367.726 71.5907 374.334 73.4787 380.776C74.7457 385.091 76.2776 389.604 79.209 393.098C85.8337 400.965 97.9154 400.128 107.115 399.615C107.223 399.615 107.074 395.475 107.115 395.475C97.9319 395.988 85.784 396.824 79.209 388.958C76.3604 385.563 74.8451 381.215 73.5947 377.025C71.6404 370.458 70.2823 363.709 68.7918 357.035C69.0899 358.344 68.502 359.859 68.7918 361.176V361.176Z" fill="black"/>
<path d="M63.1685 471.277C80.9971 488.31 105.235 482.721 122.898 468.577C125.382 466.573 128.91 464.487 131.021 462.069C131.104 461.977 131.518 461.994 131.518 461.994C131.112 462.574 132.471 457.44 131.469 459.27C130.881 460.363 130.765 462.201 130.508 463.41C128.943 470.797 129.084 478.224 126.939 485.512C125.531 490.331 124.455 494.728 124.504 499.763C124.562 505.51 127.187 509.534 131.849 512.871C150.523 526.245 174.487 527.561 195.057 518.303C214.873 509.385 233.67 492.757 243.856 473.422C244.435 472.329 243.301 470.349 243.856 469.281C234.912 486.265 219.353 500.748 202.808 510.205C193.5 515.521 183.174 519.388 172.425 520.258C160.567 521.227 149.239 517.865 138.648 512.689C132.363 509.617 126.392 505.783 124.67 498.67C124.405 497.585 124.248 500.135 124.67 498.471C124.803 497.966 124.836 497.403 124.935 496.889C125.208 495.506 125.589 494.148 125.978 492.799C126.806 490.033 127.635 487.292 128.28 484.518C129.109 480.502 129.109 476.411 129.647 472.353C130.077 469.231 131.071 466.209 131.518 463.104C131.651 462.176 132.181 458.765 131.601 458.185C130.773 457.406 128.968 459.485 128.222 460.089C119.114 467.542 109.856 474.424 98.1218 477.04C85.154 479.93 72.7162 476.328 63.1436 467.178C63.8144 467.815 62.4315 470.639 63.1436 471.318L63.1685 471.277Z" fill="black"/>
<path d="M147.079 474.763C148.04 478.366 149.563 482.73 153.406 479.086C155.89 476.776 157.753 473.745 159.658 470.987C163.02 466.118 166.282 461.175 169.595 456.281C176.849 445.632 183.233 435.04 188.467 423.24C190.247 419.224 191.887 415.117 193.924 411.217C194.677 409.767 196.06 406.538 198.023 406.381C200.308 406.19 201.509 409.95 202.163 411.539C204.358 417.146 205.475 423.133 207.065 428.929C208.455 434.475 210.325 439.889 212.655 445.11C213.963 447.876 215.611 451.08 218.253 452.811C222.94 455.875 227.627 451.362 230.608 448.008C235.137 442.924 237.986 438.021 239.004 431.264C240.768 419.58 239.51 407.523 238.864 395.806C238.864 395.226 238.864 394.63 238.781 394.059C238.739 393.67 238.657 392.659 238.781 394.671C238.93 397.702 238.698 395.218 238.781 395.226C238.69 395.226 238.98 394.092 239.104 394.175C239.945 394.851 240.577 395.753 240.926 396.775C245.174 405.817 248.113 415.638 251.368 425.062C259.69 449.143 265.735 474.093 274.86 497.883C278.396 507.1 285.153 524.556 298.047 517.757C305.019 514.097 310.352 507.133 314.658 500.74C320.024 492.504 324.599 483.779 328.321 474.681C334.249 460.683 339.121 446.262 342.895 431.538C343.127 430.668 343.351 429.79 343.558 428.921C343.873 427.604 343.252 426.072 343.558 424.78C340.895 435.627 337.616 446.313 333.737 456.786C327.361 474.316 319.61 493.263 306.41 506.885C302.609 510.818 297.103 515.902 291.132 515.223C285.808 514.619 282.346 509.485 279.953 505.212C275.597 497.411 272.832 488.692 270.091 480.229C266.165 468.081 262.596 455.825 258.771 443.644C254.542 430.202 250.007 416.861 245.165 403.623C244.809 402.646 240.768 389.604 239.096 390.001C237.009 390.498 239.584 413.842 239.626 415.672C239.758 422.296 239.46 430.146 236.272 436.158C233.788 440.804 228.761 447.594 223.503 449.333C217.706 451.254 214.154 444.447 212.199 440.125C207.355 429.36 206.312 417.435 201.791 406.637C201.153 405.122 199.994 401.925 197.841 402.224C195.688 402.522 194.33 406.14 193.559 407.656C188.906 416.864 185.37 426.553 180.31 435.579C174.157 446.542 166.498 456.86 159.335 467.195C157.985 469.149 153.008 478.266 149.539 476.155C147.965 475.186 147.444 472.172 147.054 470.59C147.394 471.865 146.707 473.43 147.054 474.73L147.079 474.763Z" fill="black"/>
<path d="M235.013 313.52C225.018 335.232 216.646 358.103 204.415 378.706C195.016 394.556 182.314 407.109 164.907 413.784C152.304 418.611 138.757 420.541 125.367 421.559C125.226 421.559 125.433 425.7 125.367 425.7C146.491 424.101 168.708 420.019 185.444 406.074C200.283 393.711 208.953 375.65 216.812 358.426C222.981 344.879 228.786 331.174 235.029 317.66C235.559 316.509 234.508 314.646 235.029 313.52H235.013Z" fill="black"/>
<path d="M298.824 277.978C323.931 305.305 347.747 333.783 372.275 361.614C380.249 370.657 388.381 379.609 397.183 387.856C408.048 398.05 420.444 406.356 431.466 416.375C439.664 423.828 448.127 431.935 454.313 441.218C453.683 440.274 454.959 438.046 454.313 437.077C440.459 416.301 418.581 403.052 400.363 386.664C380.415 368.736 363.538 347.429 346.091 327.15C330.6 309.147 314.845 291.377 298.824 273.838C299.495 274.575 298.12 277.216 298.824 277.978Z" fill="black"/>
<path d="M292.82 279.054C304.041 315.598 317.265 351.462 331.094 387.086C339.855 409.659 350.14 432.34 355.763 455.974C357.816 464.652 359.638 473.413 360.831 482.249C361.178 484.841 361.476 487.449 361.659 490.066C361.766 491.722 361.576 495.862 361.808 490.53C361.75 491.772 361.857 493.544 361.808 494.529C361.962 488.453 361.546 482.376 360.566 476.378C358.635 462.612 355.459 449.051 351.076 435.86C340.725 405.221 327.89 375.41 316.669 345.077C308.107 321.891 300.058 298.539 292.804 274.914C293.193 276.164 292.415 277.779 292.804 279.054H292.82Z" fill="black"/>
<path d="M308.826 274.492C327.598 293.099 344.654 313.362 359.787 335.033C368.978 348.067 377.806 362.36 390.773 372.056C405.256 382.821 423.383 386.457 441.087 384.958C446.346 384.511 450.412 384.892 453.202 389.877C454.91 393.052 456.122 396.47 456.796 400.012C456.929 400.675 456.987 401.337 457.103 402C457.105 402.432 457.138 402.864 457.202 403.292C457.111 403.159 457.5 400.186 457.202 401.354C456.912 402.356 456.929 403.474 456.631 404.501C455.935 406.861 454.146 408.773 453.467 411.125C452.879 413.245 452.689 416.218 454.751 417.377C456.283 418.205 458.411 418.421 460.092 418.735C463.694 419.406 467.321 419.911 470.94 420.441C485.166 422.511 499.401 424.582 513.611 426.71C524.997 428.44 536.399 430.179 547.703 432.382C553.971 433.608 560.53 434.792 566.442 437.301C568.036 437.862 569.503 438.734 570.757 439.868C571.137 440.265 571.369 440.762 571.725 441.16C573.257 442.882 569.672 442.269 572.024 439.048C570.872 440.63 571.038 442.153 568.869 443.238C566.012 444.679 562.318 444.182 559.255 443.95C556.77 443.752 552.936 442.957 550.667 444.422C548.68 445.722 549.077 448.422 549.119 450.492C549.26 456.885 553.425 463.195 556.033 468.892C559.072 475.517 562.277 482.506 563.378 489.801C563.511 490.687 563.378 492.857 563.643 490.29C563.591 491.027 563.488 491.76 563.337 492.484C563.074 493.704 562.558 494.855 561.822 495.863C560.016 498.231 557.11 499.175 554.253 499.423C549.409 499.904 544.448 498.778 539.786 497.569C540.093 497.651 539.422 501.618 539.786 501.709C546.038 503.365 557.549 506.388 562.087 499.63C564.645 495.821 564.016 489.354 563.279 485.048C562.012 477.595 558.708 470.557 555.578 463.766C554.071 460.495 552.489 457.258 551.057 453.954C550.792 453.349 548.713 448.944 549.235 448.596C549.235 449.233 549.235 449.871 549.235 450.509L549.359 450.078C549.491 450.078 549.566 449.441 549.748 449.349C550.344 449.051 550.742 448.521 551.404 448.223C557.102 446.054 565.109 451.072 570.16 446.501C572.322 444.538 572.703 440.299 571.908 437.64C570.988 434.568 566.815 433.235 564.148 432.308C557.126 429.823 549.649 428.573 542.353 427.248C516.517 422.569 490.441 419.414 464.514 415.34C461.829 414.994 459.167 414.494 456.539 413.841C455.852 413.651 453.981 412.351 453.492 412.343C453.492 412.343 453.401 412.127 453.384 412.127V412.078C453.211 411.374 453.202 411.953 453.384 413.808V415.647V415.522C453.384 415.522 453.384 415.299 453.451 415.266C453.713 414.868 453.924 414.44 454.08 413.99C454.701 412.79 455.455 411.68 455.985 410.43C457.5 406.836 457.467 402.729 457.218 398.895C456.862 393.562 454.734 385.38 450.155 382.101C445.874 379.054 438.901 381.207 434.098 381.381C423.333 381.77 412.428 379.219 402.59 374.864C388.016 368.371 378.004 356.439 368.895 343.811C355.116 324.698 341.759 305.52 325.885 288.023C320.386 281.961 314.689 276.09 308.851 270.352C309.522 271.014 308.147 273.805 308.851 274.492H308.826Z" fill="black"/>
<path d="M281.038 281.108C289.032 303.152 296.231 325.463 302.635 348.042C308.431 368.52 313.706 389.28 316.861 410.347C318.178 419.099 319.585 428.283 318.244 437.11C318.037 438.46 318.443 439.909 318.244 441.251C320.538 426.113 317.755 409.916 314.973 395.069C310.195 369.605 303.181 344.556 295.472 319.821C290.983 305.429 286.172 291.145 281.038 276.968C281.477 278.177 280.591 279.874 281.038 281.108V281.108Z" fill="black"/>
<path d="M299.934 282.897C323.021 334.818 346.754 387.235 362.57 441.947C365.444 451.884 368.002 461.903 370.313 471.989C370.015 470.689 370.611 469.166 370.313 467.849C360.011 422.851 343.342 379.857 325.439 337.41C317.158 317.759 308.596 298.233 299.934 278.757C300.439 279.891 299.421 281.73 299.934 282.897Z" fill="black"/>
<path d="M319.485 272.347C339.773 301.404 356.086 333.525 378.477 361.076C387.329 371.965 397.523 382.109 409.994 388.816C422.167 395.375 436.733 398.753 450.462 399.888C457.973 400.501 465.889 399.524 473.185 401.776C483.536 404.972 490.856 413.559 500.437 418.238C511.541 423.654 523.83 426.237 535.812 428.904C545.675 431.107 557.061 432.763 565.623 438.476C568.672 440.356 570.906 443.311 571.884 446.757C572.488 448.861 572.19 445.929 571.884 447.585C571.805 448.157 571.755 448.731 571.734 449.308C571.635 450.707 571.577 452.107 571.544 453.514C571.378 460.247 571.668 466.987 571.13 473.703C570.02 487.681 564.348 500.086 549.401 503C538.04 505.22 525.9 502.735 514.903 499.812C497.754 495.266 481.234 488.915 463.811 485.304C441.933 480.766 419.409 479.831 398.69 489.279C375.695 499.771 356.955 517.807 334.754 529.772C324.287 535.412 312.603 540.927 300.555 541.779C295.023 542.169 287.123 541.465 283.993 536.132C281.012 531.106 280.192 524.373 279.157 518.742C277.501 509.874 276.317 500.922 275.017 491.995C273.791 483.367 272.607 474.713 270.943 466.159C269.999 461.331 269.286 454.243 265.974 450.293C262.993 446.741 260.434 452.173 259.349 454.632C256.741 460.561 254.679 466.615 251.615 472.353C247.864 479.377 243.426 486.012 238.366 492.161C219.32 515.347 189.153 533.176 158.555 523.553C146.846 519.868 136.355 513.691 128.819 503.87C125.076 498.976 121.78 491.449 115.156 489.958C111.082 489.072 107.223 490.786 103.215 491.109C97.7164 491.598 92.1351 490.405 87.0093 488.468C74.8183 483.691 64.4525 475.177 57.3971 464.147C53.7436 458.527 51.257 452.231 50.0852 445.631C48.9424 438.907 49.8285 431.827 49.845 425.02C49.9528 420.445 49.8118 415.867 49.4227 411.307C49.0998 408.26 48.6692 404.442 46.392 402.132C44.4377 400.153 41.8706 400.211 39.287 400.087C36.0823 399.946 34.7905 398.008 34.0536 394.969C33.8715 394.194 33.7388 393.409 33.6561 392.617C33.6147 392.245 33.4656 389.57 33.507 391.268C33.5484 392.965 33.565 390.439 33.5733 390.299C33.8144 387.272 34.2599 384.264 34.9065 381.297C36.0704 375.815 37.9876 370.52 40.6037 365.564C45.4397 356.629 54.2256 349.607 64.4275 355.114C68.3609 357.233 71.6153 360.703 75.7805 362.359C80.484 364.231 82.9186 361.076 86.5456 358.616C92.102 354.84 96.0851 356.323 98.0228 362.633C100.259 369.903 100.449 377.646 102.801 384.9C105.078 391.905 109.467 397.47 117.383 397.321C117.45 397.321 117.383 393.18 117.383 393.18C99.6955 393.578 101.749 369.125 97.7329 357.573C95.1576 350.211 89.742 351.843 84.5333 355.975C80.8567 358.89 78.0909 359.685 73.8345 357.225C69.6941 354.84 66.2576 351.354 61.6949 349.706C50.5655 345.698 42.649 356.405 38.7322 365.307C34.9971 374.083 33.2033 383.563 33.4739 393.098C33.5236 396.162 33.5401 400.095 35.5524 402.621C37.4487 404.997 40.2476 403.879 42.8643 404.442C51.9152 406.38 49.8699 422.71 49.7457 428.771C49.4807 441.077 48.9838 452.355 54.8135 463.7C61.1293 475.724 71.2105 485.349 83.5148 491.101C88.6642 493.611 94.2713 495.045 99.9936 495.316C104.556 495.432 108.895 493.527 113.425 493.834C120.671 494.33 124.058 501.469 127.858 506.652C144.42 529.184 175.622 535.768 200.887 525.251C215.428 519.189 227.973 508.797 237.993 496.765C243.231 490.484 247.812 483.683 251.665 476.469C254.72 470.73 256.791 464.669 259.399 458.748C260.558 456.123 263.192 450.74 266.173 454.607C269.427 458.831 270.139 465.828 271.1 470.863C274.503 488.608 276.068 506.652 279.463 524.398C280.457 529.615 281.211 536.819 284.606 541.167C288.796 546.558 297.855 546.408 303.817 545.531C316.851 543.61 329.231 537.25 340.485 530.691C353.262 523.239 364.979 514.312 377.177 506.006C394.136 494.455 411.865 486.174 432.741 485.942C446.33 485.793 459.869 488.252 473.011 491.498C490.4 495.788 507.095 502.785 524.691 506.172C540.582 509.228 561.259 509.667 568.281 491.929C573.167 479.574 570.766 465.878 571.817 453.009C572.314 446.774 572.985 440.588 567.826 435.984C560.464 429.459 548.83 427.703 539.588 425.616C527.109 422.793 514.324 420.35 502.581 415.091C492.512 410.595 484.976 401.892 474.584 398.108C467.131 395.391 459.016 396.385 451.257 395.805C437.61 394.795 423.102 391.499 410.921 385.165C383.205 370.748 366.014 340.945 350.016 315.399C340.079 299.516 330.217 283.576 319.485 268.198C320.122 269.117 318.822 271.403 319.485 272.339V272.347Z" fill="black"/>
<path d="M318.383 262.476C310.102 265.606 301.589 268.447 292.712 266.12C284.796 264.041 278.022 259.065 271.538 254.278C272.176 254.75 270.859 257.914 271.538 258.419C278.022 263.205 284.788 268.182 292.712 270.26C301.606 272.587 310.102 269.747 318.383 266.617C318.863 266.435 317.952 262.634 318.383 262.476Z" fill="black"/>
<path d="M257.296 178.708C224.587 225.908 243.89 280.562 145.77 303.632C47.651 326.702 52.4787 339.562 103.952 336.879C155.426 334.196 28.3485 342.237 7.96939 348.141C-12.4097 354.046 15.4801 337.948 12.7971 363.693C10.1141 389.438 -13.4779 431.786 36.9274 409.8C87.3326 387.815 83.5731 293.447 143.659 364.761C203.744 436.075 211.785 454.839 262.977 446.261C314.169 437.682 232.131 281.655 326.739 333.642C421.347 385.629 330.763 465.008 415.484 413.005C500.205 361.001 515.21 451.097 513.604 381.364C511.997 311.631 527.01 328.284 540.93 318.629C554.85 308.973 527.524 243.033 483.023 291.824C438.522 340.614 357.022 259.032 341.471 216.468C325.919 173.905 306.352 160.598 306.352 160.598C306.352 160.598 292.589 178.178 278.694 178.178C264.799 178.178 257.296 178.708 257.296 178.708Z" fill="#784AAB"/>
<path d="M297.292 179.503C330.656 201.505 339.914 243.448 347.871 279.941C350.132 290.251 352.177 300.643 354.231 310.961C356.036 320.07 358.372 328.914 362.918 337.104C371.265 352.216 384.58 364.14 399.221 373.026C418.383 384.619 439.871 391.583 460.797 399.276C459.53 398.812 462.213 387.376 460.797 386.855C426.39 374.202 387.661 362.302 366.238 330.139C355.357 313.818 353.511 294.068 349.544 275.312C345.321 255.297 341.139 234.918 333.703 215.798C326.267 196.678 314.748 178.601 297.267 167.082C297.698 167.372 297.201 172.605 297.201 173.293C297.201 173.98 296.597 179.089 297.267 179.503H297.292Z" fill="#784AAB"/>
<path d="M523.176 299.053C493.365 318.852 455.224 330.388 420.593 316.277C404.313 309.652 389.954 297.761 376.515 286.632C363.075 275.502 350.604 262.99 341.147 248.176C330.01 230.736 322.756 211.21 315.593 191.866C316.487 194.268 314.682 197.663 315.593 200.147C321.911 217.214 328.32 234.396 337.347 250.18C346.265 265.739 358.09 279.005 371.588 290.756C384.721 302.175 398.997 313.942 414.582 321.825C430.572 329.915 448.922 332.251 466.593 329.982C487.039 327.365 506.142 318.678 523.176 307.35C524.493 306.473 521.95 299.898 523.176 299.07V299.053Z" fill="#784AAB"/>
<path d="M279.821 179.528C251.467 195.642 234.756 225.652 216.597 251.571C205.826 266.951 194.785 282.132 183.473 297.115C173.445 310.431 163.732 325.013 151.096 336.035C136.546 348.738 117.972 352.381 99.1086 352.116C99.1086 352.116 99.0092 360.397 99.1086 360.397C115.67 360.629 132.629 358.062 146.309 348.15C159.84 338.337 169.611 323.672 179.59 310.522C190.951 295.567 202.05 280.418 212.887 265.077C222.592 251.347 231.742 237.195 241.82 223.731C252.353 209.653 264.385 196.553 279.812 187.784C281.038 187.088 278.678 180.149 279.812 179.503L279.821 179.528Z" fill="#784AAB"/>
<path d="M298.618 177.259C280.831 204.387 262.77 231.912 252.246 262.866C242.309 292.163 240.073 322.918 240.437 353.656C240.745 371.379 242.023 389.071 244.263 406.654C243.932 403.946 244.594 401.106 244.263 398.373C240.478 367.278 238.822 336.002 243.907 304.949C248.494 276.918 258.986 250.958 273.022 226.372C280.98 212.427 289.782 198.996 298.585 185.573C299.868 183.618 297.335 179.197 298.585 177.292L298.618 177.259Z" fill="#784AAB"/>
<path d="M511.418 365.051C506.866 371.407 500.954 376.669 494.113 380.452C487.271 384.235 479.672 386.445 471.869 386.921C463.464 387.368 455.763 386.714 448.302 391.302C442.505 394.862 437.843 399.955 432.833 404.493C427.517 409.304 421.737 413.502 414.615 415.009C406.5 416.724 397.971 415.167 390.394 412.037C374.205 405.362 362.761 391.426 349.495 380.57C343.044 375.303 335.964 370.55 328.081 367.718C320.777 365.101 310.186 362.849 303.934 368.811C297.881 374.607 294.709 384.652 292.44 392.461C289.956 401.081 289.385 410.207 286.42 418.703C283.977 425.692 279.183 432.532 271.912 435.074C263.747 437.914 256.849 433.045 250.962 427.87C236.884 415.515 223.238 402.737 208.97 390.606C178.538 364.811 144.752 341.385 105.377 332.11C105.94 332.243 104.698 340.234 105.377 340.391C140.156 348.614 170.795 367.917 198.279 390.076C212.878 401.851 226.757 414.463 240.694 426.992C246.838 432.523 253.322 440.158 261.213 443.181C268.451 445.955 275.746 442.75 280.657 437.202C286.337 430.784 287.985 422.148 289.492 414.016C291.206 404.766 293.509 395.798 297.533 387.294C299.123 383.923 300.845 380.28 303.462 377.58C306.832 374.119 311.329 373.291 315.999 373.523C324.28 373.937 332.23 377.216 339.243 381.53C354.108 390.639 365.063 404.716 379.505 414.446C392.696 423.315 410.442 428.184 424.817 419.117C431.268 415.051 436.319 409.18 442.074 404.278C449.171 398.191 456.235 395.458 465.625 395.334C474.668 395.218 483.064 394.2 491.296 390.258C499.311 386.414 506.224 380.606 511.393 373.374C512.718 371.527 510.11 366.881 511.393 365.093L511.418 365.051Z" fill="#784AAB"/>
<path d="M228.124 459.369C157.513 463.667 178.439 374.656 107.688 396.642C36.9365 418.627 20.1348 424.234 20.1348 424.234C20.1348 424.234 43.9007 412.185 66.9544 377.861C90.0082 343.537 94.8359 315.126 137.73 356.414C180.625 397.702 298.701 455.08 228.124 459.369Z" fill="black"/>
<path d="M283.438 123.756C272.98 123.756 262.943 116.221 262.943 116.221L265.742 140.864C265.742 140.864 279.149 140.517 285.451 138.099C291.752 135.681 283.438 123.756 283.438 123.756Z" fill="black"/>
<path d="M292.151 66.959C284.019 67.3399 274.761 67.3482 269.934 75.0825C267.549 78.8585 266.621 83.5123 265.661 87.8018C264.486 92.5608 263.656 97.3982 263.176 102.277C262.017 116.13 263.706 130.191 269.429 142.935C268.915 141.801 269.95 139.954 269.429 138.795C266.633 132.591 264.715 126.027 263.731 119.294C262.415 110.243 263.458 101.54 265.487 92.704C266.886 86.5762 268.112 79.5292 273.345 75.4137C278.72 71.1987 285.675 71.4058 292.151 71.0994C292.25 71.0994 292.151 66.959 292.151 66.959V66.959Z" fill="black"/>
<path d="M280.987 65.3359C274.064 68.6751 268.345 74.0758 264.616 80.7962C260.724 87.8763 259.896 95.7762 259.747 103.717C259.482 117.737 259.084 133.288 268.764 144.558C268.094 143.78 269.452 141.246 268.764 140.418C258.662 128.659 257.908 109.605 260.873 95.1965C262.035 89.6564 264.452 84.4566 267.939 79.9976C271.426 75.5386 275.89 71.9391 280.987 69.4763C281.558 69.1948 280.465 65.5844 280.987 65.3359V65.3359Z" fill="black"/>
<path d="M274.991 67.124H266.056C266.056 67.124 248.095 78.9325 249.793 111.907C251.49 144.881 257.295 143.539 257.295 143.539L262.943 144.02C262.943 144.02 255.333 125.313 257.03 98.9472C258.728 72.5811 274.991 67.124 274.991 67.124Z" fill="black"/>
<path d="M263.465 2.31022C243.359 -0.0580905 218.07 24.7843 223.386 49.8089C228.702 74.8335 236.205 76.796 232.28 90.3848C228.354 103.974 223.775 108.454 232.992 104.694C242.208 100.935 255.681 100.214 241.206 70.3701C226.731 40.5261 263.465 2.31022 263.465 2.31022Z" fill="#DDA885"/>
<path d="M269.452 9.82118C272.408 12.9844 277.79 17.8618 278.56 22.4825V20.4123C278.326 21.5394 278.223 22.6898 278.254 23.8406C278.478 27.0121 280.738 28.9747 282.129 31.6494C285.384 38.0587 282.9 45.7267 284.39 52.4839V50.4551C284.084 59.448 272.648 55.8459 267.216 55.1751C261.414 54.4464 255.617 53.6818 249.826 52.8814C249.901 52.8814 249.718 54.9433 249.826 54.9516C255.048 55.6692 260.274 56.3621 265.502 57.03C269.071 57.4772 272.648 57.9326 276.225 58.2887C278.999 58.562 281.111 58.8932 283.04 56.3345C284.187 54.7022 284.672 52.6959 284.398 50.7201C284.126 47.8881 283.999 45.0441 284.017 42.1991C284.109 38.7258 283.753 35.2552 282.958 31.873C282.005 28.3288 278.552 25.7948 278.262 22.0768V24.147C278.395 22.7144 278.817 21.3481 278.444 19.9072C277.269 15.4107 272.482 10.9639 269.485 7.75098C269.824 8.11533 269.129 9.40714 269.485 9.82118H269.452Z" fill="black"/>
<path d="M280.174 68.7805C275.793 64.4911 277.582 57.9658 277.582 57.9658" stroke="black" stroke-width="0.5" stroke-miterlimit="10"/>
<path d="M302.309 84.1494C309.844 96.4547 319.491 109.149 319.317 119.691C319.143 130.232 313.695 138.836 314.987 148.276" stroke="black" stroke-width="0.5" stroke-miterlimit="10"/>
<path d="M301.275 78.6265C291.437 65.0046 282.494 67.8615 275.704 71.6127C268.913 75.3639 259.266 98.0616 260.873 110.185C262.479 122.308 265.518 142.356 265.518 142.356" stroke="black" stroke-width="0.5" stroke-miterlimit="10"/>
<path d="M288.44 134.273C276.979 142.215 264.086 147.399 254.795 143.308" stroke="black" stroke-width="0.5" stroke-miterlimit="10"/>
<path d="M284.714 123.004C268.019 122.912 262.124 116.942 260.699 105.448" stroke="black" stroke-miterlimit="10"/>
<path d="M267.085 66.9746C250.524 75.5452 243.419 114.747 256.884 144.027" stroke="black" stroke-miterlimit="10"/>
<path d="M298.584 136.228C306.36 152.574 305.821 162.229 308.521 167.587C311.22 172.945 314.152 184.745 314.152 184.745" stroke="black" stroke-miterlimit="10"/>
<path d="M302.518 87.1641C305.408 107.038 304.215 117.993 304.215 117.993" stroke="black" stroke-miterlimit="10"/>
<path d="M313.109 204.237C318.028 220.087 326.731 227.912 326.731 227.912" stroke="black" stroke-miterlimit="10"/>
<path d="M258.703 28.205C254.339 31.6747 249.859 33.4882 248.161 39.2268C246.588 44.5513 248.857 50.8861 251.946 55.7387C255.034 60.5912 258.636 63.4316 260.011 69.2033C260.839 73.1583 261.205 77.1959 261.104 81.2353C261.261 87.62 260.747 94.0036 259.572 100.281C259.928 98.5753 259.216 96.6459 259.572 94.9235C260.914 88.4396 261.568 81.6328 260.144 75.1241C259.059 70.1556 256.649 67.2159 253.569 63.3653C250.257 59.1188 248.18 54.0417 247.565 48.6917C246.869 42.9366 244.907 30.5568 248.045 25.5055C250.579 21.4479 258.231 14.6493 261.717 11.4778C265.203 8.30625 267.522 21.2243 258.703 28.205Z" fill="#E8BD92"/>
<path d="M266.655 9.72146C265.554 13.8619 262.391 16.3461 258.954 18.5736C250.408 24.2046 244.943 30.7961 247.436 41.4866C249.961 52.3013 255.336 62.1886 258.317 72.8212C259.633 77.5164 261.008 85.3004 258.449 89.8465C259.203 88.505 257.679 85.8552 258.449 84.4806C258.774 83.8769 259.051 83.2483 259.277 82.6008C259.758 81.3587 259.948 83.9175 259.277 82.1951C258.606 80.4726 258.449 78.361 257.853 76.5641C256.404 71.8854 254.541 67.3476 252.752 62.7766C249.564 54.4958 246.409 46.1239 246.276 37.1723C246.169 30.0011 246.98 23.095 252.537 17.8532C255.17 15.369 258.433 13.7956 261.306 11.6343C262.79 10.606 264.084 9.32839 265.132 7.85827C265.637 7.05504 267.442 6.75693 266.655 9.72146Z" fill="#DDB38E"/>
<path d="M263.465 14.1273C259.068 16.6115 254.017 19.3608 250.986 23.5674C250.301 24.6645 249.727 25.8267 249.272 27.0371C248.667 28.3206 248.998 33.2891 248.99 24.4949C248.99 16.9842 248.949 20.3131 249.123 22.1348C249.686 28.2212 250.29 35.5001 248.535 41.4291C245.868 50.4635 237.157 59.5806 229.787 65.1702C228.818 65.9072 224.818 69.1201 223.386 67.4308C222.773 66.7104 223.328 63.0337 223.328 62.0732C223.328 61.1126 224.703 53.6185 224.081 52.8897C225.44 54.4962 228.487 55.374 229.464 54.7032C233.331 51.8629 236.61 48.12 239.716 44.5013C243.144 40.4934 246.771 36.2205 248.402 31.1526C248.675 30.3246 248.791 29.422 249.04 28.5773C250.199 24.6356 249.611 37.8518 249.214 34.0758C249.098 32.991 249.015 31.8813 248.957 30.7634C248.745 26.902 248.745 23.0318 248.957 19.1703C249.412 11.1131 257.172 6.93957 263.498 3.3457C262.024 4.17378 265.096 13.1585 263.498 14.1107L263.465 14.1273Z" fill="#FFD3B6"/>
<path d="M252.584 14.6651C249.611 18.4577 246.539 22.3248 244.601 26.7882C244.187 27.757 242.605 34.6881 242.788 30.1005C242.696 32.5351 243.508 35.334 243.972 37.7188C245.934 47.7552 249.321 57.4354 251.764 67.3558C253.585 74.9469 254.445 82.7367 254.323 90.5421C254.323 93.7633 254.372 97.0094 253.288 100.098C251.723 104.537 248.319 107.907 245.007 111.103C245.495 110.631 244.957 106.516 244.957 105.746C244.957 104.843 244.336 101.034 245.007 100.38C248.298 97.1427 251.089 93.4336 253.288 89.3745C253.693 87.147 253.9 86.8903 253.9 88.6955C253.718 87.4037 253.503 86.1201 253.255 84.8449C252.766 82.253 252.17 79.686 251.524 77.1272C249.04 67.1902 245.669 57.5348 243.79 47.4819C242.62 40.4913 242.201 33.3958 242.539 26.3162C242.788 17.3978 247.234 10.7814 252.584 3.95801C252.046 4.64531 252.642 8.37996 252.642 9.31569C252.642 10.4005 253.279 13.7956 252.584 14.6816V14.6651Z" fill="#CE9A78"/>
<path d="M228.761 42.9357C229.896 49.7839 233.978 56.0939 235.734 62.8096C234.39 67.4055 232.348 71.7679 229.68 75.7442C228.024 78.3361 231.279 83.9588 229.68 86.4679C233.49 80.456 235.974 74.4607 236.504 67.5794C236.504 67.7698 236.504 67.9603 236.504 68.159V66.6519C236.504 66.0888 236.578 65.5257 236.578 64.9957C236.578 62.1637 237.696 26.4569 251.542 11.6425C252.312 10.8145 274.198 -3.01449 251.542 0.877487C245.008 2.86488 238.234 5.43193 233.622 10.7234C229.424 15.5262 228.273 21.654 228.182 27.8398C228.124 32.8083 227.933 37.9755 228.761 42.9357Z" fill="#CE9A78"/>
<path d="M245.778 15.5843C239.8 20.8675 234.326 26.2417 233.655 34.6302C233.655 33.0982 233.655 31.5746 233.655 30.0509C233.837 49.2706 248.925 65.2857 248.76 84.4641C248.693 92.0741 244.942 100.579 239.485 105.994C237.556 107.89 237.564 107.253 237.514 105.017C237.514 104.504 237.191 101.026 238.044 101.373C238.707 101.647 237.448 106.491 238.044 106.739C237.787 106.532 237.622 106.615 237.539 106.988V101.622C238.143 103.063 243.46 95.1132 244.073 94.1278C246.604 90.2773 248.198 85.887 248.726 81.3091V82.6423C248.726 82.0626 248.726 81.4912 248.726 80.9116V84.9526C247.94 76.4979 243.501 68.5069 240.512 60.6567C237.597 53.0053 234.094 44.6665 233.639 36.4023C233.468 33.7296 233.487 31.0481 233.697 28.3782C234.392 20.5528 240.181 15.1703 245.745 10.2598C244.917 11.0216 246.656 14.8142 245.745 15.6174L245.778 15.5843Z" fill="#EDB78E"/>
<path d="M265.61 11.5604C256.402 11.9579 245.736 13.3905 239.111 20.5368C236.402 23.5509 234.637 27.294 234.035 31.3019C233.406 35.0945 235.195 38.473 233.729 27.5092C233.953 29.1654 234.019 30.7636 234.284 32.3866C234.849 35.4216 235.567 38.4258 236.437 41.3879C240.064 54.8193 242.548 68.5986 242.871 82.5352C243.095 92.1326 243.302 101.97 241.372 111.419C242.068 108.007 240.668 104.14 241.372 100.695C241.857 98.3389 242.219 95.959 242.457 93.5652C242.457 93.3334 242.349 88.8203 242.796 88.3732C242.835 91.8621 242.816 92.3341 242.738 89.7892L242.664 88.2075C242.196 80.6493 241.195 73.1337 239.666 65.7169C237.356 54.1983 233.646 43.574 233.621 31.7656C233.621 23.7994 233.497 15.618 239.418 9.48193C246.043 2.62543 251.442 0.745683 260.484 0.373047C269.378 3.47835 265.858 11.577 265.627 11.5853L265.61 11.5604Z" fill="#EDB78E"/>
<path d="M319.924 111.782C307.279 129.851 278.595 154.014 255.574 138.513C256.013 138.819 255.508 144.028 255.508 144.723C255.508 145.419 254.895 150.52 255.574 150.934C278.595 166.469 307.279 142.272 319.924 124.203C320.644 123.177 319.982 119.235 319.982 117.993C319.982 116.751 319.195 112.826 319.924 111.782V111.782Z" fill="#784AAB"/>
<path d="M316.894 124.65C305.789 141.767 279.018 167.181 257.272 151.389C257.744 151.729 257.214 156.863 257.214 157.6C257.214 158.337 256.577 163.297 257.272 163.81C278.993 179.602 305.765 154.188 316.894 137.072C317.606 135.962 316.952 132.186 316.952 130.861C316.952 129.536 316.165 125.777 316.894 124.65V124.65Z" fill="black"/>
<path d="M315.669 136.277C304.962 153.129 278.637 178.915 257.297 163.016C257.778 163.372 257.239 168.49 257.239 169.227C257.239 169.964 256.593 174.916 257.297 175.437C278.637 191.336 304.962 165.55 315.669 148.699C316.381 147.572 315.727 143.829 315.727 142.488C315.727 141.146 314.899 137.428 315.669 136.277Z" fill="#784AAB"/>
<path d="M526.845 321.419C509.165 329.501 488.836 329.51 469.897 327.058C453.964 324.887 438.288 321.128 423.103 315.838C420.006 314.778 416.9 313.685 413.861 312.435C414.325 312.625 413.356 316.368 413.861 316.575C422.475 320.01 431.298 322.895 440.277 325.212C458.197 330.023 476.92 333.269 495.535 332.474C506.3 332.01 517.007 330.056 526.845 325.56C527.391 325.311 526.356 321.651 526.845 321.419V321.419Z" fill="black"/>
<path d="M302.517 178.957C323.542 195.195 329.778 220.195 334.581 245.038C339.383 269.88 344.667 295.741 364.226 313.627C378.957 327.109 398.393 333.949 417.621 338.023C417.364 337.973 417.927 333.949 417.621 333.882C400.231 330.197 382.775 324.31 368.623 313.18C358.253 304.911 350.196 294.103 345.23 281.804C335.583 258.618 335.177 232.89 326.764 209.322C321.903 195.701 314.036 183.652 302.517 174.783C303.163 175.28 301.83 178.394 302.517 178.924V178.957Z" fill="black"/>
<path d="M528.607 273.829C521.105 288.039 510.232 301.056 494.507 306.215C474.368 312.84 452.391 305.644 434.156 296.775C418.812 289.322 404.486 279.8 390.823 269.614C376.928 259.238 363.314 248.2 351.506 235.489C341.37 224.591 332.46 212.236 330.456 197.174C330 193.754 329.951 189.862 327.682 187.038C324.369 182.898 317.943 181.672 313.124 180.529C313.406 180.596 312.785 184.595 313.124 184.67C317.728 185.763 323.45 186.922 326.961 190.392C329.238 192.636 329.735 195.675 330.133 198.714C331.847 211.905 337.18 222.596 345.634 232.93C355.116 244.523 366.486 254.535 378.112 263.9C392.653 275.609 407.923 286.615 424.252 295.724C443.331 306.389 466.609 316.376 488.967 311.83C507.4 308.087 520.177 293.993 528.632 277.97C529.212 276.876 528.069 274.897 528.632 273.829H528.607Z" fill="black"/>
<path d="M505.018 269.358C503.544 275.909 502.219 282.517 500.331 288.959C499.072 293.273 497.54 297.786 494.609 301.281C487.984 309.148 475.894 308.311 466.694 307.798C466.694 307.798 466.587 311.938 466.694 311.938C475.886 312.452 488.026 313.288 494.609 305.421C497.449 302.026 498.973 297.679 500.215 293.489C502.169 286.922 503.527 280.181 505.018 273.499C505.316 272.182 504.72 270.667 505.018 269.358Z" fill="black"/>
<path d="M510.648 379.46C492.82 396.493 468.582 390.904 450.911 376.769C449.205 375.402 447.532 374.003 445.851 372.628C445.354 372.214 443.64 370.334 442.895 370.326C441.619 370.326 442.149 371.982 442.166 373.216C442.261 375.123 442.564 377.014 443.069 378.855C443.931 383.155 444.485 387.511 444.725 391.889C445.205 397.802 447.573 403.201 448.766 408.964C448.89 409.569 448.923 410.223 449.081 410.811C449.47 412.235 449.196 410.521 449.147 410.761C448.917 412.04 448.539 413.288 448.021 414.479C446.629 417.336 444.153 419.531 441.586 421.319C422.673 434.569 398.824 435.728 378.197 426.288C358.638 417.262 340.064 400.841 329.978 381.605C330.541 382.673 329.398 384.652 329.978 385.745C338.921 402.729 354.489 417.212 371.026 426.669C380.665 432.175 391.405 436.125 402.551 436.804C414.334 437.533 425.737 433.972 436.187 428.656C441.851 425.741 448.393 421.543 449.221 414.637C449.667 410.329 449.273 405.976 448.062 401.818C447.3 399.077 446.406 396.378 445.735 393.604C444.832 389.778 444.791 385.927 444.352 382.01C443.996 378.864 443.723 374.698 442.398 371.759C441.437 369.631 442.456 374.616 442.274 374.334C442.232 374.26 442.646 374.251 442.704 374.334C443.524 375.049 444.396 375.702 445.313 376.288C454.372 383.741 463.531 390.589 475.124 393.322C488.257 396.419 500.918 392.9 510.657 383.592C511.36 382.921 509.986 380.089 510.657 379.452L510.648 379.46Z" fill="black"/>
<path d="M426.728 382.946C425.767 386.54 424.243 390.912 420.401 387.268C418.058 385.057 416.261 382.184 414.414 379.551C411.102 374.756 407.889 369.887 404.61 365.068C397.322 354.361 390.822 343.761 385.564 331.944C383.792 327.978 382.16 323.929 380.198 320.045C379.419 318.513 377.97 314.894 375.917 314.613C373.863 314.331 372.604 317.503 371.975 319.026C369.64 324.591 368.53 330.62 366.965 336.416C365.597 341.913 363.789 347.291 361.558 352.497C360.233 355.429 358.618 358.758 355.968 360.729C351.447 364.099 346.793 360.083 343.704 356.721C339.125 351.752 336.045 346.784 334.943 340.101C332.972 328.193 335.688 316.418 335.109 304.494C334.935 300.883 333.701 303.227 332.716 305.371C328.418 314.828 325.263 324.964 321.951 334.768C313.761 358.642 307.873 383.41 298.648 406.919C295.03 416.193 288.248 432.738 275.562 425.832C268.589 422.031 263.265 415.067 258.942 408.567C253.588 400.286 249.014 391.526 245.279 382.399C239.41 368.498 234.583 354.18 230.837 339.563C230.622 338.74 230.415 337.912 230.216 337.079C230.531 338.37 229.901 339.902 230.216 341.219C232.921 352.219 236.255 363.054 240.202 373.671C246.595 391.152 254.371 410.107 267.637 423.63C271.438 427.497 276.911 432.449 282.832 431.637C288.273 430.9 291.742 425.435 294.127 421.029C298.45 413.047 301.232 404.203 303.998 395.599C307.931 383.335 311.533 370.964 315.417 358.683C319.673 345.23 324.236 331.875 329.105 318.621C330.289 315.424 331.689 308.402 334.711 306.464C334.819 306.398 335.158 307.491 335.043 307.516V307.963C334.927 307.963 335.183 304.957 335.043 306.348C334.976 306.92 334.993 307.516 334.96 308.096C334.802 310.936 334.587 313.768 334.421 316.608C334.082 322.537 333.941 328.483 334.099 334.42C334.256 340.358 334.595 346.784 337.237 352.158C339.589 356.952 344.69 363.627 349.824 365.647C355.513 367.875 359.115 361.739 361.177 357.366C366.303 346.543 367.354 334.437 371.809 323.415C372.43 321.9 373.598 318.447 375.768 318.637C377.937 318.828 379.245 322.264 380.024 323.78C384.703 332.888 388.147 342.494 393.124 351.446C399.26 362.501 406.97 372.843 414.149 383.244C415.54 385.256 420.55 394.547 424.086 392.659C425.742 391.782 426.289 388.585 426.703 387.02C427.051 385.72 426.363 384.155 426.703 382.88L426.728 382.946Z" fill="black"/>
<path d="M338.795 229.982C348.798 251.694 357.161 274.566 369.434 295.169C378.841 311.018 391.535 323.572 408.941 330.246C421.545 335.074 435.092 337.012 448.49 338.022C448.416 338.022 448.623 333.881 448.49 333.881C427.358 332.283 405.149 328.201 388.405 314.256C373.566 301.893 364.896 283.832 357.045 266.608C350.868 253.061 345.063 239.356 338.828 225.842C339.349 226.968 338.298 228.831 338.828 229.982H338.795Z" fill="black"/>
<path d="M274.994 186.16C249.878 213.487 226.062 241.964 201.535 269.796C193.56 278.847 185.437 287.79 176.634 296.038C165.762 306.232 153.365 314.537 142.344 324.557C134.146 332.01 125.683 340.117 119.497 349.4C118.851 350.369 120.126 352.596 119.497 353.54C133.351 332.764 155.253 319.514 173.471 303.127C193.42 285.199 210.288 263.892 227.743 243.612C243.24 225.61 258.995 207.839 275.01 190.301C275.706 189.539 274.331 186.897 275.01 186.16H274.994Z" fill="black"/>
<path d="M280.988 187.237C268.898 226.629 254.432 265.176 239.493 303.558C229.233 329.916 218.75 355.793 213.996 383.815C212.713 391.392 211.653 399.135 211.984 406.853C211.943 405.859 212.05 404.112 211.984 402.853C211.984 402.025 211.761 406.72 211.984 405.114C212.067 404.526 211.984 403.888 212.067 403.3C212.183 401.18 212.406 399.06 212.655 396.94C213.483 389.811 214.833 382.731 216.34 375.717C218.76 364.748 221.928 353.958 225.821 343.422C236.421 314.199 248.353 285.456 259.044 256.258C266.886 234.819 274.264 213.198 280.963 191.378C281.352 190.111 280.574 188.488 280.963 187.237H280.988Z" fill="black"/>
<path d="M264.982 182.674C245.605 201.72 228.605 222.554 212.995 244.739C203.655 257.988 194.521 272.554 180.849 281.828C172.858 287.244 163.459 290.705 154.019 292.527C145.813 294.117 138.17 293.173 130.005 292.941C118.304 292.618 115.928 308.559 116.681 317.701C116.946 321.013 118.337 323.415 119.803 326.263C119.96 326.686 120.16 327.091 120.399 327.472C120.482 327.563 120.399 327.845 120.524 327.919V324.243V324.35C120.524 324.35 120.441 324.648 120.374 324.665C119.472 324.905 118.404 325.824 117.352 326.114C109.899 328.184 101.801 328.747 94.1657 329.849C78.987 332.027 63.8166 334.246 48.6793 336.647C38.6595 338.237 28.5983 339.827 18.7027 342.113C13.9661 343.206 8.22753 344.241 4.20306 347.172C1.59461 349.077 1.46212 351.925 1.88444 355.006C2.65455 360.645 8.80719 360.802 13.3533 360.463C16.2102 360.272 19.978 359.37 22.7024 360.571C23.1783 360.831 23.63 361.133 24.0521 361.473C24.963 362.069 24.1846 363.585 24.7063 361.829C25.3357 359.726 24.3254 362.558 24.135 363.138C23.7413 364.264 23.2908 365.369 22.7852 366.45C19.6964 373.282 16.2848 379.89 13.6515 386.846C10.3391 395.474 5.2216 414.172 19.2576 415.828C24.226 416.4 29.3187 415.24 34.0719 414.007C34.4363 413.916 33.7655 409.949 34.0719 409.866C27.8944 411.473 16.7982 414.446 12.045 408.16C11.3435 407.211 10.842 406.129 10.571 404.981C10.3884 404.179 10.2666 403.366 10.2066 402.546C10.4385 404.732 10.3391 402.877 10.5213 401.718C11.1475 398.266 12.107 394.882 13.3865 391.615C15.9618 384.693 19.3155 378.109 22.3297 371.377C23.6961 368.33 27.2982 359.304 23.1578 356.654C20.8061 355.122 16.823 356.008 14.2394 356.198C11.2086 356.422 7.5071 356.886 4.71647 355.37C3.69251 354.805 2.86822 353.938 2.35644 352.886C2.20566 352.337 2.02035 351.797 1.80163 351.271C0.617473 350.567 2.77048 354.724 1.80163 354.468C1.80163 354.468 1.80163 354.128 1.86788 354.095C1.93412 354.062 1.99209 353.515 2.12458 353.383C2.5055 352.969 2.75392 352.422 3.17624 352.008C6.09108 349.085 11.2831 348.05 15.1006 347.04C23.812 344.771 32.747 343.313 41.5992 341.848C65.6135 337.873 90.0336 335.43 113.982 330.892C116.002 330.511 119.778 330.321 120.466 328.019C121.294 325.27 120.151 322.893 118.9 320.641C118.162 319.362 117.573 318.004 117.145 316.591C116.905 315.763 116.847 314.827 116.64 313.958C116.168 311.904 116.143 317.386 116.64 314.248C116.747 313.585 116.822 312.923 116.946 312.269C117.932 307.3 120.151 299.168 125.699 297.421C131.082 295.724 137.996 297.893 143.552 297.752C154.087 297.371 164.415 294.716 173.827 289.968C187.706 283.046 197.253 270.923 206.081 258.501C219.504 239.696 232.77 220.989 248.363 203.848C253.712 197.977 259.252 192.255 264.924 186.707C265.628 186.02 264.253 183.229 264.924 182.566L264.982 182.674Z" fill="black"/>
<path d="M292.778 189.291C283.603 214.672 275.323 240.433 268.342 266.51C262.545 288.139 256.964 310.398 255.3 332.756C254.786 339.596 254.538 346.767 255.573 353.574C255.366 352.232 255.772 350.783 255.573 349.433C254.397 341.732 255.415 333.832 256.451 326.164C257.734 316.642 259.581 307.193 261.659 297.811C266.628 275.287 272.987 253.095 279.976 231.084C283.995 218.448 288.263 205.897 292.778 193.431C293.217 192.206 292.34 190.5 292.778 189.291Z" fill="black"/>
<path d="M273.874 191.08C250.787 243.001 227.062 295.418 211.238 350.129C208.361 360.066 205.783 370.081 203.503 380.172C203.197 381.489 203.802 383.013 203.503 384.313C213.796 339.323 230.466 296.321 248.369 253.873C256.65 234.223 265.212 214.697 273.874 195.22C274.395 194.053 273.369 192.223 273.874 191.08V191.08Z" fill="black"/>
<path d="M254.323 180.571C233.82 209.943 217.399 242.519 194.577 270.227C185.468 281.29 174.877 291.525 161.951 298.009C149.654 304.178 135.08 307.391 121.375 308.253C113.757 308.733 105.906 307.872 98.6359 310.687C88.1028 314.72 80.3685 323.539 69.9595 327.969C58.267 332.938 45.6636 335.314 33.3335 338.121C24.2246 340.192 12.3582 342.013 5.3858 348.886C0.574647 353.623 1.69256 360.032 2.07347 366.127C2.51236 372.677 2.15628 379.252 2.4047 385.81C2.90155 398.828 5.87437 413.137 19.5791 418.106C29.4333 421.691 40.7697 420.217 50.7729 418.155C68.1626 414.553 84.7822 407.68 102.114 403.49C125.01 397.958 149.381 395.126 171.747 404.235C194.685 413.576 213.217 431.438 234.541 443.668C245.744 450.094 258.157 456.388 271.15 457.986C276.947 458.698 285.542 458.557 289.417 453.266C292.73 448.695 293.508 441.466 294.527 436.092C296.183 427.157 297.425 418.139 298.667 409.146C299.909 400.153 301.151 391.375 302.807 382.573C303.735 377.786 304.464 370.458 307.842 366.616C310.981 363.088 313.573 369.1 314.599 371.526C317.307 377.911 319.642 384.303 323.029 390.406C326.991 397.567 331.677 404.301 337.015 410.504C357.345 434.137 388.042 450.061 419.053 438.659C430.15 434.576 439.391 428.018 446.314 418.429C450.131 413.154 453.543 406.322 460.905 406.107C465.55 405.974 469.922 407.829 474.634 407.581C480.555 407.14 486.325 405.5 491.593 402.761C503.647 396.791 513.432 387.063 519.475 375.045C525.189 363.353 524.22 351.702 524.029 339.132C523.938 332.979 522.373 318.214 531.341 316.658C534.206 316.161 536.79 317.237 538.612 314.38C540.433 311.523 540.326 307.756 540.351 304.617C540.528 295.044 538.609 285.547 534.728 276.794C530.588 267.685 522.199 257.624 511.07 262.418C506.789 264.257 503.493 267.668 499.41 269.871C494.939 272.248 492.363 270.658 488.645 267.826C486.393 266.095 482.998 263.594 479.959 264.695C477.648 265.524 476.597 268.207 475.901 270.343C473.516 277.622 473.417 285.464 471.065 292.784C468.813 299.897 464.441 305.652 456.392 305.47C456.392 305.47 456.325 309.611 456.392 309.611C473.864 310 472.125 285.977 475.901 274.483C476.597 272.347 477.648 269.672 479.959 268.836C482.783 267.817 485.913 269.946 488.066 271.527C491.742 274.227 494.185 276.537 498.831 274.301C502.971 272.306 506.209 268.886 510.358 266.906C520.816 261.938 529.296 270.219 533.759 279.013C536.258 284.038 538.066 289.378 539.133 294.887C539.705 297.711 539.904 300.518 540.243 303.375C540.318 303.946 540.102 305.172 540.243 303.019C540.193 303.657 540.168 304.286 540.094 304.924C539.993 305.987 539.79 307.037 539.489 308.062C538.504 311.316 536.956 312.294 533.693 312.385C531.209 312.451 528.799 312.766 527.068 314.72C524.857 317.204 524.501 321.195 524.211 324.359C523.814 328.83 523.847 333.343 523.864 337.823C523.864 344.837 524.783 352.066 523.441 358.981C522.094 365.554 519.46 371.796 515.69 377.348C508.586 387.997 497.887 396.783 485.78 401.097C480.663 402.927 475.098 403.979 469.666 403.333C465.683 402.852 461.849 401.271 457.816 402.438C451.349 404.302 448.069 412.127 444.219 416.988C426.862 439.048 394.931 443.685 370.23 432.307C356.252 425.848 344.228 415.472 334.622 403.548C329.623 397.354 325.254 390.677 321.58 383.616C318.698 378.076 316.802 372.197 314.218 366.541C313.026 363.924 310.484 359.171 307.643 362.864C304.397 367.088 303.677 374.085 302.716 379.12C299.354 396.658 297.748 414.495 294.477 432.042C293.458 437.433 292.663 444.157 289.591 448.869C286.113 454.193 277.791 454.599 272.202 454.053C260.103 452.877 248.452 447.296 237.927 441.532C224.512 434.179 212.257 425.103 199.753 416.383C183.465 405.055 166.481 395.681 146.275 394.389C133.506 393.561 120.679 395.358 108.184 398.041C90.794 401.792 74.2324 408.293 57.058 412.649C41.4321 416.607 17.1694 420.929 7.37319 403.945C0.748542 392.51 2.60345 378.043 2.23909 365.407C2.23909 364.156 2.148 362.922 2.05691 361.672C2.00723 360.96 1.94926 360.248 1.86645 359.536C1.78364 358.823 1.99895 358.707 1.76708 360.264C1.84989 359.701 1.92442 359.163 2.05691 358.608C2.97608 355.022 5.6839 352.397 8.73124 350.485C17.5751 344.936 28.9695 343.289 38.9893 341.053C51.0958 338.353 63.5584 335.679 74.663 329.965C83.9789 325.17 91.1501 316.757 101.485 313.892C108.937 311.822 116.994 312.857 124.621 312.128C138.467 310.82 153.074 307.292 165.238 300.402C191.828 285.34 208.489 256.406 224.206 231.291C234.019 215.607 243.765 199.882 254.356 184.703C255.019 183.767 253.727 181.482 254.356 180.562L254.323 180.571Z" fill="black"/>
<path d="M276.979 57.5017C271.969 58.0814 266.959 58.6114 261.933 57.9903C256.906 57.3693 252.269 55.8704 247.557 54.3799C247.922 54.4958 247.127 58.3878 247.557 58.5203C252.269 60.0108 257.014 61.5179 261.933 62.1307C266.852 62.7435 271.969 62.2218 276.979 61.6422C277.161 61.6422 276.847 57.5017 276.979 57.5017Z" fill="#D39272"/>
<path d="M249.794 69.3927C258.489 69.7322 267.184 69.3927 275.862 69.1774C280.773 69.0366 286.056 68.5067 290.851 69.8813C301.773 73.0197 301.814 84.0663 302.849 93.523C304.969 112.817 310.244 131.962 315.08 150.719C318.351 163.421 321.042 176.298 323.999 189.083C326.698 200.759 330.391 212.311 332.635 224.086C335.426 238.801 335.352 253.699 335.757 268.604V264.538C332.983 264.538 332.934 264.538 331.253 266.65C329.572 268.761 329.762 269.772 327.601 268.306C325.862 267.138 322.243 265.673 321.1 263.934C320.74 263.084 320.544 262.173 320.521 261.251L316.099 233.427V237.568C316.684 232.897 317.269 228.227 317.854 223.556C318.177 220.965 319.005 217.495 318.426 214.878C317.705 211.607 315.635 208.254 314.351 205.148C311.602 198.524 308.878 191.899 306.286 185.208C298.171 164.282 291.819 142.529 284.814 121.214C282.056 112.842 279.92 104.354 277.22 95.9824C277.626 97.2245 276.815 98.8641 277.22 100.123C278.959 105.514 280.168 111.004 281.891 116.386C284.706 125.189 287.646 133.95 290.561 142.719C296.117 159.438 301.16 176.422 307.636 192.81C311.114 201.576 314.702 210.299 318.401 218.977V214.837C317.415 222.687 315.088 231.324 316.339 239.249C317.333 245.481 318.323 251.717 319.312 257.955C319.751 260.729 320.189 263.495 320.637 266.236C320.926 268.099 321.075 268.041 322.74 269.159L327.576 272.413C328.785 273.241 328.611 273.399 329.555 272.902C330.897 272.214 331.327 269.821 332.594 268.993C333.464 268.43 334.606 268.637 335.733 268.637C335.733 268.637 335.733 264.919 335.733 264.571C335.528 257.052 335.324 249.536 335.12 242.023C334.954 235.87 333.911 229.808 333.099 223.706C331.484 211.458 327.427 199.443 324.553 187.444C321.415 174.335 318.666 161.136 315.445 148.052C311.263 131.126 306.808 114.242 303.926 97.0341C302.27 87.0971 304.282 71.9018 293.542 66.718C289.145 64.5899 284.16 64.8052 279.398 64.9045C269.511 65.1033 259.648 65.6001 249.761 65.2109C249.761 65.2109 249.67 69.3513 249.761 69.3513L249.794 69.3927Z" fill="black"/>
<path d="M331.631 246.089C328.575 250.908 323.35 246.511 321.694 242.992C320.481 240.408 319.602 237.682 319.077 234.876C318.754 233.22 318.605 231.639 318.431 229.999C317.769 223.714 318.133 241.841 318.316 240.3C318.481 238.942 318.481 237.568 318.622 236.21C319.276 230.173 321.263 224.335 321.694 218.273C322.116 211.899 322.133 205.505 321.744 199.128C321.396 193.224 318.357 188.015 316.991 182.343C315.409 175.793 314.647 169.185 312.602 162.734C308.677 150.354 302.988 138.604 298.765 126.299C293.952 112.263 290.201 97.8858 287.544 83.2881C288.513 88.6044 286.559 94.492 287.544 99.8497C291.218 119.837 296.912 139.4 304.536 158.238C308.213 167.347 312.196 176.381 314.473 185.953C315.666 190.98 316.129 196.18 317.579 201.132C319.011 205.935 321.247 210.316 321.719 215.367L321.678 214.241C322.086 202.879 321.967 199.755 321.321 204.867C321.197 205.62 321.065 206.382 320.907 207.128C320.56 208.891 320.137 210.639 319.781 212.394C319.151 215.283 318.684 218.205 318.382 221.147C317.777 227.97 318.009 234.934 318.117 241.774C318.208 247.48 318.837 253.103 321.073 258.411C322.613 262.087 328.045 268.223 331.557 262.692C332.517 261.185 331.639 256.2 331.639 254.411C331.639 252.457 331.639 250.511 331.639 248.556C331.639 248.06 331.349 246.503 331.581 246.13L331.631 246.089Z" fill="#D39272"/>
<path d="M278.891 94.7237C284.348 114.751 291.08 134.408 299.047 153.575C302.773 162.527 307.468 171.222 310.64 180.389C312.296 185.274 312.975 190.326 313.753 195.435C314.581 200.701 315.815 205.86 317.124 211.019V194.458C316.908 193.762 316.685 193.067 316.461 192.371C317.157 194.557 316.378 198.341 316.378 200.652C316.378 203.136 315.707 206.556 316.461 208.933C316.685 209.628 316.908 210.324 317.124 211.019C316.436 208.841 317.206 205.057 317.206 202.739C317.206 200.171 317.761 196.942 317.124 194.458C315.881 189.555 314.639 184.653 313.877 179.652C313.116 174.65 312.495 169.433 310.872 164.498C307.766 155.074 302.864 146.172 299.055 137.014C291.088 117.846 284.356 98.189 278.899 78.1621C279.529 80.4642 278.817 84.0415 278.817 86.4429C278.817 88.9768 278.229 92.2395 278.899 94.7237H278.891Z" fill="#B58061"/>
<path d="M331.633 270.269C332.652 233.768 325.067 197.614 316.62 162.288C311.652 141.461 306.244 120.677 299.562 100.322C297.157 92.5737 294.273 84.9821 290.925 77.5916C289.534 74.6437 287.149 68.3668 283.472 67.4559C281.054 66.8514 278.048 68.9879 276.251 70.3211C272.427 73.2351 269.284 76.9484 267.043 81.2021C264.195 86.6148 262.668 92.6249 262.588 98.7408C262.397 105.713 262.182 112.901 263.416 119.791C262.687 115.799 264.153 111.386 263.416 107.369C263.11 105.713 262.911 104.016 262.729 102.318C262.19 97.3496 262.497 110.375 262.629 109.531C262.795 108.479 262.778 107.378 262.911 106.318C263.241 103.834 263.821 101.39 264.642 99.0224C266.062 94.9017 268.217 91.0722 271.001 87.7191C273.378 84.8622 279.166 78.6102 283.605 79.9434C286.644 80.8791 288.681 85.6571 289.956 88.1828C292.906 94.2354 295.445 100.479 297.558 106.873C309.259 140.559 317.755 175.802 324.495 210.788C327.054 224.038 329.174 237.411 330.499 250.851C330.896 254.875 331.219 258.9 331.41 262.933C331.468 264.1 331.501 265.268 331.55 266.435C331.683 269.582 331.55 259.703 331.55 262.742C331.55 246.57 331.683 257.558 331.55 258.751C331.55 259.099 331.55 258.171 331.55 258.295C331.451 262.022 331.666 267.33 331.55 270.269H331.633Z" fill="#F1DDBC"/>
<path d="M304.455 89.0352C315.742 103.783 317.116 111.965 317.116 111.965C317.116 111.965 310.202 121.479 310.02 121.074C309.838 120.668 304.455 89.0352 304.455 89.0352Z" fill="black"/>
<path d="M255.449 178.915C263.73 182.045 272.234 184.885 281.12 182.558C289.028 180.48 295.81 175.503 302.285 170.717C302.964 170.211 301.648 167.048 302.285 166.576C295.81 171.362 289.036 176.339 281.12 178.418C272.218 180.745 263.73 177.904 255.449 174.774C255.871 174.931 254.961 178.732 255.449 178.915Z" fill="black"/>
<path d="M268.814 5.9375C264.814 8.28097 263.961 11.908 263.39 16.2388C262.786 20.8015 262.032 24.5942 258.96 28.2046C252.178 36.1624 240.345 39.6569 236.345 49.9914C234.068 55.879 235.79 61.1705 238.746 66.5116C244.46 76.8377 252.824 89.615 244.502 100.927C244.17 101.382 244.833 102.583 244.502 102.997C248.236 97.929 248.841 91.3126 247.897 85.2179C247.019 79.5953 244.369 74.4529 241.628 69.5424C238.887 64.6318 234.059 58.7773 236.105 52.7572C239.74 42.1495 251.573 38.5473 258.546 30.7551C261.726 27.2026 262.744 23.4266 263.324 18.8142C263.895 14.3425 264.64 10.4505 268.814 8.04911C269.129 7.86693 268.524 6.1528 268.814 5.97891V5.9375Z" fill="black"/>
<path d="M266.785 0C257.262 11.295 236.387 13.1913 233.662 29.902C231.799 41.2218 239.086 58.0567 226.209 64.4495C225.638 64.731 226.731 68.3332 226.209 68.5899C239.459 62.0481 231.923 44.9234 233.662 34.0424C236.329 17.3566 257.304 15.4023 266.785 4.1404C267.481 3.31232 266.123 0.82808 266.785 0V0Z" fill="black"/>
<path d="M283.082 43.2832C280.598 44.2686 281.02 44.6247 278.701 44.6661C277.014 44.8355 275.39 45.4031 273.965 46.3223" stroke="black" stroke-width="0.25" stroke-miterlimit="10"/>
<path d="M282.9 42.571C281.517 41.006 281.02 41.8092 279.77 42.571C278.519 43.3329 278.345 41.892 276.689 43.2832C275.033 44.6744 273.965 45.6515 273.965 45.6515C273.965 45.6515 277.989 43.9953 279.414 44.1775C280.838 44.3597 282.9 42.571 282.9 42.571Z" fill="#F48583"/>
<path d="M283.082 43.665C282.933 46.1493 281.467 48.1864 278.428 47.2837C277.17 46.8685 275.887 46.5338 274.586 46.2818C274.586 46.2818 274.992 45.1059 277.94 45.139C279.707 45.16 281.439 44.6462 282.908 43.665H283.082Z" fill="#F48583"/>
<path d="M278.03 38.2816C278.858 37.7848 279.098 36.9401 278.03 37.0312C277.266 37.1896 276.592 37.6377 276.15 38.2816H278.03Z" fill="black"/>
<path d="M270.247 25.7197C271.392 27.5582 272.785 29.2301 274.387 30.6882C275.397 31.4381 276.344 32.2689 277.219 33.1725C277.353 33.3174 277.431 33.5056 277.439 33.7031C277.446 33.9005 277.383 34.0941 277.26 34.249C276.358 35.1433 273.824 34.7624 273.824 36.5262V36.2943V36.4682C273.824 36.5924 273.824 36.7166 273.824 36.8408C273.736 36.4674 273.774 36.0753 273.933 35.726C274.092 35.3768 274.362 35.0902 274.702 34.9114C275.321 34.6425 275.954 34.4075 276.598 34.2076C276.863 34.0999 277.385 33.9591 277.426 33.6113V33.9508C277.426 33.5948 276.962 33.2635 276.722 33.0565C276.151 32.5431 275.546 32.0794 274.967 31.5743C273.117 30.0001 271.518 28.1546 270.222 26.1006C270.164 26.0096 270.28 25.8191 270.222 25.7363L270.247 25.7197Z" fill="black"/>
<path d="M268.813 24.23C264.963 22.8553 259.638 24.0975 258.098 24.9669C256.558 25.8364 254.016 28.9169 254.016 28.9169C254.016 28.9169 259.506 23.6172 268.813 25.7122C268.813 25.7205 269.476 24.4618 268.813 24.23Z" fill="black"/>
<path d="M277.552 20.0723C275.995 20.9003 273.52 23.2024 273.52 23.6165C273.58 24.0771 273.691 24.5297 273.851 24.9662L278.521 21.5214L277.552 20.0723Z" fill="black"/>
</svg>
