<svg aria-hidden="true" style="position: absolute; width: 0; height: 0; overflow: hidden;" version="1.1" xmlns="http://www.w3.org/2000/svg" xmlns:xlink="http://www.w3.org/1999/xlink">
<defs>
<symbol id="krista-add-user" viewBox="0 0 32 32">
<path d="M21.23 16.043c-0.461-0.219-0.932-0.408-1.411-0.566 1.551-1.164 2.556-3.017 2.556-5.101 0-3.515-2.86-6.375-6.375-6.375s-6.375 2.86-6.375 6.375c0 2.086 1.007 3.941 2.561 5.105-1.424 0.469-2.759 1.198-3.928 2.159-2.144 1.763-3.634 4.223-4.197 6.925-0.176 0.847 0.035 1.717 0.58 2.386 0.542 0.666 1.345 1.049 2.205 1.049h11.546c0.518 0 0.938-0.42 0.938-0.937s-0.42-0.937-0.938-0.937h-11.546c-0.4 0-0.642-0.223-0.75-0.357-0.187-0.23-0.259-0.529-0.199-0.821 0.973-4.673 5.095-8.087 9.855-8.202 0.082 0.003 0.165 0.005 0.249 0.005s0.168-0.002 0.251-0.005c1.459 0.034 2.862 0.367 4.174 0.991 0.468 0.222 1.027 0.023 1.249-0.444s0.023-1.027-0.444-1.249zM16.229 14.869c-0.076-0.001-0.152-0.002-0.229-0.002s-0.151 0.001-0.227 0.002c-2.376-0.119-4.273-2.089-4.273-4.494 0-2.481 2.019-4.5 4.5-4.5s4.5 2.019 4.5 4.5c0 2.405-1.896 4.375-4.271 4.494z"></path>
<path d="M27.063 22.609h-2.578v-2.578c0-0.518-0.42-0.937-0.937-0.937s-0.937 0.42-0.937 0.937v2.578h-2.578c-0.518 0-0.938 0.42-0.938 0.937s0.42 0.938 0.938 0.938h2.578v2.578c0 0.518 0.42 0.937 0.937 0.937s0.937-0.42 0.937-0.937v-2.578h2.578c0.518 0 0.937-0.42 0.937-0.938s-0.42-0.937-0.937-0.937z"></path>
</symbol>
<symbol id="krista-calendar" viewBox="0 0 32 32">
<path d="M26.208 4.75h-1.25v-2.083h-2.083v2.083h-13.75v-2.083h-2.083v2.083h-1.25c-1.723 0-3.125 1.402-3.125 3.125v18.333c0 1.723 1.402 3.125 3.125 3.125h20.417c1.723 0 3.125-1.402 3.125-3.125v-18.333c0-1.723-1.402-3.125-3.125-3.125zM27.25 26.208c0 0.574-0.467 1.042-1.042 1.042h-20.417c-0.574 0-1.042-0.467-1.042-1.042v-13.75h22.5v13.75zM27.25 10.375h-22.5v-2.5c0-0.574 0.467-1.042 1.042-1.042h1.25v2.083h2.083v-2.083h13.75v2.083h2.083v-2.083h1.25c0.574 0 1.042 0.467 1.042 1.042v2.5z"></path>
<path d="M8.708 14.646h-2.083v2.083h2.083v-2.083z"></path>
<path d="M12.875 14.646h-2.083v2.083h2.083v-2.083z"></path>
<path d="M17.042 14.646h-2.083v2.083h2.083v-2.083z"></path>
<path d="M21.208 14.646h-2.083v2.083h2.083v-2.083z"></path>
<path d="M25.375 14.646h-2.083v2.083h2.083v-2.083z"></path>
<path d="M8.708 18.813h-2.083v2.083h2.083v-2.083z"></path>
<path d="M12.875 18.813h-2.083v2.083h2.083v-2.083z"></path>
<path d="M17.042 18.813h-2.083v2.083h2.083v-2.083z"></path>
<path d="M21.208 18.813h-2.083v2.083h2.083v-2.083z"></path>
<path d="M8.708 22.979h-2.083v2.083h2.083v-2.083z"></path>
<path d="M12.875 22.979h-2.083v2.083h2.083v-2.083z"></path>
<path d="M17.042 22.979h-2.083v2.083h2.083v-2.083z"></path>
<path d="M21.208 22.979h-2.083v2.083h2.083v-2.083z"></path>
<path d="M25.375 18.813h-2.083v2.083h2.083v-2.083z"></path>
</symbol>
<symbol id="krista-chat" viewBox="0 0 32 32">
<path d="M2.309 20.975c0 0.652 0.738 1.031 1.268 0.653l4.411-3.147c0.37-0.264 0.806-0.403 1.26-0.403h9.701c1.708 0 3.097-1.389 3.097-3.097v-10.179c0-0.443-0.359-0.802-0.802-0.802h-15.837c-1.708 0-3.097 1.389-3.097 3.097v13.878zM3.913 7.097c0-0.823 0.669-1.492 1.492-1.492h15.035v9.377c0 0.823-0.669 1.492-1.492 1.492h-9.701c-0.79 0-1.548 0.243-2.192 0.702l-3.143 2.242v-12.321z"></path>
<path d="M29.691 13.319c0-1.708-1.389-3.097-3.097-3.097h-2.143c-0.443 0-0.802 0.359-0.802 0.802s0.359 0.802 0.802 0.802h2.143c0.823 0 1.492 0.67 1.492 1.493v12.32l-3.143-2.242c-0.643-0.459-1.401-0.702-2.192-0.702h-9.701c-0.823 0-1.492-0.67-1.492-1.493v-0.719c0-0.443-0.359-0.802-0.802-0.802s-0.802 0.359-0.802 0.802v0.719c0 1.708 1.389 3.097 3.097 3.097h9.701c0.454 0 0.89 0.139 1.26 0.403l4.411 3.146c0.527 0.376 1.268 0.001 1.268-0.653v-13.878h-0z"></path>
<path d="M8.077 9.975h9.269c0.443 0 0.802-0.359 0.802-0.802s-0.359-0.802-0.802-0.802h-9.269c-0.443 0-0.802 0.359-0.802 0.802s0.359 0.802 0.802 0.802z"></path>
<path d="M8.077 13.718h9.269c0.443 0 0.802-0.359 0.802-0.802s-0.359-0.802-0.802-0.802h-9.269c-0.443 0-0.802 0.359-0.802 0.802s0.359 0.802 0.802 0.802z"></path>
</symbol>
<symbol id="krista-check" viewBox="0 0 32 32">
<path d="M26.35 11.757l-11.6 11.599c-0.859 0.859-2.252 0.859-3.112 0l-5.988-5.988c-0.859-0.859-0.859-2.253 0-3.112s2.253-0.859 3.112-0l4.433 4.433 10.043-10.043c0.859-0.859 2.253-0.859 3.112 0s0.859 2.252 0 3.112z"></path>
</symbol>
<symbol id="krista-close" viewBox="0 0 32 32">
<path d="M17.954 16l8.307-8.307c0.541-0.54 0.541-1.414 0-1.954s-1.414-0.54-1.954 0l-8.307 8.307-8.307-8.307c-0.541-0.54-1.414-0.54-1.954 0s-0.541 1.414 0 1.954l8.307 8.307-8.307 8.307c-0.541 0.54-0.541 1.414 0 1.954 0.269 0.269 0.623 0.405 0.977 0.405s0.708-0.135 0.977-0.405l8.307-8.307 8.307 8.307c0.269 0.269 0.623 0.405 0.977 0.405s0.708-0.135 0.977-0.405c0.541-0.54 0.541-1.414 0-1.954l-8.307-8.307z"></path>
</symbol>
<symbol id="krista-color" viewBox="0 0 32 32">
<path d="M8 13.333c-1.47 0-2.667 1.196-2.667 2.667s1.196 2.667 2.667 2.667c1.47 0 2.667-1.196 2.667-2.667s-1.196-2.667-2.667-2.667zM8 17.217c-0.671 0-1.217-0.546-1.217-1.217s0.546-1.217 1.217-1.217c0.671 0 1.217 0.546 1.217 1.217s-0.546 1.217-1.217 1.217z"></path>
<path d="M13.333 20c-1.47 0-2.667 1.196-2.667 2.667s1.196 2.667 2.667 2.667c1.47 0 2.667-1.196 2.667-2.667s-1.196-2.667-2.667-2.667zM13.333 23.884c-0.671 0-1.217-0.546-1.217-1.217s0.546-1.217 1.217-1.217 1.217 0.546 1.217 1.217c0 0.671-0.546 1.217-1.217 1.217z"></path>
<path d="M28.611 19.82c-0.005-0.005-0.010-0.011-0.016-0.016l-2.716-2.686c1.52-1.205 2.207-3.338 1.583-5.311-2.944-9.311-14.258-12.265-20.999-5.305-5.049 5.212-5.002 13.617-0.211 18.793 4.304 4.649 11.085 5.302 16.089 1.868 2.344-1.608 1.266-5.434-1.538-5.434-2.095 0-2.447-3.070-0.468-3.596l4.785 5.315c0.005 0.005 0.010 0.011 0.015 0.016 0.959 1.008 2.517 1.010 3.479 0.002s0.961-2.639-0.002-3.646zM18.477 22.402c0.63 0.626 1.456 0.971 2.325 0.971 1.253 0 1.725 1.698 0.679 2.415-4.38 3.006-10.33 2.441-14.105-1.638-4.234-4.574-4.209-11.916 0.204-16.466 5.913-6.097 15.804-3.546 18.393 4.641 0.439 1.386-0.109 2.892-1.259 3.64l-4.356-4.309c0.264-1.327-0.102-2.727-1.059-3.73-1.201-1.259-4.985-1.887-6.625-2.074-0.497-0.057-0.919 0.384-0.864 0.906 0.18 1.726 0.775 5.683 1.978 6.945 0.958 1.004 2.293 1.386 3.559 1.109l1.835 2.039c-1.954 1.112-2.351 3.914-0.704 5.55zM14.896 12.541c-0.591-0.62-1.119-2.976-1.398-4.918 1.853 0.292 4.1 0.846 4.691 1.465 0.91 0.954 0.91 2.498 0 3.452-0.908 0.952-2.382 0.956-3.294 0zM27.503 22.304c-0.346 0.362-0.905 0.364-1.253 0.006-0.401-0.446-7.021-7.8-7.39-8.209 0.309-0.241 0.587-0.532 0.817-0.856l7.832 7.747c0.342 0.365 0.34 0.95-0.006 1.313z"></path>
</symbol>
<symbol id="krista-crown" viewBox="0 0 32 32">
<path d="M32 11.145c0-1.679-1.366-3.045-3.045-3.045s-3.045 1.366-3.045 3.045c0 0.807 0.316 1.542 0.831 2.087-0.915 1.024-2.244 1.67-3.722 1.67-2.393 0-4.397-1.691-4.881-3.941 0.56-0.552 0.907-1.319 0.907-2.166 0-1.679-1.366-3.045-3.045-3.045s-3.045 1.366-3.045 3.045c0 0.847 0.348 1.614 0.907 2.166-0.485 2.25-2.489 3.941-4.881 3.941-1.478 0-2.807-0.646-3.722-1.67 0.515-0.545 0.831-1.28 0.831-2.087 0-1.679-1.366-3.045-3.045-3.045s-3.045 1.366-3.045 3.045c0 1.455 1.026 2.674 2.393 2.974 0.324 2.674 1.010 6.048 2.462 8.343v2.811c0 0.521 0.422 0.943 0.942 0.943h20.406c0.521 0 0.942-0.422 0.942-0.943v-2.811c1.452-2.295 2.138-5.669 2.462-8.343 1.366-0.3 2.393-1.519 2.393-2.974zM27.795 11.145c0-0.64 0.52-1.16 1.16-1.16s1.16 0.521 1.16 1.16c0 0.64-0.521 1.16-1.16 1.16s-1.16-0.52-1.16-1.16zM14.84 8.795c0-0.64 0.521-1.16 1.16-1.16s1.16 0.521 1.16 1.16c0 0.64-0.52 1.16-1.16 1.16s-1.16-0.52-1.16-1.16zM1.885 11.145c0-0.64 0.521-1.16 1.16-1.16s1.16 0.521 1.16 1.16c0 0.64-0.52 1.16-1.16 1.16s-1.16-0.52-1.16-1.16zM6.739 24.33v-1.207h18.522v1.207h-18.522zM25.685 21.239h-19.37c-0.992-1.683-1.562-4.046-1.888-6.18 1.214 1.075 2.809 1.728 4.554 1.728 3.133 0 5.783-2.105 6.611-4.975 0.134 0.018 0.27 0.028 0.408 0.028s0.275-0.010 0.408-0.028c0.828 2.87 3.478 4.975 6.611 4.975 1.746 0 3.342-0.654 4.556-1.729-0.326 2.133-0.896 4.497-1.889 6.181z"></path>
</symbol>
<symbol id="krista-cut" viewBox="0 0 32 32">
<path d="M28.004 9.026c-1.109-1.584-3.315-2.002-4.9-0.892l-8.148 5.705-2.963-2.075c1.103-1.905 0.584-4.369-1.252-5.655-1.94-1.358-4.612-0.887-5.97 1.053s-0.887 4.612 1.053 5.971c1.331 0.932 3.007 1.002 4.367 0.327l3.629 2.541-3.629 2.54c-1.359-0.674-3.036-0.604-4.367 0.327-1.94 1.358-2.41 4.031-1.053 5.97s4.031 2.411 5.97 1.053c1.837-1.286 2.355-3.751 1.252-5.655l2.963-2.075 8.147 5.705c1.585 1.11 3.79 0.692 4.9-0.892l-9.96-6.973 9.96-6.974zM8.292 11.852c-1.227 0-2.222-0.995-2.222-2.222s0.995-2.222 2.222-2.222c1.228 0 2.222 0.995 2.222 2.222s-0.995 2.222-2.222 2.222zM8.292 24.593c-1.227 0-2.222-0.995-2.222-2.222s0.995-2.222 2.222-2.222c1.228 0 2.222 0.995 2.222 2.222s-0.995 2.222-2.222 2.222z"></path>
</symbol>
<symbol id="krista-delete" viewBox="0 0 32 32">
<path d="M24.75 6h-4.583v-0.833c0-1.378-1.121-2.5-2.5-2.5h-3.333c-1.379 0-2.5 1.122-2.5 2.5v0.833h-4.583c-1.149 0-2.083 0.935-2.083 2.083v2.917c0 0.46 0.373 0.833 0.833 0.833h0.455l0.72 15.119c0.064 1.335 1.16 2.381 2.497 2.381h12.655c1.337 0 2.434-1.046 2.497-2.381l0.72-15.119h0.455c0.46 0 0.833-0.373 0.833-0.833v-2.917c0-1.149-0.935-2.083-2.083-2.083zM13.5 5.167c0-0.459 0.374-0.833 0.833-0.833h3.333c0.459 0 0.833 0.374 0.833 0.833v0.833h-5v-0.833zM6.833 8.083c0-0.23 0.187-0.417 0.417-0.417h17.5c0.23 0 0.417 0.187 0.417 0.417v2.083c-0.257 0-17.269 0-18.333 0v-2.083zM23.16 26.873c-0.021 0.445-0.387 0.794-0.832 0.794h-12.655c-0.446 0-0.811-0.349-0.832-0.794l-0.716-15.040h15.752l-0.716 15.040z"></path>
<path d="M16 26c0.46 0 0.833-0.373 0.833-0.833v-10.833c0-0.46-0.373-0.833-0.833-0.833s-0.833 0.373-0.833 0.833v10.833c0 0.46 0.373 0.833 0.833 0.833z"></path>
<path d="M20.167 26c0.46 0 0.833-0.373 0.833-0.833v-10.833c0-0.46-0.373-0.833-0.833-0.833s-0.833 0.373-0.833 0.833v10.833c0 0.46 0.373 0.833 0.833 0.833z"></path>
<path d="M11.833 26c0.46 0 0.833-0.373 0.833-0.833v-10.833c0-0.46-0.373-0.833-0.833-0.833s-0.833 0.373-0.833 0.833v10.833c0 0.46 0.373 0.833 0.833 0.833z"></path>
</symbol>
<symbol id="krista-delivery" viewBox="0 0 32 32">
<path d="M24.168 19.025c-2.224 0-4.034 1.809-4.034 4.034s1.809 4.034 4.034 4.034c2.225 0 4.034-1.809 4.034-4.034s-1.809-4.034-4.034-4.034zM24.168 25.076c-1.112 0-2.017-0.905-2.017-2.017s0.905-2.017 2.017-2.017c1.112 0 2.017 0.905 2.017 2.017s-0.905 2.017-2.017 2.017z"></path>
<path d="M10.387 19.025c-2.224 0-4.034 1.809-4.034 4.034s1.809 4.034 4.034 4.034c2.224 0 4.034-1.809 4.034-4.034s-1.809-4.034-4.034-4.034zM10.387 25.076c-1.112 0-2.017-0.905-2.017-2.017s0.905-2.017 2.017-2.017c1.112 0 2.017 0.905 2.017 2.017s-0.905 2.017-2.017 2.017z"></path>
<path d="M26.884 7.48c-0.171-0.34-0.52-0.555-0.901-0.555h-5.311v2.017h4.689l2.746 5.461 1.802-0.906-3.025-6.017z"></path>
<path d="M21.143 22.084h-7.63v2.017h7.63v-2.017z"></path>
<path d="M7.361 22.084h-3.496c-0.557 0-1.008 0.451-1.008 1.008s0.451 1.008 1.008 1.008h3.496c0.557 0 1.008-0.451 1.008-1.008s-0.451-1.008-1.008-1.008z"></path>
<path d="M31.788 15.919l-1.983-2.555c-0.191-0.246-0.485-0.39-0.796-0.39h-7.328v-7.059c0-0.557-0.451-1.008-1.008-1.008h-16.807c-0.557 0-1.008 0.451-1.008 1.008s0.451 1.008 1.008 1.008h15.798v7.059c0 0.557 0.451 1.008 1.008 1.008h7.842l1.469 1.892v5.201h-2.79c-0.557 0-1.008 0.451-1.008 1.008s0.451 1.008 1.008 1.008h3.798c0.557 0 1.008-0.451 1.008-1.008v-6.554c0-0.224-0.075-0.442-0.212-0.619z"></path>
<path d="M7.294 16.975h-4.639c-0.557 0-1.008 0.451-1.008 1.008s0.451 1.008 1.008 1.008h4.639c0.557 0 1.008-0.451 1.008-1.008s-0.451-1.008-1.008-1.008z"></path>
<path d="M9.613 13.008h-8.605c-0.557 0-1.008 0.451-1.008 1.008s0.451 1.008 1.008 1.008h8.605c0.557 0 1.008-0.451 1.008-1.008s-0.451-1.008-1.008-1.008z"></path>
<path d="M11.261 9.042h-8.605c-0.557 0-1.008 0.451-1.008 1.008s0.451 1.008 1.008 1.008h8.605c0.557 0 1.008-0.451 1.008-1.008s-0.451-1.008-1.008-1.008z"></path>
</symbol>
<symbol id="krista-doc" viewBox="0 0 32 32">
<path d="M26.426 8.801l-6.564-6.564c-0.153-0.153-0.362-0.24-0.58-0.24h-11.487c-1.357 0-2.462 1.104-2.462 2.462v23.084c0 1.357 1.104 2.462 2.462 2.462h16.41c1.357 0 2.462-1.104 2.462-2.462v-18.161c0-0.224-0.094-0.434-0.24-0.58zM20.103 4.798l3.763 3.763h-2.942c-0.452 0-0.821-0.368-0.821-0.821v-2.942zM24.205 28.362h-16.41c-0.452 0-0.821-0.368-0.821-0.821v-23.084c0-0.452 0.368-0.821 0.821-0.821h10.667v4.103c0 1.357 1.104 2.462 2.461 2.462h4.103v17.34c0 0.452-0.368 0.821-0.821 0.821z"></path>
<path d="M20.923 13.593h-9.846c-0.453 0-0.821 0.367-0.821 0.821s0.367 0.82 0.821 0.82h9.846c0.453 0 0.821-0.367 0.821-0.82s-0.367-0.821-0.821-0.821z"></path>
<path d="M20.923 16.875h-9.846c-0.453 0-0.821 0.367-0.821 0.821s0.367 0.821 0.821 0.821h9.846c0.453 0 0.821-0.367 0.821-0.821s-0.367-0.821-0.821-0.821z"></path>
<path d="M20.923 20.157h-9.846c-0.453 0-0.821 0.367-0.821 0.82s0.367 0.821 0.821 0.821h9.846c0.453 0 0.821-0.367 0.821-0.821s-0.367-0.82-0.821-0.82z"></path>
<path d="M17.641 23.439h-6.564c-0.453 0-0.821 0.367-0.821 0.821s0.367 0.821 0.821 0.821h6.564c0.453 0 0.821-0.367 0.821-0.821s-0.367-0.821-0.821-0.821z"></path>
</symbol>
<symbol id="krista-edit" viewBox="0 0 32 32">
<path d="M4.732 24.338h0.15l7.249-1.577c0.141-0.023 0.272-0.089 0.376-0.188l12.282-12.282c0.897-0.895 1.398-2.113 1.39-3.38 0.002-1.277-0.497-2.504-1.39-3.418-0.895-0.897-2.113-1.398-3.38-1.39-1.275-0.011-2.499 0.505-3.38 1.427l-12.244 12.282c-0.108 0.087-0.187 0.205-0.225 0.338l-1.577 7.249c-0.043 0.26 0.041 0.525 0.225 0.714 0.139 0.141 0.328 0.223 0.526 0.225zM21.408 3.606c1.805-0 3.268 1.463 3.268 3.267 0 0.013-0 0.025-0 0.038 0.012 0.86-0.327 1.687-0.939 2.291l-4.62-4.657c0.609-0.605 1.433-0.943 2.291-0.939zM18.066 5.634l4.62 4.62-10.704 10.667-4.62-4.582 10.704-10.704zM6.761 17.841l3.718 3.718-4.77 1.052 1.052-4.77z"></path>
<path d="M28.582 28.394h-25.164c-0.415 0-0.751 0.336-0.751 0.751s0.336 0.751 0.751 0.751h25.164c0.415 0 0.751-0.336 0.751-0.751s-0.336-0.751-0.751-0.751z"></path>
</symbol>
<symbol id="krista-eye" viewBox="0 0 32 32">
<path d="M16 8c-5.128 0-9.779 2.806-13.211 7.363-0.28 0.373-0.28 0.895 0 1.268 3.432 4.563 8.082 7.369 13.211 7.369s9.779-2.806 13.211-7.363c0.28-0.373 0.28-0.895 0-1.268-3.432-4.563-8.082-7.369-13.211-7.369zM16.368 21.633c-3.404 0.214-6.215-2.592-6.001-6.001 0.176-2.811 2.454-5.090 5.266-5.266 3.404-0.214 6.215 2.592 6.001 6.001-0.181 2.806-2.46 5.084-5.266 5.266zM16.198 19.031c-1.834 0.115-3.349-1.395-3.229-3.229 0.093-1.515 1.323-2.74 2.839-2.839 1.834-0.115 3.349 1.395 3.229 3.229-0.099 1.521-1.329 2.745-2.839 2.839z"></path>
</symbol>
<symbol id="krista-filter" viewBox="0 0 32 32">
<path d="M24.563 2.667h-17.125c-2.631 0-4.771 2.14-4.771 4.771v17.126c0 2.63 2.14 4.771 4.771 4.771h17.125c2.63 0 4.771-2.14 4.771-4.771v-17.125c0-2.631-2.14-4.771-4.771-4.771zM27.771 24.563c0 1.769-1.439 3.208-3.208 3.208h-17.125c-1.769 0-3.208-1.439-3.208-3.208v-17.125c0-1.769 1.439-3.208 3.208-3.208h17.125c1.769 0 3.208 1.439 3.208 3.208v17.125z"></path>
<path d="M25.205 8.524h-11.899c-0.327-0.972-1.246-1.674-2.327-1.674s-2 0.702-2.327 1.674h-1.857c-0.431 0-0.781 0.35-0.781 0.781s0.35 0.781 0.781 0.781h1.857c0.327 0.972 1.246 1.674 2.327 1.674s2-0.702 2.327-1.674h11.899c0.431 0 0.781-0.35 0.781-0.781s-0.35-0.781-0.781-0.781zM10.979 10.198c-0.492 0-0.892-0.4-0.892-0.892s0.4-0.892 0.892-0.892c0.492 0 0.892 0.4 0.892 0.892s-0.4 0.892-0.892 0.892z"></path>
<path d="M25.205 15.219h-1.857c-0.327-0.972-1.246-1.674-2.327-1.674s-1.999 0.702-2.327 1.674h-11.899c-0.431 0-0.781 0.35-0.781 0.781s0.35 0.781 0.781 0.781h11.899c0.327 0.972 1.246 1.674 2.327 1.674s2-0.702 2.327-1.674h1.857c0.431 0 0.781-0.35 0.781-0.781s-0.35-0.781-0.781-0.781zM21.021 16.892c-0.492 0-0.892-0.4-0.892-0.892s0.4-0.892 0.892-0.892c0.492 0 0.892 0.4 0.892 0.892s-0.4 0.892-0.892 0.892z"></path>
<path d="M25.205 21.913h-8.552c-0.327-0.972-1.246-1.674-2.327-1.674s-2 0.702-2.327 1.674h-5.205c-0.431 0-0.781 0.35-0.781 0.781s0.35 0.781 0.781 0.781h5.205c0.327 0.972 1.246 1.673 2.327 1.673s1.999-0.702 2.327-1.673h8.552c0.431 0 0.781-0.35 0.781-0.781s-0.35-0.781-0.781-0.781zM14.326 23.587c-0.492 0-0.892-0.4-0.892-0.892s0.4-0.892 0.892-0.892 0.892 0.4 0.892 0.892c0 0.492-0.4 0.892-0.892 0.892z"></path>
</symbol>
<symbol id="krista-hanger" viewBox="0 0 32 32">
<path d="M30.32 21.614l-13.383-7.755v-0.577c0-0.658 0.375-1.27 0.98-1.597 1.362-0.737 2.171-2.157 2.113-3.706-0.079-2.093-1.781-3.795-3.874-3.875-1.107-0.043-2.156 0.357-2.953 1.124s-1.236 1.8-1.236 2.906c0 0.518 0.42 0.938 0.938 0.938s0.938-0.42 0.938-0.938c0-0.592 0.235-1.145 0.662-1.556s0.987-0.625 1.581-0.601c1.119 0.043 2.029 0.953 2.071 2.072 0.031 0.83-0.402 1.591-1.132 1.986-1.21 0.655-1.962 1.899-1.962 3.246v0.577l-13.382 7.755c-1.036 0.601-1.68 1.718-1.68 2.916 0 1.858 1.511 3.37 3.369 3.37h25.262c1.858 0 3.369-1.512 3.369-3.37 0-1.198-0.644-2.315-1.68-2.916zM28.631 26.024h-25.262c-0.824 0-1.494-0.671-1.494-1.495 0-0.531 0.285-1.027 0.745-1.293l13.38-7.753 13.38 7.753c0.46 0.266 0.745 0.762 0.745 1.293 0 0.824-0.67 1.495-1.494 1.495z"></path>
</symbol>
<symbol id="krista-history" viewBox="0 0 32 32">
<path d="M15.998 10l-0.003 6.996c0 0.266 0.105 0.519 0.293 0.707l5.005 5.004 1.414-1.414-4.712-4.711 0.003-6.582h-2z"></path>
<path d="M18 2c-7.039 0-12.864 5.228-13.84 12h-4.16l5 5 5-5h-3.819c0.957-5.666 5.885-10 11.819-10 6.617 0 12 5.383 12 12s-5.383 12-12 12c-3.72 0-7.169-1.684-9.463-4.619l-1.576 1.231c2.676 3.424 6.699 5.389 11.039 5.389 7.72 0 14-6.281 14-14s-6.28-14-14-14z"></path>
</symbol>
<symbol id="krista-home" viewBox="0 0 32 32">
<path d="M25.261 17.096c-0.454 0-0.821 0.368-0.821 0.821v8.44h-4.531v-8.44c0-0.454-0.368-0.821-0.821-0.821h-6.174c-0.454 0-0.821 0.368-0.821 0.821v8.44h-4.531v-8.44c0-0.454-0.368-0.821-0.821-0.821s-0.821 0.368-0.821 0.821v9.261c0 0.454 0.368 0.821 0.821 0.821h18.522c0.454 0 0.821-0.368 0.821-0.821v-9.261c0-0.454-0.368-0.821-0.821-0.821zM13.734 26.357v-7.618h4.532v7.618h-4.532z"></path>
<path d="M29.678 17.337l-13.097-13.096c-0.321-0.321-0.841-0.321-1.162 0l-13.096 13.096c-0.321 0.321-0.321 0.841 0 1.161s0.841 0.321 1.162 0l12.516-12.515 12.517 12.516c0.16 0.16 0.371 0.241 0.581 0.241s0.42-0.080 0.581-0.241c0.321-0.321 0.321-0.841-0-1.161z"></path>
</symbol>
<symbol id="krista-info" viewBox="0 0 32 32">
<path d="M16 2.667c-7.369 0-13.333 5.963-13.333 13.333s5.963 13.333 13.333 13.333c7.369 0 13.333-5.963 13.333-13.333s-5.963-13.333-13.333-13.333zM16 27.556c-6.372 0-11.556-5.184-11.556-11.556s5.184-11.556 11.556-11.556 11.556 5.184 11.556 11.556c0 6.372-5.184 11.556-11.556 11.556z"></path>
<path d="M16 13.593c-0.491 0-0.889 0.398-0.889 0.889v7.498c0 0.491 0.398 0.889 0.889 0.889s0.889-0.398 0.889-0.889v-7.498c-0-0.491-0.398-0.889-0.889-0.889z"></path>
<path d="M16 9.131c-0.98 0-1.778 0.797-1.778 1.778s0.797 1.778 1.778 1.778c0.98 0 1.778-0.797 1.778-1.778s-0.797-1.778-1.778-1.778z"></path>
</symbol>
<symbol id="krista-link" viewBox="0 0 32 32">
<path d="M13.722 22.992l-3.142 3.142c-1.303 1.303-3.412 1.303-4.714 0s-1.302-3.412-0-4.713l6.286-6.286c1.302-1.302 3.412-1.302 4.713 0 0.434 0.434 1.137 0.434 1.571 0s0.434-1.137 0-1.571c-2.17-2.169-5.686-2.169-7.856 0l-6.286 6.286c-2.17 2.17-2.17 5.687 0 7.856 2.169 2.171 5.686 2.171 7.857 0l3.142-3.142c0.434-0.434 0.434-1.137 0-1.571s-1.137-0.434-1.571 0z"></path>
<path d="M27.706 4.294c-2.169-2.17-5.688-2.17-7.857 0l-3.77 3.77c-0.434 0.434-0.434 1.137 0 1.571s1.137 0.434 1.571 0l3.77-3.77c1.302-1.302 3.413-1.302 4.714 0s1.302 3.412 0 4.713l-6.914 6.914c-1.302 1.302-3.411 1.302-4.713 0-0.434-0.434-1.137-0.434-1.571 0s-0.434 1.137 0 1.571c2.17 2.17 5.686 2.17 7.856 0l6.913-6.913c2.17-2.17 2.17-5.686 0-7.856z"></path>
</symbol>
<symbol id="krista-logout" viewBox="0 0 32 32">
<path d="M15.956 27.074h-9.967c-0.611 0-1.107-0.496-1.107-1.107v-19.934c0-0.611 0.496-1.107 1.107-1.107h9.967c0.612 0 1.107-0.495 1.107-1.107s-0.495-1.107-1.107-1.107h-9.967c-1.832 0-3.322 1.491-3.322 3.322v19.934c0 1.832 1.491 3.322 3.322 3.322h9.967c0.612 0 1.107-0.495 1.107-1.107s-0.495-1.107-1.107-1.107z"></path>
<path d="M29.003 15.211l-6.733-6.644c-0.434-0.43-1.136-0.424-1.566 0.011s-0.425 1.136 0.011 1.566l4.812 4.749h-12.894c-0.612 0-1.107 0.495-1.107 1.107s0.495 1.107 1.107 1.107h12.894l-4.812 4.749c-0.436 0.43-0.44 1.131-0.011 1.566 0.217 0.219 0.503 0.33 0.789 0.33 0.281 0 0.563-0.106 0.777-0.319l6.733-6.645c0.21-0.208 0.33-0.492 0.33-0.789s-0.119-0.579-0.33-0.788z"></path>
</symbol>
<symbol id="krista-staff" viewBox="0 0 32 32">
<path d="M16 6.127c1.607 0 2.909-1.302 2.909-2.909s-1.303-2.909-2.909-2.909c-1.607 0-2.909 1.302-2.909 2.909s1.302 2.909 2.909 2.909zM16 1.764c0.803 0 1.455 0.651 1.455 1.455s-0.651 1.455-1.455 1.455c-0.803 0-1.455-0.651-1.455-1.455s0.651-1.455 1.455-1.455z"></path>
<path d="M17.057 6.599c-0.013 0-0.026 0.001-0.038 0.001h-2.036c-2.188-0.061-4.011 1.664-4.072 3.852-0 0.013-0.001 0.026-0.001 0.039v0.582c0 0.4 0.4 0.618 0.8 0.618h8.582c0.4 0 0.8-0.218 0.8-0.618v-0.582c-0.039-2.189-1.846-3.931-4.034-3.892zM12.436 10.236c0.073-1.091 1.2-2.182 2.545-2.182h2.036c1.345 0 2.473 1.091 2.545 2.182h-7.127z"></path>
<path d="M4.182 18.782c0.402 0 0.727-0.326 0.727-0.727-0.002-3.364 1.523-6.548 4.145-8.655 0.288-0.28 0.294-0.741 0.013-1.028-0.244-0.25-0.631-0.292-0.922-0.099-2.97 2.378-4.696 5.977-4.691 9.782 0 0.402 0.326 0.727 0.727 0.727z"></path>
<path d="M19.544 28.557c-0.006 0.002-0.011 0.004-0.017 0.006-2.277 0.762-4.741 0.762-7.018 0-0.381-0.119-0.787 0.092-0.909 0.473-0.138 0.356 0.038 0.756 0.394 0.894 0.014 0.005 0.028 0.010 0.042 0.015 2.583 0.873 5.381 0.873 7.964 0 0.385-0.137 0.594-0.554 0.473-0.945-0.134-0.378-0.55-0.577-0.928-0.443z"></path>
<path d="M22.4 9c2.945 2.074 4.696 5.452 4.691 9.055 0 0.402 0.326 0.727 0.727 0.727s0.727-0.326 0.727-0.727c-0.010-4.075-1.987-7.894-5.309-10.255-0.331-0.231-0.787-0.15-1.018 0.182s-0.149 0.787 0.182 1.018z"></path>
<path d="M5.091 26.127c1.607 0 2.909-1.303 2.909-2.909s-1.302-2.909-2.909-2.909-2.909 1.302-2.909 2.909c0 1.607 1.302 2.909 2.909 2.909zM5.091 21.764c0.803 0 1.455 0.651 1.455 1.455s-0.651 1.455-1.455 1.455c-0.803 0-1.455-0.651-1.455-1.455s0.651-1.455 1.455-1.455z"></path>
<path d="M6.148 26.599c-0.013 0-0.026 0.001-0.038 0.001h-2.036c-2.188-0.061-4.011 1.664-4.072 3.852-0 0.013-0.001 0.026-0.001 0.039v0.582c0 0.4 0.4 0.618 0.8 0.618h8.582c0.4 0 0.8-0.218 0.8-0.618v-0.582c-0.039-2.189-1.845-3.931-4.034-3.892zM1.527 30.236c0.073-1.091 1.2-2.182 2.545-2.182h2.036c1.345 0 2.473 1.091 2.545 2.182h-7.127z"></path>
<path d="M24 23.218c0 1.607 1.303 2.909 2.909 2.909s2.909-1.303 2.909-2.909c0-1.607-1.302-2.909-2.909-2.909s-2.909 1.302-2.909 2.909zM28.364 23.218c0 0.803-0.651 1.455-1.455 1.455s-1.455-0.651-1.455-1.455c0-0.803 0.651-1.455 1.455-1.455s1.455 0.651 1.455 1.455z"></path>
<path d="M27.966 26.599c-0.013 0-0.026 0.001-0.038 0.001h-2.036c-2.188-0.061-4.011 1.664-4.072 3.852-0 0.013-0.001 0.026-0.001 0.039v0.582c0 0.4 0.4 0.618 0.8 0.618h8.582c0.4 0 0.8-0.218 0.8-0.618v-0.582c-0.039-2.189-1.845-3.931-4.034-3.892zM23.345 30.236c0.073-1.091 1.2-2.182 2.545-2.182h2.036c1.345 0 2.473 1.091 2.545 2.182h-7.127z"></path>
</symbol>
<symbol id="krista-media" viewBox="0 0 32 32">
<path d="M16.171 12.563c-1.502 0-2.72 1.218-2.72 2.72s1.218 2.72 2.72 2.72 2.72-1.218 2.72-2.72c0-1.502-1.218-2.72-2.72-2.72zM16.171 16.708c-0.787 0-1.425-0.638-1.425-1.425s0.638-1.425 1.425-1.425c0.787 0 1.425 0.638 1.425 1.425s-0.638 1.425-1.425 1.425z"></path>
<path d="M27.019 6.346l-17.681-2.008c-0.686-0.098-1.381 0.103-1.911 0.551-0.529 0.41-0.868 1.018-0.939 1.684l-0.324 2.655h-1.004c-1.425 0-2.493 1.263-2.493 2.688v13.244c-0.036 1.359 1.036 2.489 2.395 2.525 0.033 0.001 0.066 0.001 0.098 0.001h17.778c1.425 0 2.72-1.101 2.72-2.526v-0.518c0.442-0.085 0.861-0.262 1.231-0.518 0.525-0.442 0.861-1.067 0.939-1.749l1.49-13.147c0.152-1.428-0.873-2.713-2.299-2.882zM24.364 25.16c0 0.713-0.712 1.231-1.425 1.231h-17.778c-0.644 0.019-1.181-0.487-1.199-1.131-0.001-0.033-0.001-0.066 0.001-0.1v-2.396l5.019-3.692c0.603-0.463 1.452-0.422 2.008 0.097l3.53 3.109c0.536 0.45 1.211 0.702 1.911 0.712 0.547 0.007 1.085-0.139 1.554-0.421l6.379-3.692v6.282h-0zM24.364 17.356l-7.059 4.113c-0.606 0.359-1.373 0.294-1.911-0.162l-3.562-3.141c-1.021-0.877-2.513-0.931-3.594-0.13l-4.274 3.109v-9.229c0-0.712 0.486-1.392 1.198-1.392h17.778c0.761 0.032 1.376 0.632 1.425 1.392v5.44zM28.024 9.053c-0.001 0.004-0.001 0.009-0.001 0.013l-1.522 13.147c0.003 0.341-0.153 0.664-0.421 0.874-0.13 0.129-0.421 0.194-0.421 0.259v-11.431c-0.051-1.475-1.244-2.654-2.72-2.688h-15.479l0.291-2.526c0.063-0.327 0.234-0.623 0.486-0.842 0.284-0.196 0.627-0.288 0.972-0.259l17.648 2.040c0.712 0.068 1.235 0.7 1.167 1.412z"></path>
</symbol>
<symbol id="krista-menu-bars" viewBox="0 0 32 32">
<path d="M28.222 8.565h-24.445c-0.613 0-1.111-0.498-1.111-1.111s0.498-1.111 1.111-1.111h24.445c0.613 0 1.111 0.498 1.111 1.111s-0.498 1.111-1.111 1.111zM28.222 17.083h-24.445c-0.613 0-1.111-0.498-1.111-1.111s0.498-1.111 1.111-1.111h24.445c0.613 0 1.111 0.498 1.111 1.111s-0.498 1.111-1.111 1.111zM3.778 25.602h24.445c0.613 0 1.111-0.498 1.111-1.111s-0.498-1.111-1.111-1.111h-24.445c-0.613 0-1.111 0.498-1.111 1.111s0.498 1.111 1.111 1.111z"></path>
</symbol>
<symbol id="krista-money" viewBox="0 0 32 32">
<path d="M16 29.333c-3.561 0-6.91-1.387-9.428-3.905s-3.905-5.867-3.905-9.428 1.387-6.91 3.905-9.428c2.518-2.518 5.867-3.905 9.428-3.905s6.91 1.387 9.428 3.905c2.518 2.518 3.905 5.867 3.905 9.428s-1.387 6.91-3.905 9.428c-2.518 2.518-5.867 3.905-9.428 3.905zM16 4.333c-6.433 0-11.667 5.234-11.667 11.667s5.234 11.667 11.667 11.667c6.433 0 11.667-5.234 11.667-11.667s-5.234-11.667-11.667-11.667z"></path>
<path d="M16 15.167c-1.149 0-2.083-0.935-2.083-2.083s0.935-2.083 2.083-2.083 2.083 0.935 2.083 2.083c0 0.46 0.373 0.833 0.833 0.833s0.833-0.373 0.833-0.833c0-1.781-1.249-3.275-2.917-3.656v-0.928c0-0.46-0.373-0.833-0.833-0.833s-0.833 0.373-0.833 0.833v0.928c-1.668 0.38-2.917 1.874-2.917 3.656 0 2.068 1.682 3.75 3.75 3.75 1.149 0 2.083 0.935 2.083 2.083s-0.935 2.083-2.083 2.083c-1.149 0-2.083-0.935-2.083-2.083 0-0.46-0.373-0.833-0.833-0.833s-0.833 0.373-0.833 0.833c0 1.781 1.249 3.275 2.917 3.655v0.928c0 0.46 0.373 0.833 0.833 0.833s0.833-0.373 0.833-0.833v-0.928c1.668-0.38 2.917-1.874 2.917-3.655 0-2.068-1.682-3.75-3.75-3.75z"></path>
</symbol>
<symbol id="krista-more" viewBox="0 0 32 32">
<path d="M16 8.593c1.636 0 2.963-1.327 2.963-2.963s-1.327-2.963-2.963-2.963c-1.636 0-2.963 1.327-2.963 2.963s1.327 2.963 2.963 2.963z"></path>
<path d="M16 18.963c1.636 0 2.963-1.327 2.963-2.963s-1.327-2.963-2.963-2.963-2.963 1.327-2.963 2.963c0 1.636 1.327 2.963 2.963 2.963z"></path>
<path d="M16 29.333c1.636 0 2.963-1.327 2.963-2.963s-1.327-2.963-2.963-2.963c-1.636 0-2.963 1.327-2.963 2.963s1.327 2.963 2.963 2.963z"></path>
</symbol>
<symbol id="krista-move" viewBox="0 0 32 32">
<path d="M29.115 15.515l-3.188-3.188c-0.283-0.283-0.779-0.283-1.062 0l-0.403 0.403c-0.293 0.293-0.293 0.762 0 1.055l1.185 1.178h-8.606v-8.589l1.182 1.2c0.283 0.283 0.771 0.283 1.053 0l0.399-0.403c0.293-0.293 0.29-0.769-0.002-1.062l-3.193-3.201c-0.141-0.14-0.33-0.227-0.531-0.227h-0.022c-0.201 0-0.39 0.086-0.53 0.227l-3.127 3.131c-0.142 0.141-0.22 0.332-0.22 0.533s0.078 0.391 0.22 0.532l0.403 0.403c0.283 0.283 0.792 0.283 1.075 0l1.212-1.2v8.655h-8.617l1.2-1.193c0.141-0.141 0.219-0.327 0.219-0.528s-0.078-0.388-0.22-0.529l-0.403-0.402c-0.283-0.283-0.779-0.282-1.061 0l-3.192 3.192c-0.145 0.145-0.222 0.338-0.219 0.538-0.004 0.207 0.074 0.4 0.218 0.545l3.126 3.127c0.283 0.283 0.779 0.283 1.062 0l0.403-0.403c0.141-0.141 0.219-0.33 0.219-0.531s-0.078-0.392-0.219-0.533l-1.2-1.202h8.682v8.674l-1.265-1.251c-0.283-0.283-0.785-0.283-1.068 0l-0.406 0.403c-0.141 0.141-0.221 0.33-0.221 0.531s0.077 0.389 0.218 0.531l3.168 3.168c0.141 0.14 0.329 0.218 0.537 0.218 0.001-0.001 0.013 0 0.015 0 0.201 0 0.39-0.078 0.531-0.218l3.188-3.189c0.141-0.141 0.219-0.33 0.219-0.531s-0.078-0.39-0.219-0.531l-0.403-0.403c-0.283-0.283-0.761-0.283-1.044 0l-1.167 1.185v-8.587h8.693l-1.252 1.254c-0.142 0.141-0.219 0.331-0.219 0.532s0.078 0.39 0.219 0.531l0.403 0.403c0.282 0.283 0.779 0.283 1.061 0l3.168-3.168c0.145-0.144 0.222-0.339 0.218-0.537 0.004-0.207-0.073-0.4-0.218-0.545z"></path>
</symbol>
<symbol id="krista-paste" viewBox="0 0 32 32">
<path d="M2.667 23.576c0 1.839 1.495 3.333 3.333 3.333 0.502 0 0.909-0.407 0.909-0.909s-0.407-0.909-0.909-0.909c-0.835 0-1.515-0.68-1.515-1.515v-18.788c0-0.835 0.68-1.515 1.515-1.515h13.939c0.502 0 0.909-0.407 0.909-0.909s-0.407-0.909-0.909-0.909h-13.939c-1.839 0-3.333 1.495-3.333 3.333v18.788zM26 30.545h-13.939c-1.839 0-3.333-1.495-3.333-3.333v-18.788c0-1.839 1.495-3.333 3.333-3.333h13.939c1.839 0 3.333 1.495 3.333 3.333v18.788c0 1.839-1.495 3.333-3.333 3.333zM12.061 6.909c-0.835 0-1.515 0.68-1.515 1.515v18.788c0 0.835 0.68 1.515 1.515 1.515h13.939c0.835 0 1.515-0.68 1.515-1.515v-18.788c0-0.835-0.68-1.515-1.515-1.515h-13.939zM17.515 16.303h-4.242c-0.502 0-0.909-0.407-0.909-0.909v-4.242c0-0.502 0.407-0.909 0.909-0.909h4.242c0.502 0 0.909 0.407 0.909 0.909v4.242c0 0.502-0.407 0.909-0.909 0.909zM14.182 14.485h2.424v-2.424h-2.424v2.424zM21.455 16h3.636c0.502 0 0.909-0.407 0.909-0.909s-0.407-0.909-0.909-0.909h-3.636c-0.502 0-0.909 0.407-0.909 0.909s0.407 0.909 0.909 0.909zM25.091 12.364h-3.636c-0.502 0-0.909-0.407-0.909-0.909s0.407-0.909 0.909-0.909h3.636c0.502 0 0.909 0.407 0.909 0.909s-0.407 0.909-0.909 0.909zM13.273 25.697h11.515c0.502 0 0.909-0.407 0.909-0.909s-0.407-0.909-0.909-0.909h-11.515c-0.502 0-0.909 0.407-0.909 0.909s0.407 0.909 0.909 0.909zM24.788 20.849h-11.515c-0.502 0-0.909-0.407-0.909-0.909s0.407-0.909 0.909-0.909h11.515c0.502 0 0.909 0.407 0.909 0.909s-0.407 0.909-0.909 0.909z"></path>
</symbol>
<symbol id="krista-plus" viewBox="0 0 32 32">
<path d="M24.571 2.667h-17.143c-2.629 0.003-4.759 2.133-4.762 4.762v17.143c0.003 2.629 2.133 4.759 4.762 4.762h17.143c2.629-0.003 4.759-2.133 4.762-4.762v-17.143c-0.003-2.629-2.133-4.759-4.762-4.762zM27.429 24.571c0 1.578-1.279 2.857-2.857 2.857h-17.143c-1.578 0-2.857-1.279-2.857-2.857v-17.143c0-1.578 1.279-2.857 2.857-2.857h17.143c1.578 0 2.857 1.279 2.857 2.857v17.143z"></path>
<path d="M20.762 15.048h-3.809v-3.81c0-0.526-0.426-0.952-0.952-0.952s-0.952 0.426-0.952 0.952v3.81h-3.81c-0.526 0-0.952 0.426-0.952 0.952s0.426 0.952 0.952 0.952h3.81v3.81c0 0.526 0.426 0.952 0.952 0.952s0.952-0.427 0.952-0.952v-3.81h3.809c0.526 0 0.952-0.426 0.952-0.952s-0.426-0.952-0.952-0.952z"></path>
</symbol>
<symbol id="krista-print" viewBox="0 0 32 32">
<path d="M25.427 9.385h-0.729v-2.813c0-2.154-1.752-3.906-3.906-3.906h-9.583c-2.154 0-3.906 1.752-3.906 3.906v2.813h-0.729c-2.154 0-3.906 1.752-3.906 3.906v6.25c0 2.154 1.752 3.906 3.906 3.906h0.729v3.542c0 1.292 1.051 2.344 2.344 2.344h12.708c1.292 0 2.344-1.051 2.344-2.344v-3.542h0.729c2.154 0 3.906-1.752 3.906-3.906v-6.25c0-2.154-1.752-3.906-3.906-3.906zM8.865 6.573c0-1.292 1.051-2.344 2.344-2.344h9.583c1.292 0 2.344 1.051 2.344 2.344v2.812h-14.271v-2.813zM23.135 26.99c0 0.431-0.351 0.781-0.781 0.781h-12.708c-0.431 0-0.781-0.35-0.781-0.781v-7.708h14.271v7.708zM27.771 19.542c0 1.292-1.051 2.344-2.344 2.344h-0.729v-2.604h0.469c0.431 0 0.781-0.35 0.781-0.781s-0.35-0.781-0.781-0.781h-18.333c-0.431 0-0.781 0.35-0.781 0.781s0.35 0.781 0.781 0.781h0.469v2.604h-0.729c-1.292 0-2.344-1.051-2.344-2.344v-6.25c0-1.292 1.051-2.344 2.344-2.344h18.854c1.292 0 2.344 1.051 2.344 2.344v6.25z"></path>
<path d="M18.083 21.052h-4.167c-0.431 0-0.781 0.35-0.781 0.781s0.35 0.781 0.781 0.781h4.167c0.431 0 0.781-0.35 0.781-0.781s-0.35-0.781-0.781-0.781z"></path>
<path d="M18.083 24.385h-4.167c-0.431 0-0.781 0.35-0.781 0.781s0.35 0.781 0.781 0.781h4.167c0.431 0 0.781-0.35 0.781-0.781s-0.35-0.781-0.781-0.781z"></path>
<path d="M9.333 12.719h-2.5c-0.431 0-0.781 0.35-0.781 0.781s0.35 0.781 0.781 0.781h2.5c0.431 0 0.781-0.35 0.781-0.781s-0.35-0.781-0.781-0.781z"></path>
</symbol>
<symbol id="krista-search" viewBox="0 0 32 32">
<path d="M14.41 2.667c-6.475 0-11.743 5.268-11.743 11.743s5.268 11.743 11.743 11.743c6.475 0 11.743-5.268 11.743-11.743s-5.268-11.743-11.743-11.743zM14.41 23.986c-5.28 0-9.575-4.296-9.575-9.575s4.296-9.575 9.575-9.575 9.575 4.296 9.575 9.575c0 5.28-4.295 9.575-9.575 9.575z"></path>
<path d="M29.016 27.483l-6.215-6.215c-0.423-0.423-1.109-0.423-1.533 0s-0.423 1.11 0 1.533l6.215 6.215c0.212 0.212 0.489 0.318 0.766 0.318s0.555-0.106 0.766-0.318c0.423-0.423 0.423-1.11 0-1.533z"></path>
</symbol>
<symbol id="krista-settings" viewBox="0 0 32 32">
<path d="M16.837 29.333h-1.674c-1.354 0-2.455-1.101-2.455-2.455v-0.566c-0.575-0.184-1.135-0.416-1.672-0.694l-0.401 0.401c-0.972 0.973-2.529 0.945-3.472-0l-1.183-1.183c-0.945-0.944-0.972-2.5 0-3.472l0.401-0.401c-0.278-0.537-0.51-1.096-0.694-1.672h-0.566c-1.354 0-2.455-1.101-2.455-2.455v-1.674c0-1.354 1.101-2.455 2.455-2.455h0.566c0.184-0.576 0.416-1.135 0.694-1.672l-0.401-0.401c-0.972-0.971-0.945-2.527 0-3.472l1.183-1.183c0.946-0.947 2.502-0.971 3.472 0l0.401 0.401c0.537-0.278 1.096-0.51 1.672-0.694v-0.566c0-1.354 1.101-2.455 2.455-2.455h1.674c1.354 0 2.455 1.101 2.455 2.455v0.566c0.575 0.184 1.135 0.416 1.672 0.694l0.401-0.401c0.972-0.973 2.529-0.944 3.472 0l1.183 1.183c0.945 0.944 0.973 2.5-0 3.472l-0.401 0.401c0.278 0.537 0.51 1.096 0.694 1.672h0.566c1.354 0 2.455 1.101 2.455 2.455v1.674c0 1.354-1.101 2.455-2.455 2.455h-0.566c-0.184 0.575-0.416 1.135-0.694 1.672l0.401 0.401c0.972 0.971 0.945 2.527-0 3.472l-1.183 1.183c-0.946 0.947-2.502 0.971-3.472-0l-0.401-0.401c-0.537 0.278-1.096 0.51-1.672 0.694v0.566c0 1.354-1.101 2.455-2.455 2.455zM11.298 23.978c0.746 0.441 1.549 0.775 2.387 0.991 0.345 0.089 0.586 0.4 0.586 0.756v1.154c0 0.492 0.4 0.892 0.892 0.892h1.674c0.492 0 0.892-0.4 0.892-0.892v-1.154c0-0.356 0.241-0.667 0.586-0.756 0.838-0.216 1.641-0.55 2.387-0.991 0.307-0.182 0.698-0.132 0.95 0.12l0.817 0.817c0.352 0.353 0.918 0.345 1.262 0l1.184-1.184c0.343-0.342 0.354-0.908 0-1.262l-0.817-0.817c-0.252-0.252-0.302-0.643-0.12-0.95 0.441-0.746 0.775-1.549 0.991-2.387 0.089-0.345 0.4-0.586 0.757-0.586h1.153c0.492 0 0.892-0.4 0.892-0.892v-1.674c0-0.492-0.4-0.892-0.892-0.892h-1.153c-0.356 0-0.667-0.241-0.757-0.586-0.216-0.838-0.55-1.641-0.991-2.387-0.182-0.307-0.132-0.698 0.12-0.95l0.817-0.817c0.353-0.353 0.344-0.918 0-1.262l-1.184-1.184c-0.343-0.344-0.909-0.354-1.262-0l-0.817 0.817c-0.252 0.252-0.643 0.302-0.95 0.12-0.746-0.441-1.549-0.775-2.387-0.991-0.345-0.089-0.586-0.4-0.586-0.756v-1.154c0-0.492-0.4-0.892-0.892-0.892h-1.674c-0.492 0-0.892 0.4-0.892 0.892v1.154c0 0.356-0.241 0.667-0.586 0.756-0.838 0.216-1.641 0.55-2.387 0.991-0.307 0.181-0.698 0.132-0.95-0.12l-0.817-0.817c-0.352-0.353-0.918-0.345-1.262-0l-1.184 1.184c-0.343 0.342-0.354 0.908-0 1.262l0.817 0.817c0.252 0.252 0.302 0.643 0.12 0.95-0.441 0.746-0.775 1.549-0.991 2.387-0.089 0.345-0.4 0.586-0.756 0.586h-1.154c-0.492 0-0.892 0.4-0.892 0.892v1.674c0 0.492 0.4 0.892 0.892 0.892h1.154c0.356 0 0.667 0.241 0.756 0.586 0.216 0.838 0.55 1.641 0.991 2.387 0.181 0.307 0.132 0.698-0.12 0.95l-0.817 0.817c-0.353 0.353-0.344 0.918-0 1.262l1.184 1.184c0.343 0.343 0.909 0.354 1.262 0l0.817-0.817c0.186-0.186 0.572-0.343 0.95-0.12z"></path>
<path d="M16 21.333c-2.941 0-5.333-2.393-5.333-5.333s2.392-5.333 5.333-5.333c2.941 0 5.333 2.393 5.333 5.333s-2.393 5.333-5.333 5.333zM16 12.103c-2.149 0-3.897 1.748-3.897 3.897s1.748 3.897 3.897 3.897c2.149 0 3.897-1.748 3.897-3.897s-1.748-3.897-3.897-3.897z"></path>
</symbol>
<symbol id="krista-shop" viewBox="0 0 32 32">
<path d="M26.654 28.22l-1.569-18.071c-0.043-0.493-0.443-0.872-0.921-0.872h-3.235v-1.509c0-2.813-2.212-5.101-4.93-5.101s-4.93 2.288-4.93 5.101v1.509h-3.237c-0.479 0-0.879 0.378-0.921 0.872l-1.575 18.142c-0.023 0.268 0.063 0.533 0.239 0.731s0.423 0.311 0.683 0.311h19.481c0.001 0 0.002 0 0.002 0 0.511 0 0.925-0.429 0.925-0.957-0-0.053-0.004-0.106-0.012-0.157zM12.92 7.768c0-1.757 1.382-3.187 3.080-3.187s3.080 1.43 3.080 3.187v1.509h-6.16v-1.509zM7.27 27.419l1.408-16.228h2.391v1.712c0 0.529 0.414 0.957 0.925 0.957s0.925-0.429 0.925-0.957v-1.712h6.16v1.712c0 0.529 0.414 0.957 0.925 0.957s0.925-0.429 0.925-0.957v-1.712h2.389l1.408 16.228h-17.457z"></path>
</symbol>
<symbol id="krista-user" viewBox="0 0 32 32">
<path d="M25.428 6.572c-2.518-2.518-5.867-3.905-9.428-3.905s-6.91 1.387-9.428 3.905-3.905 5.867-3.905 9.428c0 3.561 1.387 6.91 3.905 9.428s5.867 3.905 9.428 3.905c3.561 0 6.91-1.387 9.428-3.905s3.905-5.867 3.905-9.428c0-3.562-1.387-6.91-3.905-9.428zM9.351 25.708c0.558-3.211 3.34-5.579 6.649-5.579s6.091 2.368 6.649 5.579c-1.893 1.301-4.183 2.063-6.649 2.063s-4.756-0.763-6.649-2.063zM11.761 14.326c0-2.338 1.902-4.239 4.239-4.239s4.239 1.902 4.239 4.239c0 2.338-1.902 4.239-4.239 4.239s-4.239-1.902-4.239-4.239zM24.002 24.624c-0.421-1.495-1.256-2.851-2.426-3.91-0.718-0.65-1.536-1.163-2.415-1.525 1.589-1.036 2.641-2.829 2.641-4.863 0-3.199-2.603-5.802-5.802-5.802s-5.802 2.603-5.802 5.802c0 2.034 1.052 3.827 2.641 4.863-0.879 0.362-1.696 0.874-2.415 1.524-1.17 1.059-2.006 2.416-2.426 3.91-2.316-2.151-3.769-5.221-3.769-8.624 0-6.49 5.28-11.771 11.771-11.771s11.771 5.28 11.771 11.771c0 3.403-1.452 6.473-3.769 8.624z"></path>
</symbol>
</defs>
</svg>
