<svg width="36" height="41" viewBox="0 0 36 41" fill="none" xmlns="http://www.w3.org/2000/svg">
<path d="M16.9871 40.7568C17.5735 41.0823 18.3096 41.0802 18.8961 40.7548C34.8788 31.8319 36.0138 14.3988 35.9999 9.44184C35.9984 9.04344 35.8851 8.65415 35.6739 8.32164C35.4627 7.98914 35.1628 7.72785 34.811 7.56978L18.7525 0.176915C18.4969 0.0598431 18.2207 -0.000446984 17.9414 -8.99765e-05C17.6621 0.000267031 17.386 0.0612631 17.1307 0.178988L1.18393 7.57185C0.837216 7.73001 0.541561 7.98841 0.332184 8.31627C0.122807 8.64414 0.00853442 9.02765 0.00298059 9.42111C-0.064844 14.3531 0.890684 31.8236 16.9871 40.7568ZM11.3736 16.9964L15.9477 21.7502L24.5116 12.8501L27.3323 15.7815L15.9477 27.613L8.55287 19.9279L11.3736 16.9964Z" fill="#D400A6"/>
<path d="M16.9871 40.7568C17.5735 41.0823 18.3096 41.0802 18.8961 40.7548C34.8788 31.8319 36.0138 14.3988 35.9999 9.44184C35.9984 9.04344 35.8851 8.65415 35.6739 8.32164C35.4627 7.98914 35.1628 7.72785 34.811 7.56978L18.7525 0.176915C18.4969 0.0598431 18.2207 -0.000446984 17.9414 -8.99765e-05C17.6621 0.000267031 17.386 0.0612631 17.1307 0.178988L1.18393 7.57185C0.837216 7.73001 0.541561 7.98841 0.332184 8.31627C0.122807 8.64414 0.00853442 9.02765 0.00298059 9.42111C-0.064844 14.3531 0.890684 31.8236 16.9871 40.7568ZM11.3736 16.9964L15.9477 21.7502L24.5116 12.8501L27.3323 15.7815L15.9477 27.613L8.55287 19.9279L11.3736 16.9964Z" fill="url(#paint0_linear)"/>
<defs>
<linearGradient id="paint0_linear" x1="18" y1="-9.15527e-05" x2="18" y2="40.9999" gradientUnits="userSpaceOnUse">
<stop stop-color="#7000FF"/>
<stop offset="1" stop-color="white" stop-opacity="0"/>
</linearGradient>
</defs>
</svg>