<svg width="370" height="104" viewBox="0 0 370 104" fill="none" xmlns="http://www.w3.org/2000/svg">
<path d="M136.215 12.4683C135.45 12.4683 134.716 12.345 134.013 12.0984C133.323 11.8394 132.712 11.4571 132.182 10.9514C131.664 10.4335 131.251 9.79215 130.943 9.02753C130.634 8.25057 130.48 7.35028 130.48 6.32667C130.48 5.31539 130.64 4.42127 130.961 3.64431C131.282 2.85502 131.707 2.19522 132.237 1.66491C132.78 1.12227 133.397 0.709129 134.087 0.425478C134.79 0.141826 135.524 0 136.289 0C137.09 0 137.806 0.160325 138.435 0.480975C139.064 0.789293 139.594 1.15927 140.026 1.59092L138.361 3.62581C138.065 3.36682 137.756 3.15717 137.436 2.99684C137.127 2.82419 136.77 2.73786 136.363 2.73786C136.005 2.73786 135.666 2.81802 135.345 2.97834C135.037 3.13867 134.759 3.36682 134.513 3.66281C134.279 3.95879 134.087 4.32261 133.939 4.75425C133.804 5.1859 133.736 5.67304 133.736 6.21568C133.736 7.35028 133.97 8.21974 134.439 8.82404C134.92 9.42834 135.549 9.73049 136.326 9.73049C136.794 9.73049 137.208 9.63183 137.565 9.43451C137.935 9.22485 138.25 8.9782 138.509 8.69454L140.174 10.6924C139.656 11.2844 139.057 11.7284 138.379 12.0244C137.713 12.3204 136.992 12.4683 136.215 12.4683Z" fill="white"/>
<path d="M141.837 12.2464V0.221988H145.241L147.054 5.14273C147.165 5.47571 147.27 5.82103 147.368 6.17868C147.467 6.53632 147.572 6.89397 147.683 7.25162H147.757C147.868 6.89397 147.973 6.53632 148.071 6.17868C148.17 5.82103 148.275 5.47571 148.386 5.14273L150.125 0.221988H153.529V12.2464H150.643V8.69454C150.643 8.38623 150.655 8.04708 150.68 7.6771C150.717 7.30712 150.754 6.93097 150.791 6.54866C150.828 6.15401 150.871 5.7717 150.92 5.40172C150.97 5.03174 151.013 4.69875 151.05 4.40277H150.976L149.977 7.28862L148.497 11.2659H146.795L145.315 7.28862L144.353 4.40277H144.279C144.316 4.69875 144.359 5.03174 144.409 5.40172C144.458 5.7717 144.501 6.15401 144.538 6.54866C144.575 6.93097 144.606 7.30712 144.631 7.6771C144.668 8.04708 144.686 8.38623 144.686 8.69454V12.2464H141.837Z" fill="white"/>
<path d="M161.268 12.4683C160.429 12.4683 159.665 12.3265 158.974 12.0429C158.296 11.7592 157.71 11.3522 157.217 10.8219C156.736 10.2793 156.36 9.6195 156.088 8.84254C155.817 8.05325 155.681 7.16529 155.681 6.17868C155.681 5.19206 155.817 4.31644 156.088 3.55181C156.36 2.77485 156.736 2.12739 157.217 1.60942C157.71 1.07911 158.296 0.678298 158.974 0.406979C159.665 0.135659 160.429 0 161.268 0C162.094 0 162.853 0.135659 163.543 0.406979C164.234 0.678298 164.82 1.07911 165.301 1.60942C165.794 2.13972 166.176 2.78719 166.448 3.55181C166.719 4.31644 166.855 5.19206 166.855 6.17868C166.855 7.16529 166.719 8.05325 166.448 8.84254C166.176 9.6195 165.794 10.2793 165.301 10.8219C164.82 11.3522 164.234 11.7592 163.543 12.0429C162.853 12.3265 162.094 12.4683 161.268 12.4683ZM161.268 9.73049C161.996 9.73049 162.563 9.41601 162.97 8.78704C163.389 8.14574 163.599 7.27629 163.599 6.17868C163.599 5.08107 163.389 4.23628 162.97 3.64431C162.563 3.04001 161.996 2.73786 161.268 2.73786C160.54 2.73786 159.967 3.04001 159.548 3.64431C159.141 4.23628 158.937 5.08107 158.937 6.17868C158.937 7.27629 159.141 8.14574 159.548 8.78704C159.967 9.41601 160.54 9.73049 161.268 9.73049Z" fill="white"/>
<path d="M170.742 12.2464V2.88585H167.56V0.221988H177.105V2.88585H173.923V12.2464H170.742Z" fill="white"/>
<path d="M178.89 12.2464V0.221988H183.292C183.946 0.221988 184.569 0.289818 185.161 0.425478C185.753 0.548805 186.271 0.770793 186.715 1.09144C187.159 1.39976 187.51 1.81291 187.769 2.33088C188.04 2.83652 188.176 3.46549 188.176 4.21778C188.176 4.95774 188.04 5.59287 187.769 6.12318C187.51 6.65348 187.159 7.0913 186.715 7.43661C186.271 7.76959 185.759 8.02241 185.179 8.19507C184.6 8.3554 183.995 8.43556 183.366 8.43556H182.071V12.2464H178.89ZM182.071 5.91969H183.218C183.847 5.91969 184.31 5.7717 184.606 5.47571C184.914 5.17973 185.068 4.76042 185.068 4.21778C185.068 3.67514 184.902 3.29283 184.569 3.07084C184.236 2.84885 183.761 2.73786 183.144 2.73786H182.071V5.91969Z" fill="white"/>
<path d="M190.144 12.2464V0.221988H193.289V3.69981C193.289 4.06979 193.271 4.45827 193.234 4.86525C193.209 5.25989 193.178 5.6607 193.141 6.06768C193.104 6.46233 193.061 6.85081 193.012 7.23312C192.962 7.61543 192.919 7.96692 192.882 8.28757H192.956L194.103 5.58671L196.767 0.221988H200.134V12.2464H196.989V8.76854C196.989 8.02858 197.038 7.25162 197.137 6.43766C197.236 5.62371 197.322 4.87141 197.396 4.18078H197.322L196.175 6.86314L193.511 12.2464H190.144Z" fill="white"/>
<path d="M205.084 12.2464V2.88585H201.902V0.221988H211.448V2.88585H208.266V12.2464H205.084Z" fill="white"/>
<path d="M213.232 12.2464V0.221988H221.002V2.88585H216.414V4.77275H220.336V7.43661H216.414V9.5825H221.187V12.2464H213.232Z" fill="white"/>
<path d="M227.215 12.2464V0.221988H230.396V4.69875H233.985V0.221988H237.167V12.2464H233.985V7.47361H230.396V12.2464H227.215Z" fill="white"/>
<path d="M242.932 6.40066L242.729 7.23312H244.949L244.745 6.40066C244.597 5.82103 244.449 5.19206 244.301 4.51376C244.153 3.83547 244.005 3.19417 243.857 2.58986H243.783C243.647 3.2065 243.506 3.85397 243.358 4.53226C243.222 5.19823 243.08 5.82103 242.932 6.40066ZM238.307 12.2464L241.97 0.221988H245.818L249.481 12.2464H246.114L245.522 9.69349H242.155L241.563 12.2464H238.307Z" fill="white"/>
<path d="M250.627 12.2464V0.221988H253.735V9.5825H256.362V0.221988H259.396V9.5825H262.023V0.221988H265.131V12.2464H250.627Z" fill="white"/>
<path d="M267.79 12.2464V0.221988H270.934V3.69981C270.934 4.06979 270.916 4.45827 270.879 4.86525C270.854 5.25989 270.823 5.6607 270.786 6.06768C270.749 6.46233 270.706 6.85081 270.657 7.23312C270.608 7.61543 270.565 7.96692 270.528 8.28757H270.602L271.748 5.58671L274.412 0.221988H277.779V12.2464H274.634V8.76854C274.634 8.02858 274.684 7.25162 274.782 6.43766C274.881 5.62371 274.967 4.87141 275.041 4.18078H274.967L273.82 6.86314L271.156 12.2464H267.79Z" fill="white"/>
<path d="M284.139 12.2464V0.221988H288.468C289.097 0.221988 289.689 0.27132 290.244 0.369981C290.799 0.45631 291.28 0.610468 291.686 0.832457C292.093 1.05445 292.414 1.36276 292.648 1.75741C292.895 2.13972 293.018 2.62686 293.018 3.21883C293.018 3.47782 292.981 3.74297 292.907 4.01429C292.833 4.27328 292.729 4.5261 292.593 4.77275C292.47 5.00707 292.315 5.21673 292.13 5.40172C291.945 5.58671 291.736 5.72237 291.501 5.8087V5.88269C292.081 6.05535 292.568 6.36983 292.963 6.82614C293.37 7.27012 293.573 7.89292 293.573 8.69454C293.573 9.31118 293.444 9.84765 293.185 10.304C292.938 10.7479 292.599 11.1179 292.167 11.4139C291.748 11.6976 291.249 11.9072 290.669 12.0429C290.089 12.1785 289.479 12.2464 288.838 12.2464H284.139ZM287.321 4.92074H288.394C288.912 4.92074 289.294 4.80975 289.541 4.58776C289.787 4.36577 289.911 4.06979 289.911 3.69981C289.911 3.32983 289.787 3.06467 289.541 2.90435C289.294 2.74402 288.912 2.66386 288.394 2.66386H287.321V4.92074ZM287.321 9.80449H288.616C289.849 9.80449 290.466 9.36051 290.466 8.47256C290.466 8.02858 290.311 7.7141 290.003 7.52911C289.707 7.34411 289.245 7.25162 288.616 7.25162H287.321V9.80449Z" fill="white"/>
<path d="M295.466 12.2464V0.221988H298.611V3.69981C298.611 4.06979 298.592 4.45827 298.555 4.86525C298.531 5.25989 298.5 5.6607 298.463 6.06768C298.426 6.46233 298.383 6.85081 298.333 7.23312C298.284 7.61543 298.241 7.96692 298.204 8.28757H298.278L299.425 5.58671L302.089 0.221988H305.455V12.2464H302.311V8.76854C302.311 8.02858 302.36 7.25162 302.459 6.43766C302.557 5.62371 302.644 4.87141 302.718 4.18078H302.644L301.497 6.86314L298.833 12.2464H295.466Z" fill="white"/>
<path d="M310.036 12.2464V15.7242H307.187L306.928 11.5804V9.5825H307.483C307.618 9.53317 307.76 9.42834 307.908 9.26801C308.056 9.09536 308.204 8.8487 308.352 8.52805C308.5 8.19507 308.648 7.78193 308.796 7.28862C308.944 6.78298 309.086 6.17868 309.222 5.47571C309.32 4.98241 309.407 4.53226 309.481 4.12528C309.555 3.71831 309.629 3.31749 309.703 2.92285C309.777 2.5282 309.851 2.11506 309.925 1.68341C309.999 1.25177 310.085 0.764627 310.184 0.221988H317.731V9.5825H319.248V11.5804L318.989 15.7242H316.14V12.2464H310.036ZM312.071 5.88269C311.935 6.62265 311.762 7.30712 311.553 7.93608C311.355 8.55272 311.121 9.10152 310.85 9.5825H314.549V2.88585H312.626C312.564 3.19417 312.515 3.46549 312.478 3.69981C312.441 3.92179 312.397 4.14378 312.348 4.36577C312.311 4.58776 312.268 4.82208 312.219 5.06873C312.182 5.30306 312.132 5.57437 312.071 5.88269Z" fill="white"/>
<path d="M320.649 12.2464V0.221988H328.419V2.88585H323.831V4.77275H327.753V7.43661H323.831V9.5825H328.604V12.2464H320.649Z" fill="white"/>
<path d="M335.997 12.4683C335.159 12.4683 334.394 12.3265 333.703 12.0429C333.025 11.7592 332.439 11.3522 331.946 10.8219C331.465 10.2793 331.089 9.6195 330.817 8.84254C330.546 8.05325 330.41 7.16529 330.41 6.17868C330.41 5.19206 330.546 4.31644 330.817 3.55181C331.089 2.77485 331.465 2.12739 331.946 1.60942C332.439 1.07911 333.025 0.678298 333.703 0.406979C334.394 0.135659 335.159 0 335.997 0C336.823 0 337.582 0.135659 338.273 0.406979C338.963 0.678298 339.549 1.07911 340.03 1.60942C340.523 2.13972 340.906 2.78719 341.177 3.55181C341.448 4.31644 341.584 5.19206 341.584 6.17868C341.584 7.16529 341.448 8.05325 341.177 8.84254C340.906 9.6195 340.523 10.2793 340.03 10.8219C339.549 11.3522 338.963 11.7592 338.273 12.0429C337.582 12.3265 336.823 12.4683 335.997 12.4683ZM335.997 9.73049C336.725 9.73049 337.292 9.41601 337.699 8.78704C338.118 8.14574 338.328 7.27629 338.328 6.17868C338.328 5.08107 338.118 4.23628 337.699 3.64431C337.292 3.04001 336.725 2.73786 335.997 2.73786C335.27 2.73786 334.696 3.04001 334.277 3.64431C333.87 4.23628 333.666 5.08107 333.666 6.17868C333.666 7.27629 333.87 8.14574 334.277 8.78704C334.696 9.41601 335.27 9.73049 335.997 9.73049Z" fill="white"/>
<path d="M347.44 12.2464V0.221988H350.622V4.69875H354.211V0.221988H357.393V12.2464H354.211V7.47361H350.622V12.2464H347.44Z" fill="white"/>
<path d="M363.158 6.40066L362.954 7.23312H365.174L364.971 6.40066C364.823 5.82103 364.675 5.19206 364.527 4.51376C364.379 3.83547 364.231 3.19417 364.083 2.58986H364.009C363.873 3.2065 363.731 3.85397 363.583 4.53226C363.448 5.19823 363.306 5.82103 363.158 6.40066ZM358.533 12.2464L362.196 0.221988H366.044L369.706 12.2464H366.34L365.748 9.69349H362.381L361.789 12.2464H358.533Z" fill="white"/>
<path fill-rule="evenodd" clip-rule="evenodd" d="M105.102 23.3869C110.182 24.7418 114.174 28.7195 115.534 33.7811C117.991 42.9462 117.991 62.0796 117.991 62.0796C117.991 62.0796 117.991 81.213 115.524 90.3781C114.164 95.4397 110.172 99.4174 105.093 100.772C95.8946 103.231 58.9956 103.231 58.9956 103.231C58.9956 103.231 22.0967 103.231 12.8986 100.772C7.81882 99.4174 3.82685 95.4397 2.46705 90.3781C0 81.213 0 62.0796 0 62.0796C0 62.0796 0 42.9462 2.46705 33.7811C3.82685 28.7195 7.81882 24.7418 12.8986 23.3869C22.0967 20.9287 58.9956 20.9287 58.9956 20.9287C58.9956 20.9287 95.8946 20.9287 105.102 23.3869ZM77.8579 62.0811L47.1945 79.7144V44.4478L77.8579 62.0811Z" fill="#FF0002"/>
<path d="M171.276 95.7992C168.945 94.2314 167.284 91.7925 166.293 88.4827C165.312 85.1728 164.817 80.779 164.817 75.2819V67.8008C164.817 62.2553 165.38 57.7937 166.507 54.4354C167.633 51.0772 169.391 48.6189 171.781 47.0801C174.17 45.5413 177.307 44.7671 181.193 44.7671C185.019 44.7671 188.079 45.551 190.391 47.1188C192.692 48.6867 194.382 51.1449 195.451 54.4741C196.519 57.813 197.054 62.2553 197.054 67.8008V75.2819C197.054 80.779 196.529 85.1921 195.49 88.5214C194.45 91.8603 192.76 94.2992 190.429 95.838C188.098 97.3768 184.932 98.151 180.94 98.151C176.822 98.1607 173.607 97.3671 171.276 95.7992ZM184.349 87.7278C184.99 86.0438 185.32 83.3049 185.32 79.4918V63.436C185.32 59.739 185 57.0291 184.349 55.3258C183.698 53.6128 182.562 52.7611 180.93 52.7611C179.357 52.7611 178.24 53.6128 177.599 55.3258C176.948 57.0388 176.627 59.739 176.627 63.436V79.4918C176.627 83.3049 176.938 86.0535 177.56 87.7278C178.182 89.4118 179.299 90.2537 180.93 90.2537C182.562 90.2537 183.698 89.4118 184.349 87.7278Z" fill="white"/>
<path d="M350.497 75.4078V78.0112C350.497 81.3211 350.594 83.7987 350.788 85.4536C350.982 87.1086 351.39 88.3086 352.012 89.0732C352.633 89.8281 353.585 90.2055 354.877 90.2055C356.616 90.2055 357.82 89.5281 358.461 88.1828C359.112 86.8376 359.462 84.5923 359.52 81.4566L369.563 82.047C369.621 82.4921 369.65 83.1115 369.65 83.8955C369.65 88.657 368.339 92.2185 365.726 94.5703C363.114 96.922 359.413 98.1028 354.634 98.1028C348.894 98.1028 344.873 96.3123 342.571 92.7218C340.259 89.1313 339.113 83.5858 339.113 76.0756V67.0751C339.113 59.3423 340.308 53.6904 342.697 50.1289C345.087 46.5674 349.176 44.7866 354.974 44.7866C358.966 44.7866 362.035 45.5125 364.172 46.9739C366.309 48.4352 367.815 50.6999 368.689 53.7872C369.563 56.8745 370 61.1328 370 66.5718V75.3982H350.497V75.4078ZM351.973 53.7194C351.38 54.4453 350.992 55.6357 350.788 57.2906C350.594 58.9455 350.497 61.4522 350.497 64.8201V68.5171H359.015V64.8201C359.015 61.5102 358.898 59.0036 358.675 57.2906C358.451 55.5776 358.043 54.3775 357.451 53.671C356.859 52.9742 355.946 52.6161 354.712 52.6161C353.478 52.6258 352.556 52.9936 351.973 53.7194Z" fill="white"/>
<path d="M142.914 74.4493L129.666 26.7754H141.224L145.867 48.3864C147.052 53.7093 147.916 58.2483 148.48 62.0033H148.82C149.208 59.3129 150.082 54.8029 151.432 48.4638L156.24 26.7754H167.799L154.395 74.4493V97.3184H142.914V74.4493V74.4493Z" fill="white"/>
<path d="M234.652 45.7734V97.3185H225.541L224.531 91.0085H224.279C221.802 95.7701 218.092 98.1508 213.138 98.1508C209.709 98.1508 207.174 97.0282 205.543 94.7926C203.911 92.5473 203.095 89.0438 203.095 84.2823V45.7734H214.741V83.6048C214.741 85.9082 214.993 87.5437 215.498 88.5212C216.003 89.4987 216.848 89.9923 218.033 89.9923C219.043 89.9923 220.015 89.6826 220.947 89.0632C221.88 88.4438 222.559 87.6599 223.016 86.7114V45.7734H234.652Z" fill="white"/>
<path d="M294.376 45.7734V97.3185H285.265L284.255 91.0085H284.003C281.526 95.7701 277.816 98.1508 272.862 98.1508C269.433 98.1508 266.898 97.0282 265.267 94.7926C263.635 92.5473 262.819 89.0438 262.819 84.2823V45.7734H274.465V83.6048C274.465 85.9082 274.717 87.5437 275.222 88.5212C275.727 89.4987 276.572 89.9923 277.757 89.9923C278.767 89.9923 279.739 89.6826 280.671 89.0632C281.604 88.4438 282.283 87.6599 282.74 86.7114V45.7734H294.376Z" fill="white"/>
<path d="M266.287 36.105H254.728V97.3184H243.335V36.105H231.777V26.7754H266.287V36.105V36.105Z" fill="white"/>
<path d="M332.916 54.0096C332.207 50.7578 331.071 48.406 329.497 46.9446C327.924 45.4833 325.758 44.7574 323 44.7574C320.863 44.7574 318.862 45.3574 317.007 46.5672C315.152 47.7769 313.714 49.3545 312.704 51.3191H312.617V24.1626H301.398V97.309H311.014L312.199 92.4313H312.452C313.355 94.1733 314.705 95.5379 316.502 96.5541C318.299 97.5606 320.299 98.0639 322.495 98.0639C326.428 98.0639 329.332 96.2541 331.188 92.6442C333.043 89.0246 333.975 83.3823 333.975 75.698V67.5394C333.975 61.781 333.616 57.2711 332.916 54.0096ZM322.242 75.0399C322.242 78.795 322.087 81.7371 321.776 83.8662C321.465 85.9954 320.95 87.5148 320.212 88.4052C319.484 89.3053 318.493 89.7505 317.259 89.7505C316.298 89.7505 315.414 89.5279 314.598 89.073C313.782 88.6278 313.122 87.9504 312.617 87.06V57.8034C313.005 56.4 313.685 55.258 314.647 54.358C315.598 53.4579 316.647 53.0127 317.764 53.0127C318.949 53.0127 319.862 53.4773 320.503 54.3967C321.154 55.3258 321.601 56.8743 321.854 59.0615C322.106 61.2487 322.232 64.3554 322.232 68.3911V75.0399H322.242Z" fill="white"/>
</svg>
